<?xml version="1.0" encoding="UTF-8" standalone="no"?><!DOCTYPE svg PUBLIC "-//W3C//DTD SVG 1.1//EN" "http://www.w3.org/Graphics/SVG/1.1/DTD/svg11.dtd"><svg width="100%" height="100%" viewBox="0 0 1000 1000" version="1.1" xmlns="http://www.w3.org/2000/svg" xmlns:xlink="http://www.w3.org/1999/xlink" xml:space="preserve" xmlns:serif="http://www.serif.com/" style="fill-rule:evenodd;clip-rule:evenodd;stroke-linejoin:round;stroke-miterlimit:1.41421;"><rect id="Robot_3" x="0" y="0" width="1000" height="1000" style="fill:none;"/><rect x="0" y="0" width="1000" height="1000" style="fill:#000026;"/><circle cx="451.12" cy="423.237" r="176.255" style="fill:#0ff;fill-opacity:0.14902;"/><circle cx="627.375" cy="700.867" r="101.375" style="fill:#f0f;fill-opacity:0.14902;"/><path d="M716.197,761.665c13.707,0.133 26.527,10.806 28.881,24.469c2.851,16.544 -10.667,34.415 -28.881,34.53c-14.116,0.089 -27.421,-11.26 -29.403,-25.382c-2.297,-16.357 11.36,-33.327 28.831,-33.615c0.19,-0.002 0.381,-0.003 0.572,-0.002Zm-355.175,-238.595c-4.093,0.066 -7.823,3.379 -8.235,7.609c-0.419,4.788 -0.635,9.586 -0.643,14.388c0,0 -0.089,1.059 -0.673,1.907c-1.783,2.591 -5.307,2.752 -8.622,3.822c-25.869,8.351 -44.966,35.743 -40.92,63.837c3.457,24.007 22.734,45.455 46.731,50.507c0,0 2.175,0.369 2.892,1.482c0.689,1.07 1.163,2.212 1.528,5.413c3.499,29.584 17.169,58.048 38.203,79.392c16.685,16.867 33.495,33.595 50.282,50.285c10.981,10.722 25.844,16.89 41.214,17.076c18.817,0.051 37.654,0.054 56.486,0.01l3.757,-0.01c15.28,-0.186 30.256,-6.383 41.214,-17.076c12.608,-12.53 25.205,-25.091 37.761,-37.69c8.684,-8.715 17.624,-17.219 24.915,-27.091c14.425,-19.53 23.571,-42.927 26.047,-67.096c0,0 0.14,-2.271 1.197,-3.11c1.39,-1.104 1.747,-1.305 3.906,-1.787c22.582,-5.152 41.555,-24.625 45.496,-47.444c3.793,-21.963 -5.955,-45.691 -24.185,-58.545c-6.576,-4.637 -14.099,-7.927 -21.961,-9.622c0,0 -3.136,-0.922 -3.689,-3.507c-0.406,-1.896 -0.064,-3.821 -0.114,-5.945c-0.147,-5.189 0.364,-11.095 -3.102,-14.354c-1.9,-1.786 -3.355,-2.124 -5.971,-2.107c-3.131,0.02 -7.775,2.235 -7.801,9.467c-0.011,3.183 0.135,6.466 0.172,9.652l0.003,0.342c0.264,38.084 0.339,76.028 -0.003,114.444c-0.371,30.395 -12.652,60.124 -33.957,81.985c-16.74,17.07 -33.619,33.705 -50.477,50.485c-7.697,7.533 -18.306,11.982 -29.031,12.247l-0.52,0.008c-19.972,0.053 -40.019,0.053 -60.043,0c-10.809,-0.138 -21.481,-4.448 -29.364,-12.06c-17.055,-16.695 -33.911,-33.57 -50.662,-50.666c-21.231,-21.753 -33.591,-51.603 -33.959,-81.982c-0.378,-38.254 -0.262,-76.521 -0.002,-114.466c0.056,-6.145 1.956,-12.706 -1.315,-16.738c-1.203,-1.484 -2.926,-2.517 -4.819,-2.911c0,0 -1.013,-0.153 -1.736,-0.151Zm354.897,254.594c-8.847,0.086 -16.198,10.537 -12.154,19.197c3.888,8.324 17.228,10.465 23.209,2.173c5.584,-7.743 0.151,-21.135 -10.702,-21.367c-0.118,-0.002 -0.236,-0.003 -0.353,-0.003Zm-220.327,-58.445c-5.654,0.101 -10.558,8.19 -5.154,12.625c1.945,1.596 4.414,2.445 6.854,3.263c11.089,3.717 23.455,3.11 34.347,-1.221c4.666,-1.855 8.089,-7.3 4.609,-11.634c-2.129,-2.652 -6.742,-3.259 -9.842,-2.012c-6.121,2.436 -12.648,3.591 -19.347,1.979c-2.134,-0.514 -4.216,-1.209 -6.311,-1.861c-1.691,-0.524 -3.381,-1.146 -5.156,-1.139Zm182.511,-151.98c2.059,0.056 2.134,0.464 2.906,0.777c16.779,6.807 28.626,25.018 26.303,43.666c-1.938,15.559 -12.74,29.8 -27.632,35.302c0,0 -5.086,0.602 -5.968,-3.516c0,0 -0.055,-0.471 -0.055,-0.471l0,-71.506c0.063,-0.637 0.122,-0.806 0.208,-1.106c0.525,-1.818 2.194,-3.155 4.238,-3.146Zm-330.267,-0.003c1.924,0.048 2.293,0.523 3.018,1.267c1.064,1.091 1.29,2.975 1.29,2.975l0,71.507c0,0 -0.303,2.391 -2.23,3.31c-3.727,1.777 -8.19,-0.923 -12.108,-3.407c-11.76,-7.458 -19.687,-20.896 -19.58,-35.139c0.127,-17.04 11.146,-33.635 26.91,-39.882c1.778,-0.705 1.583,-0.643 2.7,-0.631Zm262.487,26.355c-1.418,0.034 -3.449,0.704 -3.449,0.704c-0.322,0.146 -0.646,0.289 -0.97,0.431c-17.654,7.633 -38.287,8.115 -56.127,0.359c-1.49,-0.648 -3.004,-1.311 -4.607,-1.323c-4.003,-0.033 -8.174,3.406 -7.421,7.813c0.847,4.962 6.315,7.206 11.999,9.198c19.443,6.816 41.456,6.052 60.555,-2.024c3.793,-1.603 7.822,-4.542 6.61,-9.222c-0.774,-2.989 -3.302,-5.567 -6.378,-5.919c-0.07,-0.007 -0.141,-0.017 -0.212,-0.017Zm-129.184,0c-1.343,0.021 -3.112,0.582 -3.32,0.675c-16.878,7.545 -36.577,9.299 -54.015,2.09c-4.333,-1.818 -9.338,-4.193 -12.856,-0.91c-4.019,3.75 -1.985,10.54 4.598,13.353c20.944,8.949 45.285,8.687 66.291,-0.327c2.816,-1.209 5.588,-2.958 6.103,-5.947c0.718,-4.16 -2.618,-8.622 -6.712,-8.934c-0.029,-0.001 -0.059,0 -0.089,0Zm-196.942,-191.008c13.707,0.132 26.527,10.806 28.881,24.469c2.851,16.544 -10.667,34.415 -28.881,34.53c-14.116,0.088 -27.421,-11.26 -29.403,-25.382c-2.297,-16.357 11.36,-33.327 28.831,-33.616c0.19,-0.001 0.381,-0.002 0.572,-0.001Zm112.37,60.143c2.241,-0.344 4.52,0.308 6.241,1.785c1.721,1.476 2.711,3.631 2.711,5.898c0,0.15 0,0.3 0,0.449c0,3.831 -2.792,7.091 -6.578,7.68c-2.031,0.316 -4.061,0.644 -6.088,0.987c-11.498,1.945 -23.352,3.789 -33.508,8.974c0,0 -0.586,-0.137 0.235,0.282c7.991,3.989 16.942,5.762 25.847,7.504c39.663,7.759 80.473,9.242 121.179,9.48c43.515,0.256 86.94,-0.947 130.126,-8.796c10.257,-1.864 20.811,-3.768 29.71,-8.307c0,0 0.588,0.136 -0.235,-0.284c-6.132,-3.061 -12.908,-4.693 -19.645,-6.205c-6.526,-1.465 -13.101,-2.691 -19.715,-3.728c-3.785,-0.589 -6.576,-3.849 -6.576,-7.679c-0.002,-0.118 -0.002,-0.237 -0.002,-0.356c0,-2.267 0.99,-4.42 2.709,-5.897c1.72,-1.477 3.998,-2.129 6.239,-1.787c0.514,0.079 1.029,0.158 1.543,0.238c14.747,2.293 29.906,4.584 43.004,11.308c7.972,4.092 14.801,12.724 8.84,21.468c-5.628,8.255 -16.681,10.887 -26.969,13.524c-19.147,4.908 -38.907,7.193 -58.701,8.992c-60.893,5.536 -122.466,5.432 -183.051,-1.535c-21.467,-2.468 -43.851,-3.962 -62.742,-14.302c-5.208,-2.85 -10.383,-7.528 -10.245,-14.088c0.156,-7.435 7.752,-12.808 14.861,-15.79c12.167,-5.105 25.385,-7.392 38.567,-9.467c0.747,-0.118 1.495,-0.234 2.243,-0.348Zm-112.648,-44.144c-8.847,0.086 -16.198,10.537 -12.154,19.197c3.888,8.324 17.228,10.465 23.209,2.173c5.584,-7.743 0.151,-21.135 -10.702,-21.367c-0.118,-0.002 -0.236,-0.003 -0.353,-0.003Zm140.877,5.046c-3.087,-0.007 -6.552,-0.014 -8.195,-0.022c-35.865,-0.277 -70.782,-22.063 -86.408,-55.239c-12.536,-26.617 -11.881,-59.096 1.68,-85.183c16.011,-30.798 49.227,-51.572 84.728,-51.846c22.926,-0.108 45.852,-0.153 68.779,-0.161l-0.001,-51.841l55,0l0,51.878c22.824,0.034 45.647,0.083 68.47,0.122c23.647,0.112 47.07,9.198 64.542,25.169c29.989,27.41 40.065,74.418 21.926,112.385c-15.483,32.408 -49.885,54.545 -86.468,54.717l-7.891,0.01c-0.017,7.554 -0.041,15.107 -0.07,22.661c-0.238,18.682 -16.671,36.328 -36.486,36.721c-34.193,0.451 -68.431,0.1 -102.704,0.003c-18.984,-0.253 -36.346,-17.085 -36.724,-36.492c-0.092,-7.624 -0.148,-15.251 -0.178,-22.882Zm100.976,-100.016c-21.342,0.008 -42.634,-0.247 -64.061,0.05c-10.44,0.206 -19.962,9.414 -20.164,20.133c-0.446,34.012 -0.404,68.637 0,102.489c0.209,10.478 9.419,19.869 20.005,20.14c34.08,0.646 68.704,0.438 102.617,0.002c10.393,-0.196 19.942,-9.431 20.143,-20.138c0.447,-34.096 0.133,-68.229 0.001,-102.362c-0.124,-10.41 -9.221,-20.05 -20.137,-20.265c-12.845,-0.168 -25.621,-0.05 -38.404,-0.049Zm-34.569,80.927l0,19.96c-0.167,3.549 -2.49,6.974 -5.965,7.931c-4.88,1.345 -10.388,-2.408 -10.609,-7.89l0,-41.273c0.082,-2.155 0.94,-4.228 2.402,-5.797l17.706,-17.706c1.576,-1.465 3.651,-2.324 5.798,-2.401l21.252,0c0.159,0.004 0.318,0.009 0.476,0.014c4.16,0.404 7.62,3.813 7.781,8.236l0,58.925c-0.289,7.497 -13.512,11.611 -16.261,2.33c-0.224,-0.758 -0.287,-1.548 -0.313,-2.335l0,-19.994l-22.267,0Zm52.245,-47.162c4.135,0.398 7.61,3.808 7.782,8.234l0,58.924c-0.111,3.097 -1.302,5.948 -5.004,7.574c-4.802,2.013 -11.239,-1.628 -11.556,-7.115c-0.009,-0.157 -0.011,-0.315 -0.014,-0.472l0,-58.908c0.157,-4.337 3.654,-8.077 8.279,-8.253c0.171,0.006 0.342,0.011 0.513,0.016Zm57.536,50.253c2.867,-0.007 6.277,-0.015 8.074,-0.024c29.802,-0.23 59.006,-18.401 72.032,-46.057c10.414,-22.108 9.999,-49.057 -1.401,-70.985c-13.392,-25.761 -41.552,-43.089 -70.892,-43.228c-22.806,-0.039 -45.612,-0.05 -68.418,-0.048l0,11.562c-0.014,3.934 -0.932,7.807 -2.576,11.345c23.882,0.02 47.765,0.067 71.647,0.142c24.002,0.227 46.913,17.415 53.514,40.674c7.168,25.255 -5.695,55.01 -30.825,66.374c-7.111,3.216 -14.923,4.876 -22.689,4.95l-8.466,0.017c0.009,8.426 0.008,16.852 0,25.278Zm-176.159,-25.279l-8.516,-0.016c-28.024,-0.265 -54.456,-23.85 -55.598,-53.839c-0.894,-23.475 14.572,-46.654 36.703,-54.76c6.04,-2.212 12.47,-3.338 18.895,-3.399c23.851,-0.075 47.702,-0.122 71.553,-0.142c-0.575,-1.221 -1.058,-2.5 -1.437,-3.834c-0.275,-0.967 -0.488,-1.945 -0.64,-2.928c-0.254,-1.457 -0.391,-2.937 -0.405,-4.424l0,-11.7c-22.718,0.013 -45.435,0.027 -68.152,0.027c-19.814,0.034 -39.409,7.583 -54.066,20.979c-24.893,22.752 -33.518,61.786 -18.283,93.678c12.891,26.987 41.488,45.47 72.082,45.614l7.807,0.009c0.002,-8.419 0.026,-16.841 0.057,-25.265Zm88.645,-8.414l-9.466,0l-12.801,12.8l0,1.194c7.279,-0.052 14.547,-0.131 21.816,-0.091l0.451,0.003l0,-13.906Zm87.488,-7.585l8.391,-0.017c16.979,-0.161 33.083,-12.121 38.015,-28.336c4.073,-13.389 0.487,-28.855 -9.154,-39.085c-7.398,-7.851 -17.917,-12.474 -28.861,-12.577c-31.885,-0.101 -63.769,-0.101 -95.654,-0.077c-0.374,0.008 -0.747,0.008 -1.121,0.001c-31.964,0.025 -63.928,0.075 -95.892,0.075c-20.273,0.064 -39.028,16.971 -39.972,38.192c-0.945,21.235 17.196,41.594 39.7,41.807l8.48,0.016c0.032,-7.511 0.063,-15.023 0.081,-22.536c0.241,-18.966 16.827,-36.331 36.489,-36.727c19.226,-0.245 38.558,-0.087 57.872,-0.083c14.943,0.009 29.886,0.036 44.829,0.08c18.721,0.247 36.339,16.466 36.721,36.313c0,0 0.033,7.275 0.051,13.226c0.01,3.243 0.018,6.486 0.025,9.728Zm-85.218,-96.466c6.976,-2.193 11.45,-11.934 5.926,-18.464c-2.165,-2.56 -5.468,-4.099 -8.862,-4.086c-4.422,0.039 -8.691,2.845 -10.469,6.904c-2.779,6.342 1.787,14.726 8.781,15.945l1.763,0l1.503,0c0.458,-0.072 0.911,-0.172 1.358,-0.299Zm8.639,-74.55l-23,0c0,5.615 -0.031,30.227 -0.058,35.841c7.686,0.002 15.372,0.008 23.058,0.016l0,-35.857Z" style="fill:url(#_Linear1);"/><defs><linearGradient id="_Linear1" x1="0" y1="0" x2="1" y2="0" gradientUnits="userSpaceOnUse" gradientTransform="matrix(518.918,0,0,424.196,226.541,500)"><stop offset="0" style="stop-color:#0ff;stop-opacity:1"/><stop offset="1" style="stop-color:#f0f;stop-opacity:1"/></linearGradient></defs></svg>