<svg width="2000" height="1606" viewBox="0 0 2000 1606" fill="none" xmlns="http://www.w3.org/2000/svg">
<path d="M1619.91 1101.02C1623.47 1093.99 1625.79 1086.65 1626.87 1079.02C1626.9 1078.75 1626.61 1078.56 1626.38 1078.71C1619.73 1082.98 1614.42 1088.56 1610.45 1095.46C1608.23 1098.24 1604.87 1100.55 1602.6 1102.93C1555.13 1152.25 1491.1 1194.8 1423.23 1204.95C1409.39 1207.03 1392.88 1207.86 1373.7 1207.46C1370.41 1207.39 1365.9 1207.01 1360.22 1206.34C1354.22 1205.61 1347.92 1205.46 1342.31 1204.5C1298.4 1196.85 1257.84 1179.99 1220.62 1153.92C1219.71 1153.3 1219.27 1152.18 1219.51 1151.09C1219.91 1149.29 1221.38 1148.53 1223.91 1148.8C1226.59 1149.09 1229.19 1149.78 1231.79 1149.91C1258.78 1151.23 1287.07 1150.51 1313.62 1145.15C1320.78 1143.69 1328.41 1142.75 1335.04 1140.97C1391.23 1125.91 1437.53 1095.59 1473.95 1049.99C1476.86 1046.33 1479.78 1042.7 1482.72 1039.07C1497.75 1020.56 1509.85 997.264 1519.55 975.554C1521.65 970.813 1523.42 964.509 1526.01 959.149C1531.01 948.794 1535.35 937.53 1537.49 926.557C1537.93 924.286 1535.8 922.36 1533.59 923.051C1527.36 924.976 1520.78 928.901 1516.19 930.899C1506.7 935.023 1497.2 939.111 1487.68 943.144C1458.35 955.588 1434.13 964.145 1415.08 968.833C1406.87 970.867 1398.57 973.574 1392.01 975.064C1374.93 978.97 1357.78 982.494 1340.56 985.674C1330.64 987.49 1319.98 987.817 1309.57 989.071C1307.21 989.343 1303.67 989.562 1298.96 989.725C1294.19 989.889 1289.21 990.833 1284.81 990.979C1262.2 991.723 1247.48 991.56 1240.69 990.452C1229.19 988.562 1216.91 988.272 1206.25 986.273C1198.22 984.765 1190.21 983.203 1182.2 981.604C1151.46 975.445 1121.83 965.853 1093.3 952.845C1087.1 950.029 1080.93 947.177 1074.73 944.325C1032.23 924.704 996.331 898.034 959.8 869.638C902.398 825.001 842.126 784.633 778.965 748.534C771.045 744.011 760.545 738.851 751.553 733.601C736.549 724.844 721.544 716.505 706.304 709.075C683.833 698.12 659.982 685.948 639.037 676.137C580.799 648.904 521.544 624.088 461.272 601.669C442.87 594.82 424.432 588.098 405.958 581.485C400.018 579.359 392.153 577.379 384.977 574.836C378.492 572.547 367.938 569.004 353.279 564.19C296.567 545.568 250.863 532.415 198.892 520.043C197.693 519.77 196.894 519.243 196.494 518.498C196.131 517.844 196.367 517.009 197.003 516.627C203.779 512.612 210.572 509.397 217.384 506.98C254.46 493.773 294.46 487.069 333.751 486.415C338.638 486.324 344.106 485.216 348.32 485.179C371.59 484.98 387.03 484.943 394.641 485.089C399.292 485.179 403.506 486.487 409.174 485.961C413.751 485.543 418.638 486.651 422.489 486.742C432.425 486.96 439.492 487.287 443.688 487.741C470.264 490.557 497.203 492.719 523.524 497.243C536.585 499.477 549.864 501.13 562.743 503.946C567.938 505.091 573.134 506.199 578.329 507.307C584.324 509.796 590.627 511.304 597.221 511.831C602.798 512.285 607.902 513.212 612.516 514.611C614.787 515.301 615.005 514.883 613.206 513.339C608.047 508.979 601.926 505.2 594.841 502.021C562.761 485.125 532.098 471.463 497.893 457.274C492.443 455.003 483.779 451.77 471.88 447.537C460.164 443.358 448.52 438.126 437.094 434.729C390.191 420.74 344.505 409.385 296.058 402.082C289.628 401.101 281.799 400.955 276.113 400.011C262.162 397.703 244.051 395.996 221.799 394.906C193.17 393.488 166.594 393.561 142.071 395.105C103.07 397.576 62.071 401.773 24.3962 412.837C17.6205 414.817 11.19 415.871 4.52331 417.615C3.41523 417.905 3.23358 417.615 3.97835 416.761C6.03103 414.345 8.61051 412.219 11.6986 410.421C56.8394 384.005 104.124 363.512 153.515 348.942C161.417 346.598 172.407 343.619 186.449 339.985C205.849 334.953 229.555 331.011 250.972 325.579C256.095 324.289 261.126 323.598 266.067 323.526C276.204 323.38 287.938 324.543 297.729 322.091C302.125 320.982 306.158 319.82 310.772 319.82C354.169 319.801 397.566 319.783 440.963 319.729C447.993 319.729 456.422 322.854 464.069 323.126C471.735 323.399 478.874 323.235 486.449 324.779C498.62 327.268 507.684 329.03 513.642 330.066C517.875 330.793 522.997 330.811 527.502 331.665C555.968 337.042 584.106 342.765 611.917 348.833L632.534 354.047C633.261 354.211 633.697 354.483 633.86 354.901C638.22 357.008 642.852 358.298 647.775 358.789C650.645 359.079 652.988 360.696 656.004 361.096C665.323 362.313 672.389 366.728 680.236 368.763C683.651 369.653 685.868 371.488 689.719 372.251C692.825 372.85 695.713 373.868 698.402 375.267C699.51 375.848 700.799 374.903 700.582 373.668C700.4 372.687 699.909 371.869 699.11 371.233C698.62 370.852 698.111 370.816 697.584 371.124C696.331 371.869 694.66 372.015 692.607 371.579C701.744 369.526 692.498 360.115 689.047 357.862C682.634 353.666 676.531 349.087 670.7 344.128C667.139 341.094 663.561 338.568 659.964 336.534C649.664 330.72 639.71 322.218 631.354 318.693C623.415 315.35 614.641 309.828 606.631 307.466C596.458 304.468 586.794 300.053 576.93 296.22C570.118 293.568 563.234 291.515 556.276 290.08C543.47 287.445 530.591 284.829 517.639 282.231C473.515 275.364 428.847 274.492 383.633 279.633C374.696 281.686 365.74 282.903 356.749 283.321C352.97 283.485 346.867 284.865 343.324 286.41C336.948 289.189 330.3 290.625 323.397 290.752C312.135 290.933 303.833 296.147 292.207 292.986C283.397 290.57 277.675 296.256 269.664 298.527C269.464 298.582 269.319 298.509 269.228 298.309V298.291C269.155 298.091 269.228 297.946 269.428 297.855C282.38 292.114 295.277 286.264 308.156 280.305C343.815 263.773 371.281 252.346 390.554 246.042C402.925 241.99 415.314 237.994 427.72 234.033C457.748 224.441 487.757 217.246 518.202 210.434C532.353 207.272 542.997 205.201 550.136 204.202C559.637 202.876 568.956 200.859 577.185 199.878C592.207 198.116 606.994 195.682 622.071 194.61C638.093 193.483 654.623 191.539 670.046 191.14C723.433 189.723 763.215 191.122 814.823 196.99C827.593 198.443 839.582 200.169 850.772 202.186C880.69 207.545 908.029 213.631 932.807 220.407C984.433 234.542 1035.71 253.908 1086.65 278.489C1098.46 284.193 1112.04 291.606 1124.69 298.309C1139.16 305.976 1153.1 314.86 1167.19 323.181C1171.9 325.96 1177.73 329.685 1184.65 334.354C1192.32 339.531 1200.69 344.436 1207.85 349.432C1237.62 370.18 1267.5 390.745 1297.49 411.147C1299.18 412.292 1302.62 414.417 1307.79 417.524C1318.89 424.191 1329.52 431.949 1340.91 437.999C1350.08 442.886 1359.36 447.573 1368.74 452.06C1374.66 454.894 1380.11 456.711 1385.1 457.529C1396.37 459.345 1404.72 464.614 1415.57 465.032C1436.42 465.813 1449.08 466.485 1465.58 465.268C1473.53 464.668 1481.96 462.034 1490.35 460.871C1496.06 460.072 1502.78 456.802 1510.5 451.061C1514.19 448.318 1521.09 441.469 1531.23 430.477C1536.35 424.918 1538.62 406.26 1538.67 397.395C1538.78 381.989 1539.64 371.433 1533.7 359.061C1527.01 345.127 1521.24 330.92 1513.68 317.385C1511.93 314.242 1509.85 311.354 1507.41 308.719C1495.08 295.366 1486.21 286.373 1480.8 281.741C1470.37 272.857 1462.18 268.933 1449.48 266.444C1439.31 264.445 1428.37 265.118 1417.93 265.245C1413.06 265.299 1408.3 265.99 1403.67 267.316C1380.76 273.892 1366.39 279.942 1348.76 289.244C1343.38 292.078 1338.2 296.965 1334.26 299.708C1326.18 305.377 1318.24 311.263 1310.48 317.367C1308.68 318.784 1307.25 319.765 1306.19 320.31C1303.92 321.491 1301.16 320.092 1300.76 317.549C1299.26 307.865 1298.35 298.219 1298.07 288.626C1297.73 276.399 1299.4 262.084 1300.67 248.712C1303.65 217.592 1314.57 188.033 1331.86 162.017C1334.99 157.33 1330.59 151.771 1328.37 147.738C1321.76 135.62 1321.4 123.212 1327.27 110.549C1333.28 97.5957 1341.36 86.6408 1351.55 77.7206C1365.14 65.8209 1380.02 55.738 1397.95 44.6922C1424.69 28.2325 1456.93 14.498 1487.72 8.15753C1495.48 6.55879 1503.02 4.74205 1510.84 4.03352C1518.42 3.36133 1525.99 2.79814 1533.59 2.38029C1589.37 -0.74451 1642.76 15.1701 1690.19 43.9837C1713.9 58.3723 1734.06 73.6874 1750.68 89.9291C1769.28 108.078 1789.3 126.536 1805.14 147.138C1828.57 177.587 1845.76 206.491 1861.05 236.831C1876.46 267.407 1892.03 298.055 1905.56 329.503C1926.41 377.901 1941.09 417.142 1954.44 460.563C1955.73 464.796 1956.44 469.864 1957.91 474.406C1961.33 484.98 1965.36 499.586 1969.99 518.244C1980.82 561.737 1987.61 603.213 1992.97 647.324C1994.42 659.296 1995.39 671.377 1995.86 683.531C1997.82 734.636 1997.64 778.547 1995.3 815.263C1993.91 837.028 1990.34 864.533 1984.54 897.762C1979.89 924.54 1973.44 948.231 1966.01 976.063C1961.73 992.105 1955.62 1009.58 1952.06 1020.99C1945.01 1043.54 1939.85 1058.13 1936.6 1064.74C1930.86 1076.37 1926.45 1088.86 1921.07 1100.16C1916.64 1109.52 1913.01 1119.13 1908.01 1128.27C1903.03 1137.35 1898.67 1146.66 1893.57 1155.68C1890.86 1160.46 1887.96 1165.89 1884.81 1171.96C1872.99 1194.78 1857.57 1218.11 1842.96 1240.78C1829.88 1261.06 1814.8 1281.02 1800.29 1300.88C1794.06 1309.4 1780.76 1325.93 1760.38 1350.51C1748.41 1364.94 1734.86 1378.2 1722.54 1392.19C1708.54 1408.1 1692.9 1424.25 1676.97 1438.22C1673.7 1441.09 1670.79 1444.67 1667.87 1447.33C1663.47 1451.3 1659.13 1455.32 1654.82 1459.37C1640.33 1473.05 1624.74 1485.75 1609.59 1498.69C1563.85 1537.73 1515.28 1572.25 1463.98 1603.55C1463.31 1603.95 1462.71 1604.17 1462.18 1604.22C1461.11 1604.33 1460.24 1603.35 1460.47 1602.28C1467.59 1570.52 1476.46 1539.22 1487.07 1508.35C1489.43 1501.48 1491.41 1493.11 1493.55 1487.44C1501.51 1466.46 1509.03 1447.58 1518.95 1425.23C1524.89 1411.83 1530.45 1397.71 1536.97 1385.19C1547.52 1364.95 1558.73 1345.1 1570.61 1325.64C1571.34 1324.46 1571.19 1322.97 1570.26 1321.95C1569.16 1320.75 1567.59 1320.59 1565.58 1321.48C1526.38 1338.67 1485.85 1348.88 1443.25 1353.13C1425.27 1354.93 1403.25 1355.73 1388.28 1354.51C1371.1 1353.11 1354.06 1351.95 1336.93 1349.08C1310.79 1344.7 1286.49 1339.05 1261.53 1331.05C1257.44 1329.75 1253.66 1327.88 1250.17 1325.42C1249.06 1324.66 1249.17 1324.11 1250.48 1323.81C1264.38 1320.55 1279.24 1317.72 1292.41 1314.25C1319.64 1307.07 1338.62 1301.75 1349.36 1298.24C1408.43 1278.99 1463.56 1254.12 1514.99 1219.87C1536.4 1205.61 1558.4 1186.15 1582.53 1159.92C1597.35 1143.78 1609.81 1124.15 1619.91 1101.02ZM857.094 323.816C863.579 330.557 870.173 337.387 876.912 344.291C888.829 356.518 900.672 371.197 913.116 384.241C916.64 389.873 920.563 395.16 924.887 400.083C929.101 404.898 931.462 408.713 931.19 414.672C929.773 447.591 928.447 479.33 931.027 511.159C933.37 539.991 938.056 566.715 945.068 595.692C946.558 601.796 949.065 607.937 950.936 614.241C952.28 618.765 953.497 622.38 954.605 625.123C961.871 643.345 969.264 661.64 979.71 678.444C986.776 689.854 993.461 702.262 1001.93 712.654C1003.94 715.143 1006.56 718.395 1009.74 722.41C1014.61 728.532 1021.98 736.598 1031.88 746.59C1032.53 747.263 1033.15 747.917 1033.75 748.571C1040.18 755.747 1047.56 761.906 1055.86 767.083C1075.86 783.398 1097.8 796.696 1121.67 806.997C1151.15 819.714 1167.88 826.055 1196.6 831.123C1202.53 832.177 1208.88 832.177 1215.15 832.922C1225.43 834.139 1234.06 833.921 1243.76 833.903C1254.13 833.885 1265.32 832.232 1276.24 832.086C1280.44 832.032 1284.87 831.541 1289.5 830.578C1302.56 827.908 1314.28 829.597 1327.08 823.602C1332.72 820.968 1342.05 821.186 1349.65 817.68C1352.72 816.262 1355.53 815.154 1358.06 814.337C1368.88 810.867 1379.4 806.597 1389.61 801.565C1393.37 799.712 1399.36 798.077 1404 795.752C1411.73 791.846 1419.58 788.194 1427.56 784.797C1436.89 780.8 1445.4 775.368 1454.21 768.882C1460.89 763.959 1468.83 760.707 1478 759.126C1478.86 758.981 1479.71 759.453 1480.04 760.252C1482.69 766.938 1477.6 777.947 1472.5 783.216C1461.56 794.498 1451.46 804.49 1442.2 813.192C1435.77 819.242 1427.92 824.492 1420.76 830.288C1416.64 833.612 1412.55 836.556 1408.5 839.099C1402.76 842.714 1395.88 848.601 1389.25 849.963C1379.69 851.943 1374.73 858.792 1365.78 863.025C1358.75 866.35 1351.37 869.82 1343.65 873.435L1329.19 879.758C1327.99 880.284 1328.03 880.702 1329.3 881.048C1331.17 881.538 1333.79 880.502 1335.24 880.248C1345.14 878.504 1355 876.324 1364.85 873.708C1370.52 872.273 1376.51 871.237 1382.82 870.601C1387.34 870.147 1391.37 868.639 1394.9 866.096C1398.13 863.752 1400.55 862.244 1402.16 861.554C1413.81 856.558 1425.54 851.798 1437.37 847.238C1443.74 844.767 1449.41 839.698 1455.42 836.683C1468.08 830.306 1480.09 819.823 1491.46 811.285C1496.17 807.778 1505.03 799.076 1518.07 785.196C1524.23 778.656 1533.04 766.32 1544.52 748.207C1549.79 739.923 1551.04 734.727 1553.75 726.879C1557.24 716.76 1561.8 710.764 1560.24 698.865C1560.16 698.32 1559.71 697.884 1559.16 697.829C1553.9 697.339 1548.74 696.485 1543.67 695.268C1538.55 694.032 1533.33 694.159 1528.61 693.178C1511.23 689.545 1492.99 686.929 1476.22 681.079C1459.96 675.429 1443.76 672.304 1427.85 665.146C1423.4 663.129 1418.67 661.458 1413.7 660.095C1403.42 657.279 1393.52 653.464 1384.01 648.614C1380.6 646.851 1376.93 645.489 1373.02 644.526C1365.7 642.691 1358.6 640.202 1351.73 637.059C1347.47 635.115 1345.01 635.915 1344.38 639.457C1340.89 659.169 1334.31 676.501 1324.63 691.416C1315.33 705.805 1302.25 718.104 1288.12 728.241C1280.89 733.437 1272.32 736.453 1265.67 739.814C1259.95 742.703 1255.51 744.828 1248.74 744.846C1235.44 744.901 1222.14 744.901 1208.85 744.846C1184.76 744.756 1163.02 736.998 1144.36 722.301C1136.66 716.251 1128.59 707.385 1121 699.809C1113.04 691.888 1108.79 680.625 1103.8 670.814C1100.56 664.437 1098.29 657.134 1095.33 650.267C1092.92 644.708 1091.92 640.547 1091.79 634.952C1091.41 618.437 1091.46 601.941 1091.97 585.445C1092.32 574.327 1097.97 564.026 1101.91 553.852C1105.72 544.006 1112.32 534.032 1121.67 523.912C1126.47 518.717 1129.9 514.066 1123.05 508.724C1115.73 503.038 1108.16 497.788 1101.62 491.32C1089.16 478.984 1077.38 466.394 1063.47 455.657C1052.53 447.228 1042.72 436.218 1032.93 426.444C1029.32 422.847 1024.25 418.451 1017.69 413.255C1005.85 403.862 997.766 392.544 983.361 385.458C977.984 382.824 969.882 374.485 964.124 370.234C954.06 362.767 944.796 355.264 933.043 349.269C928.701 347.034 924.414 344.654 920.182 342.093C902.652 331.501 884.233 323.017 864.941 316.64L842.471 308.447C839.655 307.411 839.292 307.974 841.381 310.136C845.668 314.569 850.899 319.129 857.094 323.816ZM1170.15 550.982C1170.15 542.807 1163.52 536.175 1155.35 536.175C1147.18 536.175 1140.55 542.807 1140.55 550.982C1140.55 559.157 1147.18 565.788 1155.35 565.788C1163.52 565.788 1170.15 559.157 1170.15 550.982ZM1215.84 608.972C1215.84 592.349 1202.38 578.887 1185.76 578.887C1169.14 578.887 1155.68 592.349 1155.68 608.972C1155.68 625.595 1169.14 639.058 1185.76 639.058C1202.38 639.058 1215.84 625.595 1215.84 608.972Z" fill="#696CFF"/>
<path d="M517.638 282.231C513.86 282.595 509.991 282.377 506.012 281.577C500.817 280.505 497.039 279.942 494.695 279.888C457.838 278.852 420.69 279.688 383.633 279.633C428.846 274.492 473.515 275.364 517.638 282.231Z" fill="#FEF9F6"/>
<path d="M611.916 348.832C620.508 348.142 627.393 349.886 632.534 354.046L611.916 348.832Z" fill="#FEF9F6"/>
<path d="M633.859 354.9C642.96 356.971 652.079 358.843 661.216 360.532C665.848 361.368 672.243 365.419 677.747 366.964C682.815 368.399 687.774 369.925 692.606 371.578C694.659 372.014 696.33 371.869 697.583 371.124C698.11 370.815 698.619 370.851 699.109 371.233C699.908 371.869 700.399 372.686 700.581 373.667C700.799 374.903 699.509 375.847 698.401 375.266C695.712 373.867 692.824 372.85 689.718 372.25C685.867 371.487 683.65 369.652 680.235 368.762C672.388 366.727 665.322 362.313 656.003 361.095C652.987 360.696 650.644 359.079 647.774 358.788C642.851 358.298 638.219 357.008 633.859 354.9Z" fill="#FEF9F6"/>
<path d="M913.115 384.24C920.599 392.543 931.462 401.336 931.553 413.308C931.753 437.834 931.844 462.36 931.825 486.886C931.825 490.52 931.916 495.806 932.661 499.585C935.004 511.739 935.931 524.002 935.44 536.392C935.404 537.319 935.713 539.426 936.349 542.696C939.11 556.685 941.816 570.692 944.469 584.718C946.412 595.073 948.81 604.302 951.644 612.423C959.146 633.879 967.793 654.026 977.584 672.83C979.364 676.245 981.689 679.951 984.541 683.948C989.3 690.579 993.279 698.573 998.801 706.058C1016.15 729.567 1035.17 749.914 1055.86 767.082C1047.56 761.905 1040.18 755.746 1033.75 748.57C1033.15 747.916 1032.53 747.262 1031.88 746.589C1021.98 736.597 1014.6 728.531 1009.74 722.409C1006.56 718.394 1003.94 715.142 1001.93 712.653C993.46 702.261 986.776 689.853 979.709 678.443C969.264 661.639 961.871 643.344 954.605 625.122C953.497 622.379 952.28 618.763 950.935 614.24C949.064 607.936 946.558 601.795 945.068 595.691C938.056 566.714 933.37 539.99 931.026 511.158C928.447 479.328 929.773 447.59 931.19 414.671C931.462 408.712 929.101 404.897 924.886 400.082C920.563 395.159 916.639 389.872 913.115 384.24Z" fill="#FEF9F6"/>
<path d="M578.328 507.306C583.287 508.124 588.21 509.087 593.097 510.213C595.622 510.776 597.384 509.686 598.383 506.943C598.582 506.398 598.51 505.871 598.183 505.381C597.365 504.163 596.257 503.037 594.84 502.02C601.925 505.199 608.047 508.978 613.206 513.338C615.004 514.882 614.786 515.3 612.515 514.61C607.901 513.211 602.797 512.284 597.22 511.83C590.626 511.303 584.323 509.795 578.328 507.306Z" fill="#FEF9F6"/>
<path d="M1170.15 550.982C1170.15 559.158 1163.52 565.789 1155.35 565.789C1147.18 565.789 1140.54 559.158 1140.54 550.982C1140.54 542.807 1147.18 536.176 1155.35 536.176C1163.52 536.176 1170.15 542.807 1170.15 550.982Z" fill="#FEF9F6"/>
<path d="M1215.84 608.972C1215.84 625.595 1202.38 639.057 1185.76 639.057C1169.14 639.057 1155.68 625.595 1155.68 608.972C1155.68 592.349 1169.14 578.887 1185.76 578.887C1202.38 578.887 1215.84 592.349 1215.84 608.972Z" fill="#FEF9F6"/>
<path d="M1364.85 873.708C1355 876.324 1345.14 878.504 1335.24 880.248C1333.79 880.503 1331.17 881.538 1329.3 881.048C1328.03 880.703 1327.99 880.285 1329.19 879.758L1343.65 873.436L1364.85 873.708Z" fill="#FEF9F6"/>
<path d="M1619.91 1101.02L1621.98 1093.99C1622.49 1092.24 1621.64 1090.41 1619.98 1089.68C1616.15 1087.99 1613.13 1093.44 1610.45 1095.46C1614.42 1088.56 1619.73 1082.98 1626.38 1078.71C1626.61 1078.56 1626.9 1078.75 1626.87 1079.02C1625.8 1086.65 1623.47 1093.99 1619.91 1101.02Z" fill="#FEF9F6"/>
<path d="M1371.16 601.955C1366.19 596.987 1358.46 591.839 1355.92 584.873C1354.84 581.893 1353.18 578.433 1352.38 575.412C1350.8 569.473 1350.89 576.844 1351.33 579.223C1352.81 587.204 1354.63 595.137 1356.06 603.138C1357.26 609.891 1356.59 608.116 1355.86 602.612C1354.38 591.523 1351.07 580 1351.07 568.842" stroke="#696CFF" stroke-width="3" stroke-linecap="round"/>
<path d="M1359.34 616.146C1358.69 611.937 1356.89 606.856 1354.61 603.269C1354.39 602.915 1349.75 596.573 1350.08 599.392C1350.99 607.168 1356.49 613.465 1359.14 620.548C1359.77 622.215 1358.74 614.533 1358.62 613.912C1356.64 603.566 1353.85 593.404 1351.98 583.033C1350.64 575.588 1351.02 582.361 1351.07 585.923C1351.11 589.633 1350.65 596.707 1353.17 599.852C1356.6 604.149 1350.68 589.129 1349.23 583.821C1345.2 569.091 1338.52 557.194 1333.99 542.955C1333.29 540.763 1336.09 521.364 1333.33 521.536C1329.21 521.794 1333.99 533.411 1334.52 535.136C1336.01 539.976 1341.4 544.159 1344.5 548.145C1345.72 549.714 1348.95 556.927 1348.44 555.57C1346.31 549.886 1343.09 544.765 1340.43 539.276C1338.97 536.283 1336.88 526.619 1336.88 529.946C1336.88 532.979 1339.44 538.483 1341.02 541.115C1343.28 544.893 1344.22 553.826 1347.52 556.095C1349.5 557.46 1350.92 565.104 1351.07 567.659C1351.37 573.142 1353.15 578.794 1354.55 583.69C1356.33 589.953 1359.34 597.8 1359.34 604.32C1359.34 611.218 1359.34 618.117 1359.34 625.016C1359.34 627.963 1358.16 630.122 1358.16 632.703C1358.16 638.234 1355.86 629.868 1355.79 628.235C1355.3 615.336 1348.7 603.991 1348.7 591.311C1348.7 587.583 1345.75 584.398 1345.22 580.667C1344.52 575.774 1343.97 570.186 1343.97 565.293C1343.97 560.125 1342.79 555.565 1342.79 550.576C1342.79 546.966 1339.24 545.184 1339.24 540.984C1339.24 536.298 1338.23 532.689 1338.06 528.369C1337.79 521.365 1334.95 529.649 1335.96 533.363C1336.87 536.686 1341.88 539.344 1342.73 542.298C1343.48 544.944 1345.48 547.609 1346.86 549.985C1350.77 556.687 1352.32 564.425 1355.53 571.206C1358.89 578.293 1353.71 589.026 1355.86 596.567C1356.62 599.244 1359.17 601.052 1359.34 604.32C1359.5 607.464 1359.16 610.637 1359.34 613.781C1359.61 618.617 1360.52 610.061 1360.52 608.459C1360.52 603.832 1359.34 599.337 1359.34 594.859C1359.34 589.556 1361.55 577.22 1358.42 573.309C1357.48 572.133 1356 566.276 1355.73 564.768C1355.11 561.355 1353.43 557.636 1353.43 554.058C1353.43 549.312 1345.46 545.625 1345.16 540.458C1345.01 537.912 1342.94 535.161 1341.61 532.837C1340.76 531.346 1339.24 532.772 1339.24 530.406C1339.24 527.861 1337.9 529.033 1338.13 531.129C1339.44 542.934 1349.43 553.138 1349.88 565.03C1350.08 570.123 1348.3 567.856 1344.63 568.907C1342.02 569.653 1348.17 580.778 1349.36 582.31C1351.62 585.222 1353.08 586.58 1356.98 586.58C1360.54 586.58 1359.34 587.105 1359.34 591.311C1359.34 598.294 1361.7 604.96 1361.7 612.007C1361.7 615.358 1361.7 618.708 1361.7 622.059C1361.7 622.098 1362.22 614.729 1361.44 612.598C1359.95 608.491 1363.16 587.311 1359.34 585.398" stroke="#696CFF" stroke-width="5" stroke-linecap="round"/>
<path d="M1178.49 458.857C1190.67 461.073 1200.56 475.919 1213.69 475.414C1221.09 475.129 1237.57 458.016 1231.02 461.485C1224.81 464.774 1217.74 463.316 1210.67 463.588C1206.04 463.766 1199.37 466.177 1195.04 467.727C1181.81 472.454 1168.8 477.578 1155.77 481.59C1150.3 483.274 1144.65 485.573 1139.48 488.16C1134.86 490.473 1130.32 490.618 1125.82 491.905C1122.06 492.979 1122.11 498.935 1118.86 496.767C1117.24 495.686 1122.76 496.701 1124.71 496.701C1126.39 496.701 1129.47 495.489 1131.27 494.927C1139.17 492.458 1147.52 491.49 1155.44 489.08C1163.77 486.542 1171.35 483.197 1179.41 480.407C1184.44 478.663 1188.99 475.867 1194.12 473.969C1200.59 471.568 1207.06 469.949 1196.22 473.049C1189.09 475.086 1182.29 478.51 1174.94 480.145C1168.64 481.547 1162.51 481.327 1156.03 481.327" stroke="#696CFF" stroke-width="10" stroke-linecap="round"/>
<path d="M1338.06 678.825C1330.38 678.825 1322.7 678.825 1315.01 678.825C1312.64 678.825 1308.42 677.983 1312.32 675.277C1316.07 672.678 1329.79 658.694 1329.79 668.182" stroke="white" stroke-linecap="round"/>
<path d="M1248.23 749.781C1225.38 739.341 1203.25 726.966 1182.3 713.12C1176.36 709.2 1168.5 700.756 1161.28 698.534C1159.36 697.942 1164.01 701.512 1165.55 702.805C1173.36 709.352 1181.46 715.561 1189.52 721.793C1198.34 728.618 1207.46 737.529 1217.49 742.686C1218.06 742.979 1219.71 743.511 1219.4 742.948C1217.98 740.338 1213.46 737.123 1211.58 735.327C1197.17 721.514 1183.62 706.832 1167.45 694.987C1159.2 688.936 1149.99 683.949 1142.11 677.379C1129.21 666.63 1125.82 647.327 1119.39 632.439C1113.47 618.742 1108.02 604.793 1101.66 591.31C1101.32 590.609 1098.41 581.157 1096.01 583.295C1094.45 584.684 1095.74 592.872 1095.74 595.121C1095.74 602.621 1097.31 611.855 1095.48 619.167C1094.48 623.182 1093.38 625.78 1093.38 630.074C1093.38 638.175 1094.05 647.279 1099.03 653.989C1105.8 663.114 1113.4 671.754 1118.73 681.649C1122.33 688.349 1126.94 695.526 1130.02 702.477C1134.23 711.955 1142.42 717.081 1150.25 722.778C1154.56 725.914 1159.09 729.436 1163.65 732.042C1165.06 732.851 1158.05 721.098 1156.55 719.493C1142.36 704.313 1133.71 680.82 1124.51 662.399C1117.89 649.165 1111.81 634.757 1107.57 620.613C1106.19 616.027 1103 610.009 1102.84 605.239C1102.65 599.605 1102.84 593.924 1102.84 588.288C1102.84 582.294 1103.88 575.249 1102.57 569.366C1101.72 565.504 1099.49 560.843 1099.29 557.014C1098.99 551.319 1097.82 556.59 1098.37 559.642C1099.6 566.478 1104.98 572.722 1108.22 578.695C1112.77 587.079 1117.08 595.368 1120.57 604.253C1124.47 614.189 1127.96 627.062 1134.23 635.724C1139.98 643.673 1144.94 652.891 1149 661.807C1154.79 674.509 1163.06 683.763 1170.28 695.315C1174.12 701.458 1180.14 705.211 1182.62 712.66C1184.32 717.754 1184.4 722.623 1184.4 727.903C1184.4 731.15 1164.12 729.752 1164.83 729.94C1178.06 733.444 1193.12 737.955 1206.86 737.955C1212.77 737.955 1218.68 737.955 1224.59 737.955C1235.02 737.955 1242.98 735.958 1252.96 733.225C1274.19 727.403 1295.41 717.035 1311.14 701.557C1316.96 695.83 1324.02 691.382 1329.79 685.92C1331.48 684.318 1331.42 681.069 1332.74 680.007C1334.49 678.606 1343.31 655.404 1338.59 654.055C1334.61 652.918 1327.97 653.065 1325.72 649.193C1324.07 646.374 1315.7 644.72 1312.06 644.528C1303.91 644.099 1297.3 637.651 1289.6 636.25C1286.03 635.601 1282.9 633.256 1279.22 632.439C1270.98 630.607 1262.52 628.547 1254.4 626.263C1240.03 622.218 1225.14 617.482 1211.58 611.415C1203.79 607.927 1196.2 604.467 1188.6 600.508C1176.23 594.062 1162.82 586.819 1151.3 578.958C1145.95 575.309 1140.3 571.273 1134.69 568.183C1128.9 565 1125.07 559.226 1119.91 555.24C1112.54 549.55 1107.57 545.495 1107.57 536.318C1107.57 530.475 1113.35 540.738 1116.96 541.64C1124.56 543.542 1131.47 549.469 1136.53 555.306C1145.46 565.62 1154.82 576.518 1160.69 589.011C1162.84 593.575 1162.41 598.246 1163.78 602.939C1164.4 605.071 1165.94 607.158 1165.42 609.509C1165.21 610.45 1138.08 589.808 1135.01 587.434C1128.63 582.48 1120.64 576.653 1115.91 570.023C1114.71 568.347 1112.74 566.878 1112.36 564.767C1112.28 564.326 1112.29 562.063 1112.29 562.533C1112.29 565.004 1113.2 565.912 1114.66 567.789C1118.67 572.955 1121.25 580.38 1124.11 586.185C1133.84 605.879 1141.02 626.652 1149.86 646.631C1152.33 652.232 1157.24 657.895 1161.02 662.793C1163.1 665.496 1165.99 667.479 1167.59 670.546C1169.28 673.808 1169.74 676.576 1172.58 679.087C1177.64 683.576 1181.12 690.561 1185.84 695.644C1188.78 698.812 1191.14 702.764 1193.2 706.55C1199.54 718.236 1210.32 725.353 1222.88 728.494C1240.33 732.86 1251.51 728.815 1267.14 720.216C1279.57 713.374 1291.54 705.57 1304.31 699.52C1309.74 696.945 1312.69 691.518 1317.97 688.876C1326.53 684.592 1321.22 673.073 1315.01 668.772C1304.9 661.768 1291.99 656.368 1280.08 653.858C1265.5 650.787 1251.79 642.998 1237.06 639.863C1225.47 637.396 1214.76 631.916 1203.31 629.417C1187.53 625.973 1172.07 621.022 1156.29 617.591C1152.22 616.705 1148.36 616.145 1144.21 616.145C1142.84 616.145 1144.82 616.762 1145.39 617.328C1150.09 622.032 1154.37 627.471 1158.79 632.439C1173.04 648.481 1187.43 666.674 1193.59 687.628C1194.65 691.247 1200.31 697.697 1203.57 699.848C1210.36 704.325 1217.17 709.204 1225.18 711.281C1238.5 714.737 1249.36 712.043 1262.41 707.798C1275.62 703.502 1288.01 696.645 1300.76 691.176C1305.4 689.187 1313.58 686.634 1317.31 682.898C1319.53 680.68 1306.98 677.66 1305.56 677.05C1298.21 673.902 1290.85 674.362 1283.23 672.385C1276.15 670.55 1268.59 670.643 1261.36 668.772C1250.17 665.876 1238.86 661.778 1228 657.8C1213.91 652.635 1199.01 650.625 1185.19 644.791C1181.93 643.416 1177.49 642.726 1174.81 640.323C1174.14 639.727 1176.56 639.576 1177.04 640.323C1183.53 650.31 1193.13 658.133 1200.16 667.918C1204.82 674.412 1211.14 681.131 1214.21 688.548C1215.28 691.137 1218.4 696.445 1221.3 697.483C1228.57 700.079 1238.74 699.635 1246.13 698.009C1250.64 697.016 1254.57 694.388 1258.87 692.753C1262.69 691.297 1267.05 690.886 1270.62 688.876C1273.23 687.405 1274.45 686.618 1277.12 685.854C1277.76 685.673 1262.92 681.005 1261.16 680.598C1250.37 678.092 1239.23 675.825 1228.72 672.32C1224.1 670.776 1220.09 668.611 1215.66 666.998C1212.54 665.865 1195.65 655.797 1206.92 664.041C1219.62 673.325 1233.23 690.65 1250.59 690.65" stroke="white" stroke-width="20" stroke-linecap="round"/>
<path d="M1114.66 523.902C1115.09 527.397 1123.15 531.606 1125.56 534.283C1128.7 537.77 1132.34 540.937 1135.67 544.27C1138.63 547.234 1141.68 551.241 1145.39 553.205C1148.56 554.885 1151.5 560.408 1154.85 561.746C1159.14 563.464 1161.58 567.59 1164.89 569.433C1165.64 569.85 1169.95 573.545 1170.15 574.229C1170.99 577.189 1175.16 578.261 1177.31 580.143C1181.38 583.708 1187.52 591.711 1192.61 592.56C1197.13 593.315 1201.75 601.078 1206.59 602.875C1207.73 603.296 1214.75 607.482 1214.61 608.788C1214.55 609.325 1207.78 609.102 1206.86 609.051C1203.03 608.839 1199.52 606.686 1195.3 606.686C1193.79 606.686 1188.11 605.503 1189.13 605.503C1202.86 605.503 1221.28 610.73 1232.86 618.249C1239.88 622.804 1249.41 621.951 1256.57 625.082C1264.06 628.36 1277.37 628.742 1283.1 634.477C1287.65 639.03 1297.19 641.338 1303.26 643.938C1310.47 647.033 1316.43 649.637 1322.76 653.334C1327.6 656.157 1333.52 657.539 1339.24 657.539" stroke="white" stroke-width="20" stroke-linecap="round"/>
<path d="M1343.97 652.808C1342.04 652.808 1331.95 651.074 1330.97 649.852C1329.18 647.609 1321.36 648.451 1318.89 645.975C1317.38 644.471 1314.7 643.347 1312.58 643.347C1309.02 643.347 1306.87 640.391 1303.72 639.865C1298.81 639.047 1292.62 636.836 1287.76 635.069C1282.93 633.312 1277 630.338 1271.87 630.338C1267.56 630.338 1263.28 626.128 1259.46 624.425C1248.84 619.706 1238.48 613.611 1228.13 608.131C1218.41 602.983 1208.08 597.825 1198.58 592.232C1186.65 585.207 1175.59 574.937 1162.53 568.908C1157.91 566.776 1149.9 562.854 1146.31 559.644C1140.43 554.391 1133.83 553.933 1129.89 547.029C1127.89 543.528 1121.38 540.457 1118.47 537.831C1116.01 535.618 1111.22 530.998 1107.56 530.998" stroke="white" stroke-width="20" stroke-linecap="round"/>
<path d="M1121.75 517.988C1124.24 518.3 1129.11 527.055 1130.94 528.895C1131.99 529.943 1133.16 534.174 1134.23 534.479C1135.49 534.841 1138.62 538.301 1139.48 539.801C1140.59 541.74 1144.64 543.778 1146.31 545.451C1148.13 547.275 1150.31 550.323 1152.55 551.627C1157.59 554.57 1163.16 564.111 1169.03 564.111" stroke="white" stroke-width="10" stroke-linecap="round"/>
<path d="M1340.43 642.163C1329.69 642.163 1323.36 632.711 1313.24 631.52C1309.69 631.102 1304.71 628.087 1301.42 626.527C1297.27 624.56 1291.85 622.021 1288.35 619.102C1280.71 612.728 1268.21 611.233 1259.79 605.502C1256.08 602.98 1251.55 601.279 1247.97 598.669C1246.21 597.392 1239.07 593.02 1237 592.559C1232.85 591.636 1229.51 586.997 1225.11 585.398C1222.9 584.593 1219.65 583.181 1218.15 581.258C1216.92 579.678 1214.57 579.866 1213.95 578.302C1212.57 574.859 1204.97 574.643 1203.31 571.732C1201.97 569.388 1195.23 566.244 1192.67 565.03C1187.3 562.483 1180.91 558.566 1177.31 554.058C1173.52 549.329 1161.99 541.641 1156.03 541.641" stroke="white" stroke-width="10" stroke-linecap="round"/>
<path d="M1244.68 603.138C1235.53 603.138 1229.28 595.714 1221.3 592.757C1214.28 590.156 1204.28 585.926 1199.76 579.748C1193.79 571.57 1181.36 566.107 1172.58 561.483C1166.37 558.216 1160.85 554.089 1155.77 549C1151.3 544.526 1145.51 541.956 1140.93 537.831C1138.73 535.855 1132.09 533.16 1130.94 530.998C1129.14 527.585 1124.54 524.987 1122.01 522.457C1119.45 519.892 1130.29 528.454 1130.68 528.567C1139.36 531.048 1147.03 539.84 1154.32 544.007C1158.4 546.34 1151.33 539.061 1149.66 538.291C1148.07 537.556 1145.27 536.466 1144.21 535.137C1141.61 531.893 1135.84 530.882 1133.57 528.041C1132.18 526.305 1123.06 522.32 1123.06 521.011C1123.06 518.509 1127.2 523.843 1129.37 525.085C1130.56 525.768 1134.34 528.356 1135.28 529.29C1138.14 532.152 1144.6 533.979 1146.57 537.437C1147.1 538.357 1151.13 541.642 1151.89 541.642C1155.25 541.642 1155.2 544.182 1157.21 545.19" stroke="white" stroke-width="10" stroke-linecap="round"/>
<path d="M1125.29 516.807C1127.64 517.042 1131.38 521.26 1132.52 523.311C1134.07 526.104 1137.52 526.817 1139.02 529.224C1139.8 530.467 1141.81 529.849 1142.7 530.735C1143.86 531.894 1144.53 532.052 1145.98 532.903C1148.13 534.17 1149.6 536.356 1151.89 537.503" stroke="white" stroke-width="5" stroke-linecap="round"/>
<path d="M1156.03 538.685C1152.81 535.792 1148.68 532.286 1145.06 530.275C1144.16 529.775 1143.23 527.549 1142.43 527.45C1141.67 527.354 1139.22 525.833 1138.59 525.347C1132.61 520.689 1125.99 518.259 1119.38 513.85" stroke="white" stroke-width="5" stroke-linecap="round"/>
<path d="M1224.59 581.259C1220.65 580.865 1215.44 575.668 1212.4 573.309C1209.41 570.975 1206.07 568.93 1202.72 566.772C1195.15 561.905 1184.83 559.383 1177.9 553.435C1173.73 549.86 1168.76 547.852 1164.76 544.138C1164.15 543.565 1160.27 540.545 1159.57 540.459C1158.24 540.292 1157.46 537.74 1156.03 537.502C1154.11 537.182 1150.08 534.321 1148.81 532.903C1146.1 529.898 1141.78 528.041 1137.71 528.041" stroke="white" stroke-width="5" stroke-linecap="round"/>
<path d="M1346.93 639.208C1343.69 639.208 1337.61 637.77 1335.11 635.66C1334.06 634.778 1332.84 635.144 1331.56 635.068C1330.81 635.024 1329.21 634.1 1328.34 633.853C1326.23 633.249 1324.17 630.805 1321.78 630.371C1318.85 629.838 1316.68 628.156 1313.96 627.25C1311.66 626.482 1307.57 625.832 1305.69 624.293C1304.8 623.567 1303.64 623.039 1302.6 622.52C1301.21 621.825 1299.6 620.818 1298.14 620.286C1292.32 618.17 1288.79 613.781 1281.92 613.781" stroke="white" stroke-width="5" stroke-linecap="round"/>
<path d="M1346.93 638.024C1340.34 637.365 1334.5 632.928 1328.31 631.552C1323.41 630.464 1319.01 628.135 1314.42 626.493C1312.85 625.93 1310.89 625.148 1309.23 625.015C1307.94 624.911 1307.24 623.301 1305.69 623.241C1303.13 623.143 1301.3 620.659 1299.05 620.285C1297.08 619.955 1293.51 618.629 1291.96 617.328C1290.69 616.258 1288.23 615.852 1286.64 615.423C1284.57 614.862 1283.21 613.226 1281.32 612.598" stroke="white" stroke-width="5" stroke-linecap="round"/>
<path d="M1280.14 612.598C1277.29 612.43 1273.92 609.928 1271.31 608.787C1269.38 607.944 1267.48 606.836 1265.5 606.225C1264.17 605.814 1262.16 605.12 1261.2 603.991C1259.66 602.192 1254.79 601.885 1252.73 601.034C1248.11 599.133 1244.08 597.635 1239.99 594.563C1238.76 593.645 1237.6 592.83 1236.54 591.77C1235.74 590.972 1233.97 589.315 1232.86 588.945" stroke="white" stroke-width="5" stroke-linecap="round"/>
<path d="M1213.95 574.754C1215.48 574.924 1217.16 576.291 1218.35 576.988C1219.19 577.485 1219.76 577.71 1220.74 577.71C1221.76 577.71 1221.63 578.697 1222.52 579.189C1223.61 579.798 1224.91 581.074 1225.64 581.981C1226.47 583.019 1227.75 583.88 1228.72 585.102C1231.09 588.068 1234.4 588.992 1237.13 591.179C1238.45 592.236 1240.08 592.618 1241.43 593.972C1242.83 595.371 1245.64 596.632 1247.64 596.632" stroke="white" stroke-width="5" stroke-linecap="round"/>
<path d="M1190.31 554.058C1189.16 552.909 1187.43 552.438 1186.76 551.102" stroke="#696CFF" stroke-width="5" stroke-linecap="round"/>
<path d="M1191.49 549.329C1188.1 549.329 1185.85 545.905 1182.76 545.781C1180.69 545.698 1176.73 544.613 1175.24 543.416C1173.57 542.078 1171.49 540.776 1169.33 539.572C1167.7 538.669 1165.91 535.729 1164.3 535.729" stroke="#696CFF" stroke-width="5" stroke-linecap="round"/>
<path d="M1186.76 553.467C1184.09 551.087 1181.75 549.496 1178.78 547.849C1175.61 546.087 1181.28 550.429 1182.63 551.101" stroke="#696CFF" stroke-linecap="round"/>
<path d="M1323.65 509.684C1322.96 509.69 1322.27 509.572 1321.58 509.357C1321.27 509.253 1321.09 509.359 1321.05 509.664C1320.94 510.453 1320.35 510.993 1319.3 511.308C1319.03 511.387 1318.78 511.301 1318.56 511.065C1318.35 510.829 1318.17 510.857 1318.05 511.154C1316.53 514.757 1313.93 513.096 1311.33 513.25C1307.9 513.448 1304.46 513.708 1301.03 514.065C1300.91 514.078 1300.82 514.037 1300.74 513.966C1300.62 513.853 1300.53 513.764 1300.44 513.66C1300.35 513.556 1300.25 513.51 1300.11 513.518L1292.48 513.584C1291.92 513.598 1291.41 513.721 1290.92 513.974C1290.46 514.221 1290.04 514.338 1289.66 514.308C1289.27 514.274 1288.9 514.153 1288.58 513.919C1287.34 513.075 1286.32 513.003 1285.52 513.702C1285.19 513.956 1284.74 514.015 1284.35 513.827C1282.09 512.703 1280.36 512.098 1279.19 512.029C1274.94 511.774 1271.29 511.325 1268.23 510.684C1265.41 510.114 1262.77 509.907 1260.28 510.077C1259.75 510.114 1259.22 510.011 1258.73 509.791C1254.63 507.905 1251.13 506.208 1246.66 505.147C1243.39 504.38 1240.12 503.585 1236.85 502.789C1235.89 502.561 1234.73 502.608 1233.4 502.968C1232.89 503.106 1232.39 503.104 1231.88 502.956C1227.13 501.579 1225.62 506.195 1219.91 503.816C1219.48 503.629 1218.98 503.675 1218.6 503.944C1217.88 504.449 1217.18 504.437 1216.47 503.904C1216.08 503.585 1215.63 503.456 1215.12 503.516C1214.51 503.593 1213.95 503.447 1213.42 503.059C1213.03 502.789 1212.62 502.75 1212.18 502.939C1208.78 504.473 1204.88 503.876 1200.46 503.05C1200.42 503.037 1200.38 503.057 1200.37 503.101C1200.33 503.28 1200.38 503.468 1200.48 503.639C1200.72 503.99 1200.29 504.372 1199.92 504.14C1199.33 503.768 1199 503.655 1198.91 503.836C1198.73 504.226 1198.43 504.33 1198.02 504.132C1194.36 502.419 1190.45 501.489 1186.35 501.336C1184.62 501.267 1183.39 499.621 1183.94 498.073C1184.4 496.74 1185.32 495.458 1186.68 494.19C1186.97 493.927 1187.06 493.607 1186.97 493.218C1186.49 491.077 1185.54 489.193 1184.08 487.578C1183.78 487.237 1183.4 487.019 1182.94 486.934C1181.7 486.703 1180.57 486.16 1179.59 485.31C1179.21 484.982 1178.68 484.907 1178.25 485.13C1176.95 485.784 1176.11 485.369 1175.74 483.892C1175.62 483.397 1175.28 483.159 1174.75 483.182C1172.6 483.305 1171.01 482.47 1169.99 480.68C1169.77 480.284 1169.43 480.061 1168.95 480.019C1168.05 479.934 1167.17 479.729 1166.31 479.387C1165.71 479.136 1165.59 478.362 1166.13 478.011C1166.64 477.685 1167.03 477.227 1167.31 476.661C1167.46 476.309 1167.34 476.182 1166.96 476.244C1162.49 477.031 1158.21 478.311 1154.09 480.065C1153.65 480.254 1153.17 480.352 1152.68 480.354C1150.53 480.401 1148.93 482.119 1147.61 482.734C1144.54 484.125 1141.53 485.611 1138.57 487.207C1137.23 487.929 1136.47 489.115 1134.88 489.762C1132.12 490.88 1130.64 492.285 1128.51 493.866C1128.06 493.486 1127.95 493.122 1128.15 492.755C1128.29 492.496 1128.51 492.37 1128.83 492.382C1129.18 492.388 1129.32 492.206 1129.24 491.836C1129.16 491.452 1128.98 491.384 1128.67 491.594C1127.77 492.219 1126.74 492.586 1125.6 492.686C1130.41 488.638 1134.64 484.55 1140.42 481.839C1143.63 480.329 1146.87 478.862 1150.14 477.447C1151.9 476.676 1153.82 476.862 1155.7 475.697C1156.01 475.502 1156.2 475.589 1156.28 475.944C1156.32 476.098 1156.34 476.261 1156.37 476.41C1156.41 476.564 1156.51 476.624 1156.67 476.606C1157.39 476.497 1157.95 476.17 1158.35 475.639C1158.61 475.285 1158.97 475.026 1159.39 474.88C1161.44 474.19 1163.51 473.648 1165.63 473.245C1165.9 473.195 1166.1 473.079 1166.23 472.898C1166.37 472.701 1166.56 472.566 1166.81 472.478C1171.35 470.642 1178.65 468.335 1188.69 465.551C1192.98 464.368 1196.25 463.662 1198.48 463.435C1198.96 463.385 1199.42 463.249 1199.85 463.04C1200.94 462.517 1202.1 462.422 1203.31 462.77C1203.82 462.931 1204.34 462.972 1204.87 462.901C1208.32 462.423 1211.8 462.128 1215.31 462.015C1215.38 462.018 1216.35 461.84 1218.22 461.492C1220.29 461.124 1222.27 462.544 1224.26 461.285C1224.67 461.024 1225.17 460.93 1225.66 461.024C1228.2 461.485 1230.75 461.931 1233.32 462.352C1255.74 465.943 1276.69 473.45 1296.16 484.886C1307.32 491.449 1315.13 500.456 1323.65 509.684Z" fill="#E24B42"/>
<path d="M1323.66 509.691C1347.3 532.312 1356.34 557.352 1362.71 587.465C1363.3 590.27 1362.67 592.708 1362.56 595.596L1358.93 581.918C1358.88 581.731 1358.84 581.718 1358.8 581.912C1358.71 582.406 1358.54 582.767 1358.3 583C1357.94 583.37 1357.84 583.909 1358.06 584.381C1358.68 585.776 1358.74 586.817 1358.23 587.538C1357.18 589.05 1356.98 590.16 1357.62 590.849C1357.74 590.996 1357.84 591.148 1357.87 591.316C1358.5 593.594 1358.68 595.602 1358.41 597.307C1358.32 597.865 1358.08 597.909 1357.73 597.444C1357.56 597.222 1357.33 597.092 1357.02 597.051C1356.97 597.052 1356.91 597.068 1356.87 597.103C1356.75 597.226 1356.66 597.359 1356.6 597.515C1356.54 597.671 1356.45 597.692 1356.31 597.589C1355.74 597.125 1355.11 596.899 1354.45 596.914C1354.2 596.92 1354.1 597.208 1354.27 597.368C1354.38 597.476 1354.49 597.555 1354.62 597.625C1355.01 597.832 1355.02 598.04 1354.64 598.261C1353.87 598.704 1353.12 598.853 1352.38 598.687C1352.24 598.661 1352.21 598.59 1352.31 598.476C1352.42 598.367 1352.56 598.248 1352.71 598.119C1353.74 597.356 1352.31 595.952 1350.7 596.154C1348.17 596.471 1345.78 596.036 1343.53 594.839C1343.3 594.71 1343.09 594.729 1342.91 594.912C1342.79 595.021 1342.68 595.13 1342.58 595.243C1342.36 595.48 1342.13 595.495 1341.9 595.269C1341.65 595.024 1341.45 594.778 1341.3 594.516C1341.17 594.273 1340.97 594.201 1340.72 594.269C1339.92 594.467 1339.23 594.315 1338.64 593.798C1338.24 593.465 1337.79 593.35 1337.27 593.469C1335.7 593.839 1334.14 593.659 1332.58 592.929C1332.12 592.718 1331.6 593.01 1331.58 593.494C1331.56 594.025 1332.08 594.63 1333.15 595.3C1333.76 595.681 1333.71 595.841 1332.99 595.776C1328.3 595.329 1323.66 594.6 1319.07 593.599C1318.95 593.563 1318.84 593.595 1318.76 593.698C1318.64 593.836 1318.58 593.963 1318.57 594.07C1318.57 594.132 1318.45 594.208 1318.2 594.31C1317.4 594.648 1316.87 594.419 1316.64 593.643C1316.5 593.144 1316.18 592.785 1315.69 592.565C1309.47 589.789 1303.43 589.19 1297.11 587.222C1294.97 586.559 1292.8 585.983 1290.61 585.466C1290.55 585.448 1290.49 585.464 1290.46 585.503C1290.34 585.627 1290.24 585.755 1290.17 585.877C1290.05 586.126 1289.85 586.228 1289.55 586.172C1288.1 585.883 1286.76 585.341 1285.54 584.564C1282.03 582.312 1278.23 580.718 1274.15 579.783C1273.71 579.673 1273.39 579.439 1273.18 579.048C1273.07 578.843 1272.92 578.673 1272.71 578.567C1272.38 578.377 1271.97 578.624 1272.04 578.974C1272.17 579.69 1272.12 580.449 1271.9 581.222C1265.69 569.942 1258.51 563.404 1247.89 553.18C1242.37 547.873 1235.56 543.475 1228.18 545.364C1226.46 545.801 1224.58 546.966 1222.58 548.838C1220.94 550.373 1219.21 551.785 1217.39 553.093C1222.32 547.391 1225.23 543.224 1226.1 540.573C1228.25 534.122 1223.45 524.777 1219.63 519.342C1219.74 517.245 1218.27 515.972 1215.21 515.519L1201.39 507.423C1198.61 506.5 1195.82 505.558 1193.02 504.582C1190.9 503.846 1188.82 503.597 1186.8 503.823C1183.99 504.151 1181.92 504.567 1180.58 505.082C1177.92 506.087 1174.97 506.534 1173.08 507.65C1170.84 508.978 1168.92 510.669 1167.36 512.714C1167.01 513.167 1166.54 513.458 1165.95 513.588C1164.69 513.825 1163.64 514.391 1162.76 515.276C1162.5 515.562 1161.99 515.401 1161.91 515.016C1161.88 514.834 1161.76 514.735 1161.57 514.759C1161.21 514.782 1160.85 514.902 1160.51 515.103C1159.37 515.801 1158.08 516.015 1156.63 515.726C1156.09 515.619 1155.56 515.641 1155.04 515.822L1153.56 516.345C1153.06 516.531 1152.59 516.46 1152.16 516.147C1149.82 514.465 1147.29 515.317 1145.03 514.575C1140.97 513.238 1138.5 510.368 1135.14 508.773C1132.98 507.729 1130.82 506.7 1128.65 505.68C1128.42 505.348 1128.06 505.212 1127.56 505.306C1127.09 505.375 1126.7 505.249 1126.38 504.89C1125.66 504.067 1124.54 503.809 1123.02 504.082C1116.38 505.303 1113.85 507.699 1111.37 513.583C1111.19 514.022 1110.83 514.359 1110.36 514.525L1106.02 516.134C1105.68 516.258 1105.42 516.53 1105.3 516.861C1104.7 518.738 1103.53 520.108 1101.79 520.979C1101.33 521.212 1100.92 521.502 1100.56 521.858C1099.41 523.01 1098.47 524.287 1097.75 525.704C1097.71 525.773 1097.65 525.818 1097.6 525.79L1097.24 525.591C1097.02 525.466 1096.97 525.308 1097.08 525.103C1098.1 523.123 1099.37 521.278 1100.85 519.573C1101.13 519.229 1101.47 518.994 1101.85 518.869C1102.3 518.728 1102.63 518.459 1102.86 518.068C1103.77 516.482 1105.12 514.804 1106.95 513.042C1107.84 512.191 1109.63 510.261 1112.32 507.262C1113.98 505.418 1115.94 503.662 1118.24 502.034C1121.82 499.478 1125.24 496.751 1128.51 493.874C1130.65 492.293 1132.13 490.887 1134.88 489.769C1136.48 489.123 1137.24 487.936 1138.57 487.214C1141.54 485.619 1144.55 484.132 1147.62 482.742C1148.94 482.126 1150.54 480.408 1152.69 480.362C1153.18 480.36 1153.66 480.261 1154.1 480.072C1158.22 478.319 1162.5 477.039 1166.96 476.252C1167.35 476.189 1167.47 476.317 1167.31 476.668C1167.03 477.234 1166.65 477.692 1166.14 478.018C1165.6 478.369 1165.71 479.143 1166.32 479.394C1167.18 479.736 1168.06 479.942 1168.96 480.026C1169.43 480.068 1169.77 480.292 1170 480.687C1171.01 482.477 1172.61 483.313 1174.76 483.189C1175.29 483.167 1175.62 483.405 1175.75 483.899C1176.12 485.377 1176.96 485.791 1178.25 485.137C1178.69 484.915 1179.22 484.989 1179.6 485.318C1180.58 486.168 1181.7 486.71 1182.95 486.941C1183.41 487.027 1183.79 487.245 1184.09 487.585C1185.54 489.201 1186.5 491.084 1186.98 493.225C1187.07 493.614 1186.98 493.935 1186.69 494.198C1185.33 495.465 1184.41 496.747 1183.94 498.081C1183.4 499.628 1184.63 501.274 1186.35 501.344C1190.46 501.496 1194.36 502.426 1198.03 504.139C1198.44 504.337 1198.74 504.233 1198.92 503.843C1199 503.662 1199.34 503.775 1199.92 504.147C1200.29 504.379 1200.72 503.998 1200.49 503.646C1200.39 503.475 1200.34 503.288 1200.37 503.108C1200.38 503.064 1200.42 503.044 1200.47 503.058C1204.89 503.884 1208.79 504.481 1212.19 502.947C1212.63 502.758 1213.04 502.796 1213.43 503.067C1213.96 503.455 1214.52 503.6 1215.13 503.523C1215.64 503.463 1216.09 503.592 1216.48 503.911C1217.19 504.444 1217.89 504.456 1218.61 503.952C1218.99 503.682 1219.49 503.636 1219.92 503.824C1225.63 506.202 1227.13 501.586 1231.88 502.964C1232.4 503.111 1232.9 503.113 1233.41 502.975C1234.74 502.616 1235.9 502.569 1236.86 502.797C1240.12 503.592 1243.39 504.388 1246.67 505.154C1251.14 506.215 1254.64 507.913 1258.74 509.798C1259.23 510.018 1259.76 510.121 1260.29 510.085C1262.77 509.914 1265.42 510.121 1268.23 510.691C1271.29 511.332 1274.95 511.781 1279.19 512.037C1280.37 512.105 1282.09 512.71 1284.36 513.834C1284.74 514.023 1285.2 513.964 1285.52 513.71C1286.33 513.01 1287.35 513.082 1288.59 513.926C1288.91 514.16 1289.28 514.281 1289.67 514.315C1290.05 514.345 1290.47 514.229 1290.93 513.981C1291.42 513.728 1291.92 513.605 1292.48 513.592L1300.12 513.525C1300.25 513.517 1300.36 513.563 1300.45 513.667C1300.53 513.771 1300.63 513.861 1300.75 513.974C1300.83 514.044 1300.91 514.085 1301.04 514.073C1304.47 513.716 1307.9 513.455 1311.34 513.257C1313.94 513.103 1316.54 514.764 1318.06 511.161C1318.18 510.864 1318.35 510.836 1318.57 511.072C1318.79 511.308 1319.03 511.394 1319.31 511.315C1320.36 511 1320.95 510.46 1321.06 509.671C1321.09 509.366 1321.28 509.26 1321.58 509.364C1322.28 509.579 1322.97 509.698 1323.66 509.691Z" fill="#F07240"/>
<path d="M1201.39 507.436L1189.66 504.308C1189.16 504.166 1188.62 504.169 1188.14 504.33C1183.49 505.759 1178.64 506.623 1174.66 509.015C1157.81 519.188 1157.48 539.778 1166.37 556.213C1168.68 560.488 1170.95 562.48 1175.87 563.058C1179.13 563.424 1182.85 564.301 1187.01 565.669L1167.17 565.341C1164.71 565.299 1162.59 566.821 1162 569.066C1158.89 581.048 1155.45 593.333 1157.27 605.593C1155.5 606.017 1154.82 605.41 1155.24 603.749C1155.4 603.147 1155.43 602.697 1155.34 602.405C1155.18 601.868 1154.84 601.534 1154.3 601.411C1153.88 601.306 1153.67 601.04 1153.63 600.636L1153.41 598.064C1153.36 597.481 1153.05 597.092 1152.47 596.879C1151.57 596.543 1150.74 596.588 1149.96 597.012C1149.56 597.243 1149.55 597.494 1149.94 597.779C1150.1 597.887 1150.26 597.95 1150.45 597.956C1150.46 597.96 1150.47 597.931 1150.46 597.927C1150.31 597.838 1150.14 597.804 1149.95 597.828C1149.64 597.85 1149.56 598.001 1149.71 598.249C1149.8 598.401 1149.86 598.544 1149.87 598.689C1149.9 598.871 1149.82 599.023 1149.67 599.138C1147.8 600.432 1145.72 601.081 1143.4 601.093C1143.21 601.087 1143.07 601.158 1142.99 601.291C1142.86 601.443 1142.82 601.589 1142.84 601.738C1142.87 602.046 1142.74 602.199 1142.43 602.221L1139.58 602.444C1139.03 602.491 1138.67 602.75 1138.51 603.242L1138.06 604.565C1137.94 604.925 1137.68 605.149 1137.3 605.245L1132.99 606.313C1132.44 606.456 1132.01 606.727 1131.69 607.155C1131.45 607.479 1131.07 607.624 1130.56 607.587C1129.32 608.196 1128.2 608.947 1127.2 609.811C1124.89 611.801 1122.18 612.552 1120.35 615.294C1120.03 615.77 1119.57 616.017 1118.96 616.032L1109.65 616.186C1109.03 616.196 1108.48 616.388 1108 616.738C1107.67 616.992 1107.25 617.108 1106.75 617.091C1106.25 617.074 1105.94 617.298 1105.81 617.75L1105.39 619.208C1105.29 619.558 1104.93 619.755 1104.55 619.663L1095.82 617.632C1095.32 617.504 1094.85 617.573 1094.41 617.81C1090.93 619.732 1088.23 618.296 1084.57 618.571C1082.98 618.682 1082.27 619.408 1082.41 620.728C1082.44 620.925 1082.25 621.359 1081.93 621.883C1081.78 622.109 1081.6 622.311 1081.37 622.466C1081.2 622.591 1081.2 622.716 1081.36 622.857C1081.51 622.994 1081.67 623.135 1081.84 623.261C1082.12 623.486 1082.15 623.746 1081.92 624.012C1080.9 625.185 1080.47 626.561 1080.67 628.15C1080.69 628.265 1080.65 628.348 1080.52 628.375C1080.49 628.381 1080.44 628.382 1080.39 628.383C1080.3 628.376 1080.23 628.324 1080.21 628.223L1077.53 620.685C1077.49 620.546 1077.48 620.401 1077.5 620.251C1078 617.536 1077.22 614.948 1077.57 612.57C1077.9 610.313 1078.35 608.091 1078.93 605.876C1079.03 605.463 1079.05 605.043 1078.97 604.611L1078.58 602.399C1078.55 602.217 1078.37 602.086 1078.18 602.081C1077.98 602.086 1077.84 602.234 1077.82 602.418C1077.5 607.58 1076.56 610.813 1075.02 612.138C1073.49 609.332 1072.83 606.982 1073.05 605.104C1073.33 602.66 1073.26 600.668 1072.86 599.119C1072.8 598.912 1072.68 598.862 1072.5 598.968C1072.21 599.12 1071.97 599.193 1071.82 599.182C1071.21 599.134 1070.75 598.624 1070.8 598.053C1072.11 580.741 1073.79 563.773 1080.76 547.344C1080.83 547.188 1080.94 547.142 1081.11 547.206L1081.48 547.361C1081.5 547.365 1081.51 547.384 1081.51 547.399C1080.57 549.183 1079.86 551.044 1079.34 552.978C1079.33 552.992 1079.35 552.997 1079.35 552.997C1079.36 553.001 1079.38 553.006 1079.38 552.991C1080.57 549.608 1082.76 546.655 1084.02 543.545C1085.54 539.816 1087.41 536.248 1089.57 532.846C1091.68 529.552 1093.52 524.541 1096.38 521.717C1098.88 519.263 1101.24 516.706 1103.44 514.008C1107.53 508.997 1112.13 504.446 1117.23 500.371C1118.93 499.013 1120.63 497.669 1122.35 496.315C1122.74 496.002 1123.01 495.623 1123.18 495.166C1123.59 494.022 1124.4 493.196 1125.6 492.704C1126.74 492.605 1127.77 492.237 1128.67 491.612C1128.98 491.402 1129.16 491.47 1129.24 491.855C1129.32 492.224 1129.18 492.406 1128.83 492.4C1128.51 492.388 1128.29 492.514 1128.15 492.774C1127.95 493.14 1128.06 493.505 1128.51 493.885C1125.23 496.763 1121.81 499.49 1118.23 502.046C1115.93 503.675 1113.97 505.431 1112.31 507.275C1109.62 510.275 1107.83 512.205 1106.94 513.056C1105.11 514.818 1103.76 516.497 1102.85 518.082C1102.62 518.474 1102.29 518.742 1101.84 518.883C1101.46 519.008 1101.12 519.243 1100.84 519.588C1099.36 521.293 1098.09 523.139 1097.07 525.118C1096.96 525.323 1097.01 525.481 1097.23 525.606L1097.59 525.805C1097.63 525.833 1097.7 525.788 1097.73 525.72C1098.46 524.303 1099.4 523.025 1100.55 521.873C1100.91 521.517 1101.32 521.227 1101.78 520.994C1103.52 520.122 1104.69 518.753 1105.29 516.875C1105.41 516.544 1105.67 516.272 1106.01 516.148L1110.35 514.539C1110.82 514.373 1111.18 514.036 1111.36 513.597C1113.84 507.712 1116.37 505.315 1123.01 504.095C1124.53 503.822 1125.65 504.08 1126.38 504.903C1126.69 505.262 1127.08 505.388 1127.55 505.319C1128.05 505.225 1128.41 505.361 1128.64 505.693C1130.82 506.713 1132.98 507.742 1135.13 508.787C1138.49 510.381 1140.96 513.252 1145.02 514.589C1147.28 515.332 1149.81 514.479 1152.15 516.161C1152.58 516.474 1153.05 516.545 1153.56 516.359L1155.04 515.836C1155.56 515.655 1156.09 515.633 1156.63 515.741C1158.07 516.029 1159.36 515.815 1160.5 515.117C1160.85 514.916 1161.2 514.796 1161.56 514.773C1161.75 514.749 1161.88 514.848 1161.91 515.03C1161.98 515.415 1162.49 515.576 1162.76 515.29C1163.63 514.405 1164.69 513.839 1165.95 513.602C1166.54 513.472 1167.01 513.18 1167.36 512.728C1168.92 510.683 1170.83 508.991 1173.08 507.663C1174.96 506.547 1177.91 506.099 1180.57 505.095C1181.91 504.58 1183.98 504.164 1186.8 503.836C1188.82 503.609 1190.9 503.859 1193.02 504.595C1195.82 505.57 1198.61 506.513 1201.39 507.436Z" fill="#F89B41"/>
<path d="M1201.38 507.425L1215.2 515.523L1219.62 519.346C1223.44 524.782 1228.24 534.127 1226.09 540.579C1225.22 543.231 1222.31 547.398 1217.38 553.1C1209.52 562.536 1199.39 566.717 1187 565.656C1182.84 564.289 1179.12 563.412 1175.86 563.046C1170.94 562.468 1168.67 560.476 1166.36 556.201C1157.47 539.766 1157.8 519.177 1174.65 509.005C1178.63 506.612 1183.48 505.748 1188.13 504.32C1188.61 504.158 1189.15 504.155 1189.65 504.298L1201.38 507.425Z" fill="white"/>
<path d="M1215.21 515.52C1218.27 515.973 1219.74 517.246 1219.63 519.344L1215.21 515.52Z" fill="#F89B41"/>
<path d="M1271.89 581.233C1278.84 595.219 1277.34 608.973 1273.42 623.233C1264.81 641.1 1248.41 655.282 1227.47 658.128C1193.72 662.728 1160.36 638.753 1157.25 605.58C1155.43 593.32 1158.87 581.036 1161.98 569.054C1162.57 566.81 1164.69 565.287 1167.15 565.33L1186.99 565.657C1199.38 566.718 1209.51 562.537 1217.37 553.101C1219.19 551.793 1220.92 550.381 1222.56 548.845C1224.56 546.973 1226.44 545.808 1228.16 545.371C1235.54 543.482 1242.35 547.88 1247.87 553.188C1258.5 563.413 1265.67 569.951 1271.89 581.233Z" fill="black"/>
<path d="M1362.56 595.603L1362.26 609.985C1362.25 610.125 1362.27 610.115 1362.33 609.988C1362.83 608.538 1363.12 606.967 1363.19 605.266C1363.2 605.126 1363.26 605.066 1363.41 605.077C1363.56 605.103 1363.62 605.169 1363.62 605.309C1363.42 608.094 1363.41 610.884 1363.58 613.694C1363.75 616.282 1362.85 618.201 1362.19 620.601C1362.13 620.882 1362.08 620.884 1362.07 620.628C1362.07 620.58 1362.07 620.551 1362.08 620.536C1362.55 619.299 1362.91 618.045 1363.13 616.765C1363.15 616.63 1363.09 616.549 1362.93 616.505C1362.9 616.496 1362.87 616.487 1362.84 616.478C1362.72 616.428 1362.66 616.41 1362.65 616.424L1361.66 620.054C1361.63 620.233 1361.49 620.367 1361.4 620.325C1361.37 620.316 1361.34 620.308 1361.29 620.294C1361.24 620.295 1361.22 620.257 1361.22 620.18C1361.54 618.85 1362.49 616.853 1362.61 615.639C1362.68 614.807 1362.6 614.799 1362.35 615.596C1361.01 619.992 1360.13 624.459 1359.68 629.016C1358.61 640.038 1354.27 648.574 1349.86 658.449C1349.85 658.464 1349.84 658.459 1349.82 658.455C1349.69 658.434 1349.57 658.398 1349.43 658.344C1349.34 658.317 1349.31 658.26 1349.33 658.172C1350.43 654.811 1351.56 651.443 1352.74 648.089C1352.75 648.075 1352.73 648.056 1352.69 648.042C1352.58 648.011 1352.55 648.002 1352.62 648.039C1352.58 648.817 1352.26 649.419 1351.65 649.858C1351.23 650.134 1350.99 650.521 1350.89 651.015C1350.41 653.812 1349.33 656.609 1347.65 659.41C1346.05 662.122 1343.95 666.174 1341.37 671.588C1340.27 673.893 1338.59 675.13 1336.77 676.849C1336.4 677.2 1336.16 677.621 1336.04 678.107C1335.98 678.388 1335.9 678.651 1335.82 678.894C1335.75 679.127 1335.61 679.324 1335.41 679.502C1332.46 682.034 1330.75 685.599 1328.51 688.032C1325.21 691.615 1321.88 695.156 1318.5 698.669C1318.15 699.025 1317.73 699.315 1317.25 699.509C1315.72 700.159 1314.59 701.127 1313.85 702.414C1313.61 702.85 1313.25 703.158 1312.77 703.352C1309.88 704.541 1308.53 706.823 1305.89 708.054C1302.9 709.453 1300.06 711.051 1297.34 712.873C1290.23 717.619 1282.57 720.992 1274.36 723.008C1274.48 722.711 1274.73 722.406 1275.13 722.126C1275.54 721.817 1275.49 721.707 1274.98 721.782C1274.38 721.864 1273.84 722.07 1273.32 722.41C1273.24 722.465 1273.15 722.472 1273.06 722.431C1272.93 722.347 1272.94 722.27 1273.1 722.189C1283.52 716.896 1293.55 710.999 1303.19 704.532C1303.25 704.487 1303.31 704.472 1303.38 704.508C1303.41 704.517 1303.44 704.526 1303.49 704.54C1303.64 704.599 1303.62 704.672 1303.41 704.739C1303.17 704.842 1302.91 704.959 1302.68 705.114C1302.5 705.234 1302.45 705.457 1302.57 705.648C1302.68 705.823 1302.93 705.895 1303.13 705.793L1304.17 705.257C1304.33 705.19 1304.4 705.227 1304.39 705.397C1304.37 705.614 1304.26 705.723 1304.01 705.715C1303.58 705.701 1303.35 705.904 1303.35 706.314C1303.3 707.894 1302.52 708.902 1301.01 709.334C1300.88 709.376 1300.84 709.459 1300.91 709.621L1300.92 709.626C1300.99 709.788 1301.1 709.819 1301.26 709.738L1304.17 708.158C1304.7 707.885 1305.12 707.455 1305.4 706.951C1306.01 705.879 1306.96 705.142 1308.26 704.773C1308.54 704.694 1308.71 704.569 1308.75 704.375C1308.82 704.127 1308.73 704.072 1308.5 704.193L1306.93 704.959C1306.68 705.076 1306.36 705.016 1306.19 704.794C1306.02 704.571 1306.04 704.261 1306.24 704.083L1309.21 701.338C1309.51 701.06 1309.86 700.844 1310.25 700.705C1316.12 698.537 1321.75 691.08 1324.51 687.153C1324.8 686.716 1325.18 686.384 1325.67 686.16C1326.55 685.704 1327.05 684.978 1327.18 683.99C1327.24 683.549 1327.44 683.182 1327.81 682.894C1329.15 681.795 1330 680.413 1330.36 678.749C1330.46 678.274 1330.69 677.834 1331.02 677.488C1334.83 673.545 1337.67 669.061 1339.57 664.019C1339.76 663.551 1340.07 663.168 1340.51 662.901C1340.86 662.7 1341.06 662.41 1341.13 662.037C1341.69 659.311 1343.94 657.809 1344.83 655.302C1345.86 652.333 1346.93 649.372 1348.03 646.392C1348.09 646.25 1348.02 646.088 1347.89 646.019C1347.74 645.945 1347.56 645.973 1347.46 646.087C1347.33 646.254 1347.17 646.364 1346.98 646.422C1345.51 646.978 1342.65 646.173 1340.62 646.569C1340.03 646.699 1339.57 646.995 1339.28 647.494C1338.26 649.222 1336.74 649.842 1334.73 649.36C1334.03 649.193 1333.3 649.394 1332.83 649.873L1332.19 650.511C1331.83 650.896 1331.38 651.129 1330.83 651.224C1325.08 652.322 1320.06 650.835 1315.78 646.781C1312.96 644.111 1309.46 643.944 1306.7 641.891C1302.03 638.421 1298.42 634.892 1292.46 632.519C1290.47 631.727 1289.24 630.491 1287.23 629.584C1286.73 629.345 1286.34 628.934 1286.18 628.431C1285.45 626.218 1284.36 624.169 1282.86 622.303C1282.43 621.787 1281.89 621.583 1281.2 621.686C1279.66 621.954 1278.59 621.251 1277.97 619.606C1277.82 619.232 1277.55 618.998 1277.15 618.93C1276.94 618.887 1276.75 618.848 1276.54 618.834C1276 618.789 1275.65 619.019 1275.51 619.534C1275.15 620.991 1274.45 622.209 1273.43 623.228C1277.35 608.967 1278.85 595.213 1271.89 581.227C1272.11 580.454 1272.16 579.695 1272.03 578.979C1271.96 578.628 1272.37 578.382 1272.7 578.572C1272.91 578.678 1273.06 578.848 1273.17 579.053C1273.38 579.444 1273.7 579.677 1274.14 579.788C1278.22 580.723 1282.02 582.317 1285.53 584.569C1286.75 585.346 1288.09 585.889 1289.54 586.177C1289.84 586.233 1290.04 586.132 1290.16 585.883C1290.23 585.76 1290.33 585.632 1290.45 585.509C1290.48 585.469 1290.54 585.454 1290.6 585.471C1292.79 585.989 1294.96 586.564 1297.11 587.228C1303.42 589.196 1309.47 589.795 1315.68 592.571C1316.18 592.791 1316.49 593.151 1316.64 593.649C1316.87 594.426 1317.39 594.654 1318.19 594.317C1318.44 594.214 1318.56 594.139 1318.56 594.076C1318.58 593.97 1318.63 593.843 1318.76 593.705C1318.84 593.601 1318.95 593.57 1319.07 593.605C1323.66 594.606 1328.29 595.335 1332.99 595.783C1333.71 595.848 1333.76 595.688 1333.14 595.306C1332.07 594.637 1331.56 594.031 1331.57 593.5C1331.6 593.017 1332.12 592.724 1332.58 592.935C1334.13 593.666 1335.7 593.846 1337.26 593.475C1337.79 593.356 1338.24 593.471 1338.63 593.804C1339.22 594.321 1339.92 594.473 1340.72 594.276C1340.97 594.207 1341.17 594.28 1341.3 594.523C1341.44 594.785 1341.64 595.031 1341.89 595.276C1342.13 595.502 1342.35 595.487 1342.57 595.25C1342.67 595.137 1342.79 595.028 1342.9 594.919C1343.09 594.736 1343.3 594.716 1343.53 594.846C1345.78 596.042 1348.17 596.477 1350.7 596.161C1352.31 595.959 1353.74 597.363 1352.71 598.126C1352.56 598.255 1352.42 598.374 1352.31 598.483C1352.21 598.597 1352.24 598.668 1352.38 598.694C1353.12 598.86 1353.87 598.711 1354.64 598.268C1355.02 598.047 1355.01 597.84 1354.62 597.632C1354.49 597.562 1354.37 597.483 1354.27 597.374C1354.1 597.214 1354.2 596.927 1354.45 596.921C1355.11 596.906 1355.74 597.132 1356.31 597.596C1356.45 597.699 1356.54 597.678 1356.6 597.522C1356.66 597.366 1356.75 597.233 1356.87 597.11C1356.91 597.075 1356.97 597.059 1357.02 597.058C1357.33 597.099 1357.56 597.228 1357.73 597.451C1358.08 597.916 1358.31 597.872 1358.41 597.314C1358.68 595.609 1358.5 593.6 1357.87 591.322C1357.83 591.154 1357.74 591.002 1357.62 590.855C1356.97 590.166 1357.17 589.056 1358.23 587.544C1358.74 586.822 1358.68 585.781 1358.06 584.386C1357.84 583.914 1357.94 583.375 1358.3 583.005C1358.54 582.772 1358.71 582.411 1358.8 581.917C1358.84 581.723 1358.88 581.736 1358.93 581.923L1362.56 595.603ZM1355.15 645.213C1356.24 641.378 1357.22 637.981 1358.07 635.007C1358.07 634.992 1358.07 634.992 1358.07 634.992C1358.06 634.988 1358.06 634.988 1358.05 635.002C1357.08 638.399 1356.11 641.797 1355.13 645.194C1355.13 645.209 1355.13 645.209 1355.15 645.213Z" fill="#F89B41"/>
<path d="M1274.36 723.015C1269.14 725.906 1263.57 727.935 1257.62 729.086C1251.55 730.264 1248.46 730.859 1248.31 730.896C1240.22 732.755 1234.67 733.641 1231.66 733.568C1226.43 733.456 1222.17 733.307 1216.15 733.552C1210.28 733.808 1204.44 733.175 1198.65 731.672C1198.32 731.593 1198.05 731.658 1197.82 731.876C1197.71 731.97 1197.59 732.045 1197.42 732.107C1197.29 732.149 1197.17 732.147 1197.03 732.122C1183.5 729.172 1170.28 725.27 1157.33 720.405C1155.27 719.624 1153.62 718.22 1151.71 717.088L1154.7 717.364L1157.21 718.825C1157.52 718.991 1157.51 719.068 1157.21 719.061C1157.09 719.059 1156.98 719.028 1156.85 718.959C1156.38 718.68 1156.02 718.626 1155.79 718.796C1155.53 718.99 1155.62 719.379 1155.93 719.468L1172.81 724.799C1172.88 724.817 1172.95 724.791 1172.97 724.732C1172.99 724.659 1172.96 724.602 1172.9 724.57L1171.68 724.049C1171.22 723.852 1171.23 723.712 1171.72 723.633C1172.07 723.576 1172.36 723.627 1172.59 723.771C1172.65 723.804 1172.64 723.818 1172.58 723.8L1161.43 720.601C1161.05 720.494 1160.76 720.27 1160.57 719.946L1160.31 719.523C1160.11 719.199 1159.78 718.947 1159.41 718.825L1154.7 717.364L1145.17 711.332C1143.84 710.635 1142.91 709.832 1142.37 708.937L1136.78 705.282C1136.36 705.002 1136.02 704.653 1135.77 704.234C1135.44 703.682 1134.91 703.357 1134.16 703.284C1133.59 703.23 1133.12 702.985 1132.75 702.564C1131.5 701.117 1130.13 700.44 1128.66 700.524C1127.28 699.558 1125.72 698.48 1123.98 697.272C1123.37 696.861 1123.04 696.401 1122.99 695.915C1122.97 695.737 1122.9 695.574 1122.77 695.442L1120.26 692.717C1120.07 692.538 1119.92 692.354 1119.82 692.149C1119.6 691.787 1119.32 691.47 1118.97 691.213C1116.94 689.794 1115.34 687.994 1114.16 685.84C1113.91 685.373 1113.54 685.001 1113.07 684.723C1109.05 682.323 1110.44 677.502 1104.38 677.545C1098.53 671.72 1093.94 665.574 1090.62 659.133C1090.43 658.761 1090.12 658.498 1089.7 658.363C1088.79 658.071 1088.3 657.426 1088.23 656.443C1088.22 656.203 1088.15 655.963 1088.05 655.729L1082.95 644.769C1082.88 644.621 1082.84 644.467 1082.82 644.304C1082.52 641.772 1081.28 638.153 1079.1 633.441C1078.93 633.059 1078.85 632.675 1078.91 632.297C1078.95 631.852 1078.89 631.438 1078.7 631.023C1077.52 628.411 1076.85 625.695 1076.73 622.87C1076.7 622.388 1076.58 621.927 1076.38 621.474C1074.94 618.41 1074.48 615.298 1075.02 612.138C1076.56 610.812 1077.5 607.58 1077.82 602.418C1077.84 602.234 1077.98 602.086 1078.18 602.081C1078.37 602.086 1078.55 602.217 1078.58 602.4L1078.97 604.611C1079.05 605.043 1079.03 605.464 1078.93 605.876C1078.34 608.091 1077.89 610.312 1077.57 612.569C1077.22 614.947 1077.99 617.535 1077.5 620.25C1077.48 620.4 1077.48 620.545 1077.53 620.684L1080.21 628.221C1080.23 628.322 1080.3 628.374 1080.38 628.381C1080.43 628.38 1080.49 628.379 1080.52 628.373C1080.65 628.346 1080.69 628.263 1080.67 628.148C1080.47 626.56 1080.9 625.183 1081.92 624.01C1082.15 623.744 1082.12 623.484 1081.83 623.26C1081.67 623.133 1081.51 622.992 1081.36 622.856C1081.2 622.715 1081.2 622.589 1081.37 622.464C1081.6 622.309 1081.78 622.107 1081.93 621.882C1082.24 621.358 1082.44 620.924 1082.41 620.726C1082.27 619.407 1082.98 618.681 1084.57 618.57C1088.23 618.295 1090.93 619.731 1094.41 617.809C1094.84 617.572 1095.32 617.503 1095.82 617.631L1104.55 619.662C1104.93 619.754 1105.29 619.557 1105.39 619.207L1105.8 617.749C1105.93 617.297 1106.25 617.073 1106.75 617.09C1107.25 617.107 1107.67 616.991 1107.99 616.737C1108.48 616.387 1109.02 616.196 1109.65 616.186L1118.95 616.031C1119.56 616.016 1120.02 615.769 1120.34 615.293C1122.17 612.551 1124.89 611.801 1127.19 609.811C1128.2 608.947 1129.32 608.196 1130.55 607.587C1131.06 607.623 1131.44 607.479 1131.68 607.155C1132.01 606.727 1132.44 606.456 1132.98 606.313L1137.29 605.245C1137.67 605.149 1137.94 604.925 1138.06 604.565L1138.5 603.242C1138.66 602.751 1139.02 602.491 1139.57 602.444L1142.43 602.221C1142.74 602.199 1142.86 602.047 1142.83 601.739C1142.81 601.59 1142.85 601.444 1142.98 601.291C1143.07 601.159 1143.21 601.088 1143.39 601.093C1145.71 601.081 1147.8 600.433 1149.66 599.138C1149.81 599.024 1149.89 598.872 1149.86 598.689C1149.85 598.545 1149.79 598.401 1149.7 598.249C1149.55 598.002 1149.63 597.85 1149.94 597.828C1150.13 597.805 1150.31 597.839 1150.45 597.927C1150.46 597.932 1150.46 597.961 1150.44 597.956C1150.26 597.951 1150.09 597.887 1149.94 597.78C1149.55 597.495 1149.55 597.244 1149.95 597.012C1150.73 596.588 1151.57 596.544 1152.46 596.88C1153.04 597.093 1153.35 597.481 1153.4 598.064L1153.62 600.636C1153.66 601.041 1153.87 601.306 1154.29 601.412C1154.83 601.534 1155.17 601.869 1155.34 602.405C1155.42 602.698 1155.39 603.147 1155.24 603.749C1154.81 605.41 1155.49 606.017 1157.26 605.593C1160.37 638.764 1193.73 662.737 1227.48 658.137C1248.42 655.291 1264.82 641.11 1273.43 623.244C1274.44 622.226 1275.15 621.007 1275.51 619.551C1275.64 619.036 1276 618.805 1276.54 618.85C1276.75 618.864 1276.94 618.903 1277.15 618.947C1277.55 619.014 1277.82 619.249 1277.96 619.622C1278.59 621.268 1279.66 621.971 1281.2 621.702C1281.89 621.599 1282.43 621.803 1282.86 622.319C1284.36 624.185 1285.45 626.234 1286.18 628.447C1286.34 628.95 1286.72 629.361 1287.23 629.599C1289.24 630.507 1290.46 631.742 1292.45 632.535C1298.42 634.907 1302.03 638.436 1306.7 641.905C1309.46 643.958 1312.96 644.126 1315.77 646.795C1320.06 650.848 1325.08 652.336 1330.82 651.238C1331.37 651.143 1331.82 650.91 1332.19 650.525L1332.82 649.887C1333.3 649.408 1334.03 649.207 1334.72 649.374C1336.73 649.856 1338.25 649.236 1339.27 647.508C1339.57 647.009 1340.02 646.713 1340.61 646.583C1342.64 646.187 1345.5 646.992 1346.97 646.436C1347.16 646.378 1347.33 646.268 1347.46 646.101C1347.56 645.988 1347.73 645.959 1347.88 646.033C1348.01 646.102 1348.08 646.265 1348.03 646.406C1346.92 649.386 1345.85 652.346 1344.82 655.315C1343.93 657.822 1341.69 659.324 1341.12 662.05C1341.05 662.423 1340.85 662.712 1340.51 662.914C1340.06 663.18 1339.75 663.564 1339.56 664.032C1337.67 669.073 1334.82 673.557 1331.02 677.499C1330.68 677.845 1330.46 678.285 1330.35 678.76C1329.99 680.424 1329.15 681.806 1327.81 682.904C1327.44 683.193 1327.23 683.56 1327.17 684.001C1327.04 684.988 1326.55 685.715 1325.66 686.17C1325.18 686.394 1324.79 686.727 1324.5 687.163C1321.75 691.09 1316.11 698.547 1310.25 700.714C1309.85 700.854 1309.51 701.069 1309.21 701.347L1306.24 704.092C1306.04 704.27 1306.01 704.58 1306.19 704.802C1306.36 705.025 1306.68 705.085 1306.93 704.968L1308.49 704.202C1308.73 704.08 1308.81 704.136 1308.74 704.384C1308.7 704.578 1308.53 704.703 1308.26 704.782C1306.96 705.151 1306.01 705.888 1305.4 706.959C1305.12 707.463 1304.7 707.893 1304.16 708.167L1301.26 709.747C1301.1 709.828 1300.99 709.796 1300.92 709.634L1300.9 709.63C1300.83 709.467 1300.87 709.384 1301 709.342C1302.52 708.91 1303.3 707.902 1303.35 706.323C1303.35 705.913 1303.57 705.71 1304.01 705.723C1304.26 705.732 1304.37 705.623 1304.38 705.405C1304.4 705.236 1304.32 705.199 1304.17 705.266L1303.13 705.802C1302.93 705.903 1302.68 705.832 1302.56 705.656C1302.45 705.466 1302.5 705.243 1302.68 705.123C1302.91 704.968 1303.16 704.85 1303.41 704.748C1303.61 704.68 1303.64 704.608 1303.48 704.548C1303.44 704.535 1303.41 704.526 1303.38 704.517C1303.3 704.48 1303.25 704.496 1303.18 704.541C1293.55 711.007 1283.52 716.903 1273.1 722.196C1272.94 722.277 1272.93 722.354 1273.06 722.438C1273.15 722.479 1273.24 722.473 1273.32 722.418C1273.84 722.077 1274.38 721.871 1274.98 721.789C1275.49 721.714 1275.54 721.824 1275.13 722.133C1274.73 722.413 1274.48 722.718 1274.36 723.015ZM1085.1 646.363C1084.58 647.24 1084.86 647.967 1085.92 648.569C1087.09 649.236 1087.34 649.008 1086.67 647.87L1085.77 646.381C1085.54 646 1085.32 646.001 1085.1 646.363Z" fill="#FEC71B"/>
<path d="M1120.25 692.728C1119.96 692.754 1119.71 692.746 1119.5 692.669C1114.39 688.476 1107.39 683.329 1104.37 677.556C1110.44 677.513 1109.04 682.334 1113.06 684.733C1113.54 685.012 1113.9 685.384 1114.15 685.851C1115.33 688.005 1116.94 689.805 1118.97 691.224C1119.31 691.481 1119.59 691.798 1119.81 692.16C1119.92 692.364 1120.07 692.549 1120.25 692.728Z" fill="#F89B41"/>
<path d="M1119.5 692.673C1119.72 692.75 1119.97 692.759 1120.26 692.732L1122.78 695.457C1122.91 695.589 1122.98 695.752 1122.99 695.93C1123.04 696.416 1123.38 696.876 1123.98 697.287C1125.72 698.495 1127.28 699.573 1128.67 700.539L1129.37 701.734C1128.79 701.805 1128.31 701.682 1127.91 701.348C1127.49 700.992 1127.24 700.776 1127.14 700.715C1124.35 699.015 1121.01 696.402 1117.12 692.904C1115.96 691.86 1115.13 690.881 1114.65 690.004C1114.15 689.056 1114.32 688.931 1115.16 689.645L1119.28 693.161C1119.4 693.274 1119.49 693.253 1119.52 693.103C1119.55 692.971 1119.54 692.827 1119.5 692.673Z" fill="#F89B41"/>
<path d="M1142.36 708.947C1139.18 708.965 1137.52 706.659 1135.2 705.141C1133.37 703.94 1130.68 704.289 1129.35 701.729L1128.65 700.534C1130.12 700.451 1131.49 701.127 1132.74 702.574C1133.1 702.995 1133.57 703.24 1134.15 703.294C1134.9 703.367 1135.43 703.693 1135.76 704.245C1136.01 704.663 1136.34 705.012 1136.77 705.292L1142.36 708.947Z" fill="#F89B41"/>
<path d="M1145.15 711.341L1154.69 717.373L1151.69 717.097L1142.6 711.146C1141.39 710.34 1141.47 710.16 1142.87 710.609L1145.15 711.341Z" fill="#F89B41"/>
<path d="M1154.68 717.371L1159.39 718.832C1159.76 718.953 1160.09 719.206 1160.28 719.53L1160.55 719.953C1160.74 720.276 1161.03 720.501 1161.4 720.608L1172.56 723.807C1172.62 723.824 1172.62 723.81 1172.56 723.777C1172.34 723.633 1172.05 723.582 1171.7 723.639C1171.2 723.718 1171.2 723.858 1171.66 724.055L1172.87 724.576C1172.93 724.608 1172.97 724.665 1172.95 724.738C1172.93 724.797 1172.85 724.823 1172.79 724.805L1155.91 719.475C1155.6 719.386 1155.51 718.997 1155.77 718.803C1156 718.633 1156.36 718.687 1156.83 718.965C1156.96 719.035 1157.07 719.066 1157.19 719.068C1157.49 719.075 1157.49 718.998 1157.19 718.831L1154.68 717.371Z" fill="#F89B41"/>
<path d="M944 424C947.269 424 948.972 429.236 951.5 430.5" stroke="#696CFF" stroke-linecap="round"/>
<path d="M942 421C944.993 421 949.321 423.564 950.611 426C952.363 429.31 956 430.251 958 432.75C960.091 435.364 963.574 436.343 965.5 438.75C966.633 440.166 968.114 440.17 969.222 441.278C970.6 442.656 971.897 443.768 973.389 445.111C974.949 446.515 976.295 447.836 977.889 449.111C978.936 449.949 981.76 452.293 983 452.5C984.96 452.827 986.339 455.305 988 455.5C989.243 455.646 989.244 456.926 990.5 457C990.651 457.009 993.015 458.571 993.222 458.778C995.704 461.259 998.995 463.106 1002.22 464.028C1002.65 464.149 1003.03 465.259 1003.78 465.472C1004.57 465.698 1005.1 466.277 1005.78 466.472C1007.37 466.927 1009.02 469 1010.5 469" stroke="#696CFF" stroke-width="5" stroke-linecap="round"/>
<path d="M1005 467C1006.39 467.155 1008.86 468.804 1009.78 469.722C1010.44 470.387 1011.87 470.036 1012.75 470.722C1013.47 471.282 1014.03 471.924 1014.75 472.5C1017.34 474.569 1019.55 476.473 1022.22 478C1024.17 479.115 1025.43 480.873 1027.72 481.528C1028.81 481.84 1031.86 483.456 1032.5 484.25C1033.47 485.458 1035.45 486.593 1036.78 486.972C1038.29 487.405 1039.2 488.592 1040.72 489.028C1042.1 489.422 1044.01 491.4 1045.11 492.389C1046.07 493.251 1048.88 493.828 1049.61 495C1050.07 495.729 1053.62 496.951 1054.5 497C1056.59 497.116 1057.03 499.384 1059 499.5C1059.84 499.55 1062.9 501.217 1063.39 502C1064.11 503.149 1066.77 503.603 1067.89 504.611C1069.27 505.851 1071 506.778 1072.11 507.889C1073.25 509.025 1075.68 508.365 1076.5 510" stroke="#696CFF" stroke-width="5" stroke-linecap="round"/>
<path d="M1078 510C1080.95 510 1089.45 512.5 1086.5 512.5" stroke="#696CFF" stroke-width="5" stroke-linecap="round"/>
<path d="M1078 510C1080.26 510 1082.67 512 1084.75 512C1086.13 512 1091.45 513.397 1092 514.5" stroke="#696CFF" stroke-width="5" stroke-linecap="round"/>
<path d="M1079.5 510.999C1081.45 511.216 1083.37 513.553 1085.25 513.971C1086.03 514.145 1087.24 514.457 1088 514.499C1089.23 514.568 1089.39 515.219 1090.28 515.471C1091.6 515.848 1093.17 516.921 1094.5 516.999C1095.11 517.035 1095.3 518.261 1096.25 518.471C1097.21 518.684 1098.06 518.363 1098.89 519.11C1101.07 521.072 1105.25 521.061 1107 523.249C1107.31 523.635 1110.01 524.938 1110.5 524.999C1112.22 525.214 1113.12 526.389 1115 526.499C1118.11 526.682 1120.98 529.999 1124.25 529.999C1125.31 529.999 1127.48 530.881 1128.5 531.388C1129.75 532.014 1132.48 531.884 1133.39 532.61C1135.72 534.472 1139.42 534.727 1142.22 535.527C1143.05 535.764 1143.52 536.945 1144.5 536.999C1145.48 537.054 1145.97 537.242 1146.78 537.471C1148.34 537.919 1149.5 539.613 1149.5 536.749C1149.5 532.775 1149.08 528.364 1150.61 524.721C1151.15 523.451 1151.5 520.634 1151.5 519.249C1151.5 516.934 1152.5 514.601 1152.5 512.221C1152.5 505.481 1152.5 498.74 1152.5 491.999C1152.5 489.96 1151.27 488.004 1150.61 486.11C1149.87 483.969 1149.09 481.726 1148.11 479.777C1147.27 478.097 1146.88 476.149 1146.47 474.305C1146.02 472.252 1144 470.312 1144 468.221C1144 464.16 1140.99 459.931 1139.61 456.11C1138.4 452.742 1135.33 450.599 1134.47 446.749C1133.88 444.088 1129.86 441.379 1127.75 439.971C1125.51 438.481 1123.85 435.07 1122.22 432.999C1118.22 427.902 1113.08 423.554 1108.89 418.499C1106.59 415.726 1102.74 413.816 1100 411.471C1098.7 410.361 1097.11 409.566 1095.89 408.388C1095.2 407.727 1093.66 405.73 1092.75 405.527C1085 403.805 1077.83 399.135 1070.28 396.888C1067.44 396.043 1064.89 395.11 1061.89 394.999C1060.32 394.941 1058.05 394.143 1056.5 393.777C1054.85 393.389 1053.16 392.764 1051.5 392.527C1048.95 392.162 1046.63 391.348 1044 390.971C1041.16 390.565 1038.36 389.15 1035.5 388.999C1032 388.815 1028.43 390.028 1025 390.61C1017.34 391.911 1009.47 391.839 1002 393.499C998.348 394.311 995.214 396.401 991.61 397.11C986.722 398.072 981.545 400.747 976.499 400.999C971.954 401.226 966.307 404.355 962.61 406.777C959.831 408.598 956.292 409.984 953.999 412.277C952.214 414.062 948.653 415.434 948.027 418.249C947.952 418.585 946.686 419.928 946.721 419.999C946.981 420.518 948.256 420.523 948.471 421.277C949.509 424.908 953.764 426.225 956.388 428.61C958.336 430.381 961.154 431.513 963.277 433.249C965.189 434.814 967.176 436.145 969.249 437.527C972.053 439.396 974.309 442.107 977.221 443.971C980.622 446.148 984.282 448.793 987.444 451.277C989.519 452.908 991.442 455.687 994.11 456.61C996.914 457.581 1000.84 460.438 1003 462.499C1007.17 466.472 1012.12 469.776 1017.75 471.027C1019.94 471.514 1022.12 473.77 1024.11 473.999C1025.61 474.173 1028.96 476.877 1030.22 477.999C1031.21 478.882 1034.32 480.868 1035.5 480.999C1038.07 481.285 1041.63 482.228 1043.75 483.694C1043.99 483.859 1046.65 484.499 1046 484.499" stroke="#696CFF" stroke-width="5" stroke-linecap="round"/>
<path d="M1039.5 483C1042.18 485.378 1045.87 487.598 1048.25 489.5C1048.88 490.004 1050.13 490.951 1051 491C1052.71 491.095 1053.35 492.079 1054.89 492.611C1059.65 494.26 1062.86 497.942 1067.22 500.25C1070.09 501.767 1072.56 504.886 1075.78 505.472C1078.2 505.913 1080.72 507.493 1083 508.611C1088.79 511.45 1094.63 514.247 1100.5 516.889C1103.12 518.069 1106.11 518.547 1108.78 519.722C1113.22 521.677 1117.94 522.964 1122.25 525.222C1126.67 527.539 1131.92 528.176 1136.28 530.111C1138.47 531.086 1142.07 532 1144.5 532" stroke="#696CFF" stroke-width="5" stroke-linecap="round"/>
<path d="M1037.5 483.5C1035.93 483.325 1034.73 481.817 1033.5 481" stroke="#696CFF" stroke-width="5" stroke-linecap="round"/>
<path d="M955 419.001C958.8 419.001 961.884 416.501 965.75 416.501C967.702 416.501 969.375 414.06 971.5 414.001C973.811 413.937 975.207 412.636 977.5 412.501C977.865 412.479 980.83 410.674 981.056 410.279C981.233 409.968 984.018 409.139 984.5 409.001C985.463 408.726 986.906 408.678 987.75 408.223C988.954 407.575 990.368 407.001 991.75 407.001C993.423 407.001 994.015 406.481 995.5 406.057C996.652 405.727 998.212 405.782 999.25 405.223C1000.14 404.744 1001.24 404.001 1002.28 404.001C1005.89 404.001 1009.27 401.703 1013 401.501C1016.14 401.331 1019.4 400.587 1022.5 400.501C1028.75 400.327 1035.03 400.501 1041.28 400.501C1046.7 400.501 1051.08 401.09 1056.28 402.39C1063.48 404.189 1070.18 407.445 1077.11 410.112C1082.52 412.191 1087.44 414.642 1092 418.223C1097.71 422.713 1103.97 426.205 1109 431.501C1111.1 433.706 1113.11 436.452 1114.75 439.001C1116.74 442.104 1120.21 444.158 1122.75 446.695C1125.51 449.452 1127.81 453.222 1130.25 456.473C1133.35 460.604 1133.96 466.455 1136.28 471.223C1137.52 473.777 1137.19 477.037 1138.28 479.529C1138.79 480.71 1138.67 482.208 1139.25 483.251C1139.62 483.923 1140.3 484.468 1140.47 485.251C1142.14 492.764 1142.5 500.095 1142.5 508.001C1142.5 509.536 1142.9 511.735 1142.47 513.223C1142.23 514.054 1141.5 514.063 1141.5 515.251C1141.5 516.084 1141.5 516.918 1141.5 517.751C1141.5 519.156 1141.09 521.254 1142.11 522.39C1142.58 522.914 1136.67 522.358 1135.28 522.112C1132.8 521.675 1130.72 520.889 1128.5 519.779C1126.28 518.667 1122.89 517.315 1120.5 516.973C1118.42 516.676 1116.39 514.505 1114.25 514.029C1111.67 513.455 1109.02 511.831 1106.44 510.973C1101.45 509.31 1097.42 505.858 1092.67 503.779C1087.88 501.683 1082.61 499.752 1078.11 497.112C1076.51 496.173 1074.74 494.56 1072.97 494.029C1071.21 493.5 1070.2 492.097 1068.5 491.529C1064.3 490.13 1060.99 486.679 1057.22 484.529C1055.21 483.381 1053.79 481.686 1051.72 480.612C1048.96 479.18 1046.09 477.913 1043.61 476.001C1040.08 473.282 1036.02 471.504 1032.5 468.89C1028.17 465.675 1022.97 461.244 1017.78 459.612C1014.74 458.657 1011.16 456.262 1008.31 454.751C1006.04 453.549 1003.28 452.39 1001.28 450.751C1000.06 449.753 998.378 448.751 997 447.89C995.166 446.744 993.481 445.073 991.611 443.779C985.466 439.524 978.491 436.28 972.5 432.001C970.68 430.701 967.459 429.219 965.306 428.557C964.81 428.404 962.81 428.501 964.5 428.501C965.75 428.501 967 428.501 968.25 428.501C975.427 428.501 982.811 422.564 988.889 419.001C993.729 416.163 999.278 414.775 1004.56 412.723C1010.96 410.234 1018.45 409.001 1025.28 409.001C1030.16 409.001 1034.92 408.996 1039.78 409.612C1044.18 410.17 1048.31 411.383 1052.78 411.501C1055.94 411.584 1059.72 413.356 1062.75 414.279C1067.49 415.722 1071.5 418.882 1076.06 420.779C1080.9 422.797 1085.72 426.604 1089.89 429.779C1093.54 432.554 1096.44 434.792 1099.39 438.501C1102.08 441.887 1105.25 445.371 1107.25 449.223C1109.23 453.032 1114.18 455.675 1117.03 459.001C1119.21 461.541 1120.86 466.059 1121.97 469.223C1123.02 472.178 1124.14 476.032 1125.75 478.723C1127.42 481.501 1127.6 485.625 1128.39 488.779C1129.24 492.172 1129.5 495.61 1129.5 499.112C1129.5 500.974 1129.58 502.5 1129.97 504.251C1130.09 504.762 1131.71 508.706 1129.47 506.695C1124.75 502.449 1118.87 500.233 1112.61 500.001C1111.21 499.949 1110.59 498.576 1109.28 498.501C1107.42 498.395 1106.09 497.245 1104.28 496.89C1100.28 496.105 1096.3 493.437 1092.5 492.001C1087.09 489.961 1082.11 486.678 1076.78 484.445C1074.65 483.557 1072.89 482.032 1070.78 481.112C1067.5 479.687 1064.25 478.348 1061.03 476.779C1054.28 473.49 1047.72 469.859 1041 466.501C1028.55 460.275 1018.31 450.152 1006.39 443.001C1003.23 441.104 1000.19 439.064 996.833 437.529C994.539 436.48 992.838 434.689 990.306 434.029C989.041 433.699 982.708 430.407 986.75 431.029C988.048 431.228 988.838 432.001 990.25 432.001C991.909 432.001 993.208 431.047 994.556 430.223C998.193 428 1001.91 423.729 1005.92 422.529C1007.24 422.131 1008.87 421.165 1010.11 420.501C1011.57 419.721 1013.41 420.066 1015 419.612C1018.52 418.607 1022.51 417.1 1026.28 417.001C1031.18 416.872 1036.1 417.001 1041 417.001C1044.77 417.001 1048.84 418.576 1052.44 419.723C1057 421.172 1061.47 422.604 1066 424.223C1070.5 425.829 1073.88 429.523 1077.89 431.89C1085.53 436.405 1091.54 444.147 1097.72 450.445C1102.22 455.028 1104.8 460.412 1108.22 465.695C1109.8 468.141 1111.65 471.476 1112.5 474.251C1113.38 477.112 1115.32 479.655 1116.5 482.39C1116.82 483.136 1119.42 488.82 1117 487.612C1114.5 486.363 1112.53 484.681 1109.69 484.251C1106.65 483.789 1104.38 482.845 1101.47 481.973C1091.97 479.122 1082.04 476.82 1073.5 471.751C1071.23 470.403 1068.67 469.924 1066.39 468.612C1063.84 467.15 1061.12 465.923 1058.5 464.612C1055.01 462.868 1051.22 461.832 1047.72 460.112C1045.06 458.804 1042.57 457.2 1039.94 455.834C1036.4 453.993 1032.63 452.08 1029.25 450.001C1026.64 448.395 1023.71 446.724 1020.89 445.557C1018.81 444.695 1017 442.925 1014.78 442.501C1013.56 442.27 1012.66 441.066 1011.5 440.501C1010.11 439.825 1008.66 439.039 1007.5 438.001C1006.99 437.548 1005.72 437.001 1005.72 437.001C1005.72 437.001 1007.57 437.001 1008.5 437.001C1011.27 437.001 1013.06 436.522 1015.61 435.612C1018.28 434.659 1021.28 432.614 1024.11 432.501C1025.03 432.464 1025.7 431.658 1026.72 431.473C1027.81 431.275 1028.56 431.001 1029.75 431.001C1032.48 431.001 1035.39 430.501 1038.25 430.501C1041.09 430.501 1045.2 429.749 1047.89 430.612C1052.02 431.939 1055.87 434.315 1060 435.612C1066.43 437.633 1071.5 442.003 1076.25 446.473C1082.35 452.218 1088.88 457.223 1093.75 464.251C1094.82 465.796 1096.45 466.845 1097.5 468.39C1097.83 468.872 1098.43 469.955 1098.5 470.501C1098.58 471.112 1099.1 470.698 1097.78 470.001C1095.63 468.87 1093.96 467.209 1091.72 466.223C1088.37 464.747 1084.97 463.453 1081.58 462.029C1079.06 460.965 1076.01 460.544 1073.75 458.973C1071.76 457.588 1070.09 455.835 1068.25 454.279C1064.51 451.113 1059.72 450.008 1055.89 447.223C1051.82 444.263 1046.05 443.773 1041.89 441.001C1040.01 439.75 1037.86 440.32 1035.89 439.612C1034.62 439.155 1030.65 438.501 1032 438.501" stroke="#696CFF" stroke-width="15" stroke-linecap="round"/>
<path d="M965.5 412.5C967.064 412.152 968.714 410.447 970.389 409.889C971.544 409.504 972.575 408.789 973.75 408.528C977.719 407.646 982.111 406.168 986.056 404.722C992.716 402.28 1000.23 400.69 1007.31 400C1009.9 399.747 1012.34 398.827 1014.92 398.556C1016.84 398.353 1018.61 398.559 1020.5 398C1025.2 396.608 1031.01 395.5 1035.89 395.5C1045.67 395.5 1056.02 394.345 1065.5 397C1069.45 398.107 1074.35 398.98 1077.89 401.222C1080.48 402.865 1083.09 404.812 1085.81 406.25C1089.67 408.296 1094.02 409.725 1097.39 412.611C1102.03 416.592 1107.26 420.824 1108.5 427" stroke="#696CFF" stroke-width="15" stroke-linecap="round"/>
<path d="M1018 468.001C1016.61 467.827 1014.98 466.686 1013.78 466.001C1013.05 465.583 1011.27 463.847 1013 465.001" stroke="#696CFF" stroke-width="15" stroke-linecap="round"/>
<path d="M1001 429.5C1006.24 429.064 1011.19 426.193 1016.39 426C1018.56 425.92 1020.66 425 1022.89 425C1025.06 425 1027.22 425 1029.39 425C1032.48 425 1035.63 424.759 1038.61 425.611C1040.43 426.13 1042.08 427 1044 427C1045.09 427 1046 426.676 1046 428" stroke="#696CFF" stroke-width="15" stroke-linecap="round"/>
<path d="M1146 488.5C1148.45 488.99 1149.31 492.53 1150.72 494.194C1151.47 495.079 1152.22 495.877 1152.5 497" stroke="#696CFF" stroke-width="15" stroke-linecap="round"/>
</svg>
