<svg width="1692" height="1358" viewBox="0 0 1692 1358" fill="none" xmlns="http://www.w3.org/2000/svg">
<path d="M1370.44 930.998C1373.46 925.053 1375.42 918.847 1376.33 912.395C1376.36 912.165 1376.11 912.011 1375.91 912.134C1370.29 915.744 1365.8 920.46 1362.44 926.298C1360.56 928.648 1357.72 930.599 1355.8 932.611C1315.64 974.319 1261.47 1010.3 1204.06 1018.88C1192.35 1020.64 1178.38 1021.34 1162.15 1021C1159.37 1020.94 1155.56 1020.62 1150.75 1020.05C1145.67 1019.44 1140.34 1019.31 1135.59 1018.5C1098.45 1012.03 1064.13 997.777 1032.64 975.732C1031.87 975.21 1031.51 974.258 1031.71 973.336C1032.04 971.815 1033.29 971.17 1035.42 971.4C1037.7 971.646 1039.9 972.23 1042.09 972.337C1064.93 973.459 1088.86 972.844 1111.33 968.313C1117.38 967.084 1123.84 966.285 1129.45 964.779C1176.98 952.044 1216.15 926.405 1246.96 887.847C1249.42 884.759 1251.9 881.686 1254.39 878.614C1267.1 862.96 1277.33 843.266 1285.54 824.908C1287.32 820.899 1288.81 815.568 1291.01 811.037C1295.23 802.28 1298.91 792.756 1300.72 783.477C1301.09 781.557 1299.29 779.929 1297.42 780.512C1292.14 782.141 1286.58 785.459 1282.69 787.149C1274.67 790.636 1266.63 794.092 1258.58 797.503C1233.76 808.026 1213.28 815.261 1197.16 819.225C1190.21 820.945 1183.19 823.234 1177.64 824.494C1163.19 827.797 1148.69 830.777 1134.12 833.465C1125.73 835.001 1116.71 835.278 1107.9 836.338C1105.9 836.568 1102.91 836.753 1098.92 836.891C1094.88 837.029 1090.67 837.828 1086.95 837.951C1067.82 838.581 1055.37 838.442 1049.62 837.505C1039.9 835.908 1029.51 835.662 1020.49 833.972C1013.69 832.697 1006.92 831.376 1000.14 830.024C974.138 824.816 949.073 816.705 924.93 805.706C919.689 803.325 914.464 800.913 909.224 798.501C873.263 781.91 842.896 759.359 811.992 735.348C763.429 697.604 712.439 663.469 659.005 632.945C652.304 629.12 643.422 624.757 635.815 620.317C623.121 612.913 610.427 605.862 597.533 599.579C578.523 590.315 558.345 580.023 540.626 571.728C491.357 548.7 441.227 527.715 390.236 508.759C374.669 502.967 359.07 497.283 343.441 491.692C338.416 489.894 331.762 488.22 325.691 486.069C320.205 484.133 311.276 481.138 298.875 477.067C250.896 461.321 212.231 450.199 168.263 439.737C167.249 439.507 166.573 439.061 166.235 438.431C165.927 437.878 166.127 437.172 166.665 436.849C172.397 433.454 178.145 430.735 183.908 428.692C215.273 417.524 249.113 411.855 282.354 411.302C286.488 411.225 291.114 410.288 294.679 410.258C314.365 410.089 327.428 410.058 333.867 410.181C337.801 410.258 341.367 411.364 346.161 410.918C350.034 410.565 354.168 411.502 357.426 411.579C365.832 411.763 371.81 412.04 375.36 412.424C397.844 414.805 420.634 416.633 442.902 420.458C453.952 422.348 465.185 423.745 476.081 426.127C480.476 427.094 484.872 428.031 489.267 428.969C494.338 431.073 499.671 432.348 505.249 432.794C509.967 433.178 514.286 433.961 518.189 435.144C520.11 435.728 520.295 435.374 518.773 434.069C514.409 430.382 509.23 427.187 503.236 424.498C476.097 410.212 450.156 398.659 421.218 386.662C416.608 384.741 409.277 382.007 399.211 378.428C389.299 374.894 379.448 370.47 369.782 367.597C330.102 355.769 291.452 346.167 250.466 339.992C245.026 339.162 238.402 339.039 233.592 338.241C221.789 336.29 206.468 334.846 187.642 333.924C163.422 332.726 140.939 332.787 120.193 334.093C87.1978 336.182 52.5126 339.731 20.6397 349.086C14.9075 350.761 9.46727 351.652 3.82727 353.126C2.88983 353.372 2.73615 353.126 3.36623 352.404C5.1028 350.361 7.28503 348.564 9.89757 347.043C48.0867 324.707 88.0892 307.378 129.874 295.058C136.559 293.076 145.857 290.557 157.736 287.485C174.149 283.229 194.204 279.896 212.323 275.303C216.657 274.212 220.913 273.628 225.094 273.567C233.669 273.444 243.596 274.427 251.88 272.353C255.599 271.416 259.01 270.433 262.914 270.433C299.628 270.417 336.341 270.402 373.055 270.356C379.003 270.356 386.133 272.998 392.603 273.229C399.088 273.459 405.128 273.321 411.536 274.627C421.833 276.731 429.501 278.221 434.542 279.097C438.123 279.711 442.456 279.727 446.268 280.449C470.349 284.996 494.154 289.835 517.682 294.966L535.125 299.375C535.739 299.513 536.108 299.743 536.246 300.097C539.935 301.879 543.853 302.969 548.018 303.384C550.446 303.63 552.429 304.997 554.98 305.335C562.863 306.364 568.842 310.097 575.48 311.818C578.37 312.571 580.245 314.122 583.503 314.767C586.13 315.274 588.574 316.135 590.848 317.318C591.786 317.809 592.877 317.01 592.693 315.966C592.539 315.136 592.124 314.445 591.448 313.907C591.033 313.585 590.602 313.554 590.157 313.815C589.096 314.445 587.683 314.568 585.946 314.199C593.676 312.463 585.854 304.506 582.934 302.601C577.509 299.052 572.345 295.181 567.412 290.987C564.4 288.422 561.373 286.286 558.33 284.566C549.616 279.65 541.195 272.461 534.126 269.48C527.41 266.654 519.987 261.984 513.21 259.987C504.604 257.452 496.428 253.719 488.084 250.478C482.321 248.235 476.496 246.499 470.61 245.285C459.776 243.058 448.88 240.846 437.923 238.649C400.594 232.842 362.805 232.105 324.554 236.452C316.993 238.188 309.417 239.217 301.81 239.571C298.613 239.709 293.45 240.876 290.453 242.182C285.059 244.532 279.434 245.746 273.594 245.854C264.066 246.007 257.043 250.416 247.208 247.743C239.754 245.7 234.914 250.508 228.136 252.429C227.967 252.475 227.844 252.413 227.768 252.244V252.229C227.706 252.06 227.768 251.937 227.937 251.86C238.894 247.006 249.805 242.059 260.701 237.02C290.868 223.041 314.104 213.378 330.409 208.048C340.875 204.622 351.356 201.242 361.852 197.893C387.255 189.782 412.643 183.699 438.399 177.938C450.371 175.265 459.376 173.514 465.416 172.669C473.453 171.548 481.337 169.842 488.299 169.013C501.008 167.523 513.517 165.464 526.273 164.558C539.827 163.606 553.812 161.962 566.859 161.624C612.025 160.426 645.681 161.608 689.341 166.57C700.144 167.799 710.287 169.259 719.754 170.964C745.065 175.496 768.193 180.642 789.155 186.372C832.831 198.324 876.214 214.699 919.305 235.484C929.294 240.308 940.79 246.576 951.486 252.244C963.734 258.727 975.521 266.239 987.446 273.275C991.427 275.625 996.36 278.774 1002.21 282.722C1008.7 287.101 1015.78 291.248 1021.84 295.473C1047.03 313.016 1072.31 330.406 1097.68 347.658C1099.11 348.625 1102.01 350.423 1106.39 353.05C1115.78 358.687 1124.77 365.247 1134.41 370.363C1142.17 374.495 1150.02 378.458 1157.95 382.253C1162.96 384.649 1167.57 386.185 1171.8 386.877C1181.33 388.413 1188.4 392.868 1197.57 393.221C1215.21 393.882 1225.92 394.45 1239.88 393.421C1246.61 392.914 1253.74 390.686 1260.84 389.703C1265.67 389.027 1271.35 386.262 1277.88 381.408C1281 379.088 1286.84 373.297 1295.42 364.003C1299.75 359.302 1301.67 343.525 1301.72 336.029C1301.81 323.002 1302.53 314.076 1297.51 303.615C1291.85 291.832 1286.97 279.819 1280.57 268.374C1279.1 265.717 1277.33 263.274 1275.27 261.047C1264.84 249.756 1257.34 242.151 1252.76 238.234C1243.94 230.722 1237 227.404 1226.26 225.299C1217.66 223.609 1208.41 224.178 1199.57 224.285C1195.45 224.331 1191.42 224.915 1187.5 226.037C1168.13 231.598 1155.97 236.713 1141.05 244.579C1136.5 246.975 1132.12 251.107 1128.78 253.427C1121.95 258.22 1115.23 263.197 1108.67 268.359C1107.15 269.557 1105.93 270.387 1105.04 270.848C1103.12 271.846 1100.78 270.663 1100.45 268.513C1099.17 260.325 1098.4 252.167 1098.17 244.056C1097.88 233.718 1099.29 221.612 1100.37 210.306C1102.89 183.991 1112.13 158.997 1126.76 136.999C1129.4 133.035 1125.68 128.334 1123.81 124.924C1118.21 114.678 1117.9 104.185 1122.87 93.478C1127.95 82.5249 1134.79 73.2616 1143.41 65.7189C1154.91 55.6568 1167.5 47.1309 1182.66 37.7908C1205.29 23.8729 1232.56 12.2592 1258.61 6.89785C1265.17 5.546 1271.55 4.0098 1278.18 3.41068C1284.58 2.84229 1290.99 2.36606 1297.42 2.01274C1344.61 -0.629524 1389.78 12.8276 1429.9 37.1917C1449.96 49.3584 1467.02 62.3085 1481.08 76.0422C1496.81 91.3888 1513.75 106.997 1527.15 124.417C1546.97 150.164 1561.51 174.605 1574.45 200.259C1587.48 226.113 1600.65 252.029 1612.1 278.621C1629.75 319.545 1642.16 352.727 1653.46 389.442C1654.55 393.021 1655.15 397.307 1656.39 401.148C1659.28 410.089 1662.69 422.44 1666.61 438.216C1675.77 474.993 1681.52 510.064 1686.05 547.363C1687.28 557.487 1688.1 567.703 1688.5 577.98C1690.16 621.193 1690 658.323 1688.02 689.37C1686.85 707.773 1683.83 731.031 1678.92 759.128C1674.99 781.772 1669.53 801.804 1663.25 825.339C1659.62 838.903 1654.46 853.681 1651.44 863.329C1645.48 882.393 1641.12 894.729 1638.37 900.32C1633.51 910.152 1629.78 920.721 1625.23 930.276C1621.48 938.188 1618.4 946.314 1614.18 954.041C1609.97 961.722 1606.28 969.588 1601.96 977.223C1599.67 981.263 1597.21 985.856 1594.55 990.987C1584.55 1010.28 1571.5 1030.01 1559.15 1049.18C1548.08 1066.32 1535.33 1083.2 1523.05 1100C1517.78 1107.2 1506.53 1121.18 1489.28 1141.96C1479.16 1154.16 1467.69 1165.38 1457.27 1177.2C1445.42 1190.66 1432.19 1204.32 1418.71 1216.13C1415.95 1218.56 1413.49 1221.59 1411.01 1223.83C1407.3 1227.19 1403.62 1230.59 1399.98 1234.01C1387.72 1245.58 1374.53 1256.32 1361.71 1267.26C1323.02 1300.27 1281.93 1329.46 1238.53 1355.93C1237.96 1356.26 1237.45 1356.45 1237 1356.49C1236.1 1356.59 1235.36 1355.76 1235.56 1354.85C1241.58 1328 1249.08 1301.53 1258.06 1275.43C1260.06 1269.62 1261.73 1262.54 1263.55 1257.75C1270.28 1240 1276.64 1224.04 1285.03 1205.15C1290.05 1193.81 1294.76 1181.88 1300.27 1171.29C1309.2 1154.18 1318.68 1137.39 1328.74 1120.93C1329.35 1119.94 1329.23 1118.68 1328.44 1117.82C1327.51 1116.8 1326.18 1116.66 1324.48 1117.42C1291.31 1131.95 1257.03 1140.58 1220.99 1144.18C1205.78 1145.7 1187.15 1146.37 1174.49 1145.34C1159.95 1144.16 1145.54 1143.18 1131.04 1140.75C1108.93 1137.05 1088.37 1132.27 1067.25 1125.51C1063.79 1124.41 1060.6 1122.82 1057.65 1120.75C1056.71 1120.1 1056.8 1119.64 1057.91 1119.38C1069.66 1116.63 1082.24 1114.24 1093.38 1111.3C1116.41 1105.23 1132.47 1100.73 1141.56 1097.77C1191.53 1081.48 1238.17 1060.45 1281.68 1031.5C1299.8 1019.44 1318.41 1002.98 1338.82 980.802C1351.36 967.161 1361.9 950.554 1370.44 930.998ZM725.102 273.812C730.588 279.512 736.167 285.288 741.868 291.125C751.949 301.464 761.969 313.876 772.496 324.906C775.478 329.669 778.797 334.139 782.455 338.302C786.02 342.373 788.018 345.599 787.787 350.638C786.589 378.474 785.467 405.311 787.649 432.225C789.631 456.605 793.596 479.202 799.528 503.705C800.788 508.866 802.909 514.059 804.492 519.389C805.629 523.214 806.659 526.271 807.596 528.591C813.744 543.999 819.998 559.469 828.835 573.678C834.813 583.326 840.468 593.818 847.63 602.605C849.336 604.71 851.548 607.46 854.238 610.854C858.356 616.031 864.596 622.852 872.971 631.301C873.524 631.87 874.047 632.423 874.554 632.976C879.994 639.044 886.234 644.251 893.257 648.63C910.177 662.425 928.741 673.67 948.934 682.38C973.876 693.133 988.03 698.495 1012.33 702.781C1017.34 703.672 1022.72 703.672 1028.02 704.301C1036.72 705.331 1044.02 705.146 1052.22 705.131C1061 705.116 1070.46 703.718 1079.7 703.595C1083.25 703.549 1087 703.134 1090.92 702.32C1101.97 700.062 1111.88 701.49 1122.71 696.421C1127.48 694.193 1135.38 694.378 1141.8 691.413C1144.4 690.214 1146.78 689.277 1148.92 688.586C1158.08 685.652 1166.97 682.042 1175.61 677.787C1178.79 676.22 1183.86 674.837 1187.78 672.871C1194.33 669.568 1200.97 666.48 1207.71 663.608C1215.61 660.228 1222.8 655.635 1230.26 650.15C1235.91 645.987 1242.63 643.238 1250.39 641.901C1251.11 641.778 1251.83 642.178 1252.11 642.854C1254.36 648.507 1250.05 657.816 1245.73 662.271C1236.48 671.811 1227.94 680.26 1220.1 687.618C1214.66 692.734 1208.02 697.173 1201.97 702.074C1198.48 704.885 1195.02 707.374 1191.59 709.525C1186.74 712.582 1180.91 717.559 1175.3 718.711C1167.22 720.385 1163.02 726.177 1155.45 729.756C1149.5 732.568 1143.26 735.502 1136.73 738.559L1124.5 743.905C1123.48 744.35 1123.51 744.703 1124.59 744.995C1126.17 745.41 1128.38 744.534 1129.61 744.319C1137.99 742.845 1146.33 741.001 1154.66 738.789C1159.46 737.576 1164.53 736.7 1169.86 736.162C1173.69 735.778 1177.1 734.503 1180.08 732.352C1182.82 730.371 1184.86 729.096 1186.23 728.512C1196.08 724.287 1206.01 720.263 1216.01 716.407C1221.41 714.318 1226.2 710.031 1231.29 707.481C1242 702.089 1252.16 693.225 1261.78 686.005C1265.76 683.04 1273.26 675.682 1284.29 663.946C1289.5 658.415 1296.95 647.984 1306.67 632.669C1311.12 625.663 1312.18 621.27 1314.47 614.634C1317.42 606.077 1321.28 601.007 1319.96 590.945C1319.9 590.484 1319.51 590.116 1319.05 590.07C1314.6 589.655 1310.23 588.933 1305.94 587.904C1301.61 586.859 1297.2 586.967 1293.21 586.137C1278.5 583.065 1263.07 580.853 1248.88 575.906C1235.13 571.128 1221.42 568.486 1207.96 562.433C1204.19 560.728 1200.2 559.315 1195.99 558.163C1187.29 555.782 1178.91 552.556 1170.88 548.454C1167.99 546.964 1164.88 545.812 1161.58 544.998C1155.39 543.446 1149.38 541.341 1143.57 538.684C1139.96 537.04 1137.88 537.716 1137.34 540.712C1134.39 557.379 1128.83 572.035 1120.64 584.647C1112.77 596.814 1101.71 607.214 1089.75 615.786C1083.63 620.179 1076.38 622.729 1070.76 625.571C1065.91 628.014 1062.16 629.811 1056.43 629.827C1045.18 629.873 1033.93 629.873 1022.68 629.827C1002.31 629.75 983.912 623.19 968.129 610.762C961.613 605.647 954.79 598.15 948.366 591.744C941.635 585.046 938.039 575.522 933.813 567.226C931.077 561.834 929.156 555.659 926.651 549.852C924.607 545.151 923.762 541.633 923.654 536.902C923.332 522.938 923.378 508.989 923.808 495.04C924.1 485.639 928.879 476.929 932.214 468.326C935.442 460 941.02 451.566 948.934 443.009C952.992 438.616 955.896 434.683 950.102 430.167C943.909 425.358 937.501 420.919 931.968 415.45C921.426 405.019 911.468 394.373 899.696 385.294C890.444 378.166 882.146 368.857 873.863 360.592C870.804 357.551 866.517 353.833 860.969 349.44C850.949 341.497 844.11 331.927 831.924 325.936C827.375 323.708 820.521 316.657 815.649 313.062C807.135 306.749 799.298 300.404 789.355 295.335C785.682 293.445 782.055 291.433 778.474 289.267C763.644 280.311 748.061 273.136 731.741 267.744L712.731 260.816C710.349 259.941 710.041 260.417 711.809 262.245C715.435 265.993 719.861 269.849 725.102 273.812ZM989.951 465.899C989.951 458.986 984.342 453.379 977.427 453.379C970.511 453.379 964.902 458.986 964.902 465.899C964.902 472.812 970.511 478.419 977.427 478.419C984.342 478.419 989.951 472.812 989.951 465.899ZM1028.6 514.934C1028.6 500.878 1017.21 489.495 1003.15 489.495C989.091 489.495 977.703 500.878 977.703 514.934C977.703 528.99 989.091 540.374 1003.15 540.374C1017.21 540.374 1028.6 528.99 1028.6 514.934Z" fill="#696CFF"/>
<path d="M437.921 238.649C434.725 238.956 431.451 238.772 428.086 238.096C423.691 237.189 420.494 236.713 418.512 236.667C387.33 235.791 355.903 236.498 324.553 236.452C362.803 232.105 400.593 232.842 437.921 238.649Z" fill="#FEF9F6"/>
<path d="M517.682 294.966C524.951 294.382 530.775 295.857 535.124 299.375L517.682 294.966Z" fill="#FEF9F6"/>
<path d="M536.246 300.097C543.945 301.848 551.66 303.43 559.39 304.859C563.309 305.566 568.718 308.991 573.375 310.297C577.662 311.511 581.858 312.801 585.946 314.199C587.682 314.568 589.096 314.445 590.156 313.815C590.602 313.554 591.032 313.584 591.447 313.907C592.124 314.445 592.539 315.136 592.692 315.966C592.877 317.01 591.785 317.809 590.848 317.317C588.574 316.135 586.13 315.274 583.502 314.767C580.244 314.122 578.369 312.571 575.48 311.818C568.841 310.097 562.863 306.364 554.98 305.335C552.428 304.997 550.446 303.63 548.018 303.384C543.853 302.969 539.934 301.879 536.246 300.097Z" fill="#FEF9F6"/>
<path d="M772.496 324.906C778.828 331.927 788.018 339.362 788.094 349.485C788.263 370.224 788.34 390.963 788.325 411.702C788.325 414.774 788.402 419.244 789.032 422.44C791.014 432.717 791.798 443.086 791.383 453.563C791.352 454.346 791.614 456.128 792.152 458.894C794.487 470.722 796.777 482.566 799.021 494.426C800.665 503.182 802.694 510.986 805.091 517.853C811.438 535.995 818.753 553.032 827.037 568.932C828.543 571.82 830.51 574.953 832.922 578.333C836.949 583.94 840.314 590.699 844.986 597.029C859.663 616.907 875.753 634.112 893.257 648.63C886.234 644.251 879.994 639.044 874.554 632.976C874.047 632.423 873.524 631.87 872.971 631.301C864.596 622.852 858.356 616.031 854.238 610.854C851.548 607.459 849.335 604.71 847.629 602.605C840.468 593.818 834.813 583.326 828.835 573.678C819.998 559.469 813.743 543.999 807.596 528.591C806.659 526.271 805.629 523.214 804.492 519.389C802.909 514.058 800.788 508.866 799.528 503.704C793.596 479.202 789.631 456.605 787.649 432.225C785.467 405.311 786.588 378.474 787.787 350.638C788.018 345.599 786.02 342.373 782.454 338.302C778.797 334.139 775.477 329.668 772.496 324.906Z" fill="#FEF9F6"/>
<path d="M489.266 428.968C493.461 429.66 497.626 430.474 501.76 431.426C503.896 431.903 505.387 430.981 506.232 428.661C506.401 428.2 506.339 427.755 506.063 427.34C505.371 426.311 504.434 425.358 503.235 424.498C509.228 427.186 514.407 430.382 518.772 434.069C520.293 435.374 520.109 435.728 518.188 435.144C514.284 433.961 509.966 433.178 505.248 432.794C499.67 432.348 494.337 431.073 489.266 428.968Z" fill="#FEF9F6"/>
<path d="M989.95 465.899C989.95 472.812 984.341 478.419 977.425 478.419C970.51 478.419 964.9 472.812 964.9 465.899C964.9 458.986 970.51 453.379 977.425 453.379C984.341 453.379 989.95 458.986 989.95 465.899Z" fill="#FEF9F6"/>
<path d="M1028.6 514.934C1028.6 528.99 1017.21 540.373 1003.15 540.373C989.091 540.373 977.703 528.99 977.703 514.934C977.703 500.877 989.091 489.494 1003.15 489.494C1017.21 489.494 1028.6 500.877 1028.6 514.934Z" fill="#FEF9F6"/>
<path d="M1154.66 738.789C1146.33 741.001 1137.99 742.845 1129.61 744.319C1128.38 744.534 1126.17 745.41 1124.59 744.995C1123.51 744.703 1123.48 744.35 1124.5 743.905L1136.73 738.559L1154.66 738.789Z" fill="#FEF9F6"/>
<path d="M1370.44 930.998L1372.2 925.053C1372.63 923.578 1371.9 922.026 1370.51 921.412C1367.26 919.983 1364.71 924.592 1362.44 926.297C1365.8 920.459 1370.29 915.743 1375.92 912.133C1376.11 912.01 1376.36 912.164 1376.33 912.394C1375.42 918.846 1373.46 925.053 1370.44 930.998Z" fill="#FEF9F6"/>
<path d="M1160 509C1155.8 504.799 1149.25 500.446 1147.11 494.556C1146.2 492.036 1144.79 489.11 1144.11 486.556C1142.77 481.534 1142.85 487.767 1143.22 489.778C1144.48 496.527 1146.01 503.235 1147.22 510C1148.24 515.71 1147.68 514.21 1147.06 509.556C1145.81 500.178 1143 490.435 1143 481" stroke="#696CFF" stroke-width="3" stroke-linecap="round"/>
<path d="M1150 521C1149.45 517.441 1147.93 513.145 1146 510.111C1145.81 509.812 1141.89 504.449 1142.17 506.833C1142.94 513.408 1147.59 518.733 1149.83 524.722C1150.36 526.132 1149.49 519.636 1149.39 519.111C1147.71 510.362 1145.36 501.77 1143.78 493C1142.64 486.705 1142.96 492.432 1143 495.444C1143.04 498.581 1142.65 504.563 1144.78 507.222C1147.68 510.856 1142.67 498.155 1141.44 493.667C1138.04 481.212 1132.39 471.152 1128.56 459.111C1127.97 457.257 1130.33 440.854 1128 441C1124.51 441.218 1128.55 451.041 1129 452.5C1130.26 456.593 1134.82 460.129 1137.44 463.5C1138.48 464.826 1141.21 470.926 1140.78 469.778C1138.98 464.972 1136.25 460.642 1134 456C1132.77 453.469 1131 445.298 1131 448.111C1131 450.676 1133.16 455.33 1134.5 457.556C1136.42 460.75 1137.21 468.303 1140 470.222C1141.68 471.377 1142.88 477.84 1143 480C1143.26 484.636 1144.76 489.416 1145.94 493.556C1147.46 498.852 1150 505.487 1150 511C1150 516.833 1150 522.667 1150 528.5C1150 530.992 1149 532.818 1149 535C1149 539.677 1147.05 532.603 1147 531.222C1146.58 520.315 1141 510.722 1141 500C1141 496.848 1138.51 494.155 1138.06 491C1137.46 486.862 1137 482.137 1137 478C1137 473.63 1136 469.774 1136 465.556C1136 462.503 1133 460.996 1133 457.444C1133 453.482 1132.14 450.43 1132 446.778C1131.77 440.855 1129.37 447.86 1130.22 451C1130.99 453.81 1135.23 456.058 1135.94 458.556C1136.58 460.793 1138.27 463.047 1139.44 465.056C1142.75 470.723 1144.06 477.266 1146.78 483C1149.62 488.992 1145.23 498.068 1147.06 504.444C1147.7 506.708 1149.85 508.237 1150 511C1150.14 513.659 1149.85 516.341 1150 519C1150.23 523.09 1151 515.855 1151 514.5C1151 510.588 1150 506.787 1150 503C1150 498.516 1151.87 488.085 1149.22 484.778C1148.43 483.784 1147.18 478.831 1146.94 477.556C1146.42 474.67 1145 471.525 1145 468.5C1145 464.487 1138.26 461.369 1138 457C1137.87 454.847 1136.12 452.521 1135 450.556C1134.28 449.295 1133 450.501 1133 448.5C1133 446.348 1131.86 447.339 1132.06 449.111C1133.16 459.093 1141.61 467.722 1142 477.778C1142.17 482.084 1140.66 480.167 1137.56 481.056C1135.35 481.686 1140.55 491.093 1141.56 492.389C1143.47 494.851 1144.7 496 1148 496C1151.02 496 1150 496.444 1150 500C1150 505.904 1152 511.541 1152 517.5C1152 520.333 1152 523.167 1152 526C1152 526.033 1152.43 519.802 1151.78 518C1150.52 514.527 1153.24 496.618 1150 495" stroke="#696CFF" stroke-width="5" stroke-linecap="round"/>
<path d="M997 388C1007.3 389.874 1015.68 402.427 1026.78 402C1033.04 401.759 1046.99 387.289 1041.44 390.222C1036.19 393.003 1030.21 391.77 1024.22 392C1020.31 392.15 1014.67 394.189 1011 395.5C999.809 399.497 988.802 403.83 977.778 407.222C973.15 408.646 968.376 410.59 964 412.778C960.089 414.733 956.254 414.856 952.444 415.944C949.265 416.853 949.305 421.889 946.556 420.056C945.184 419.141 949.852 420 951.5 420C952.923 420 955.535 418.975 957.056 418.5C963.737 416.412 970.803 415.594 977.5 413.556C984.55 411.41 990.965 408.581 997.778 406.222C1002.04 404.747 1005.89 402.383 1010.22 400.778C1015.7 398.748 1021.17 397.379 1012 400C1005.97 401.723 1000.22 404.618 994 406C988.665 407.186 983.479 407 978 407" stroke="#696CFF" stroke-width="10" stroke-linecap="round"/>
<path d="M1132 574C1125.5 574 1119 574 1112.5 574C1110.49 574 1106.92 573.288 1110.22 571C1113.4 568.803 1125 556.978 1125 565" stroke="white" stroke-linecap="round"/>
<path d="M1056 634C1036.67 625.172 1017.95 614.708 1000.22 603C995.203 599.685 988.551 592.545 982.444 590.667C980.817 590.166 984.751 593.184 986.056 594.278C992.66 599.813 999.518 605.064 1006.33 610.333C1013.8 616.105 1021.51 623.639 1030 628C1030.48 628.248 1031.87 628.698 1031.61 628.222C1030.41 626.015 1026.59 623.296 1025 621.778C1012.81 610.098 1001.34 597.683 987.667 587.667C980.683 582.55 972.889 578.334 966.222 572.778C955.316 563.689 952.44 547.367 947 534.778C941.995 523.196 937.384 511.401 932 500C931.72 499.407 929.255 491.415 927.222 493.222C925.9 494.397 927 501.32 927 503.222C927 509.564 928.324 517.373 926.778 523.556C925.929 526.95 925 529.147 925 532.778C925 539.628 925.563 547.326 929.778 553C935.509 560.716 941.939 568.022 946.444 576.389C949.495 582.054 953.388 588.123 956 594C959.562 602.014 966.487 606.349 973.111 611.167C976.757 613.818 980.588 616.796 984.444 619C985.641 619.684 979.714 609.746 978.444 608.389C966.437 595.553 959.122 575.688 951.333 560.111C945.738 548.921 940.588 536.738 937 524.778C935.837 520.9 933.134 515.811 933 511.778C932.841 507.014 933 502.21 933 497.444C933 492.376 933.883 486.419 932.778 481.444C932.052 478.178 930.17 474.238 930 471C929.747 466.185 928.757 470.641 929.222 473.222C930.265 479.002 934.815 484.282 937.556 489.333C941.402 496.422 945.048 503.431 948 510.944C951.301 519.346 954.252 530.231 959.556 537.556C964.423 544.277 968.616 552.071 972.056 559.611C976.955 570.351 983.95 578.176 990.056 587.944C993.302 593.139 998.4 596.312 1000.5 602.611C1001.94 606.919 1002 611.036 1002 615.5C1002 618.246 984.844 617.063 985.444 617.222C996.638 620.185 1009.38 624 1021 624C1026 624 1031 624 1036 624C1044.83 624 1051.56 622.311 1060 620C1077.97 615.077 1095.92 606.31 1109.22 593.222C1114.15 588.38 1120.12 584.619 1125 580C1126.43 578.645 1126.38 575.898 1127.5 575C1128.98 573.816 1136.44 554.197 1132.44 553.056C1129.08 552.094 1123.47 552.219 1121.56 548.944C1120.17 546.561 1113.09 545.162 1110 545C1103.11 544.637 1097.51 539.185 1091 538C1087.98 537.451 1085.33 535.469 1082.22 534.778C1075.25 533.229 1068.09 531.487 1061.22 529.556C1049.06 526.135 1036.47 522.13 1025 517C1018.41 514.051 1011.98 511.125 1005.56 507.778C995.086 502.327 983.749 496.202 974 489.556C969.474 486.47 964.695 483.057 959.944 480.444C955.05 477.753 951.813 472.87 947.444 469.5C941.207 464.688 937 461.26 937 453.5C937 448.559 941.893 457.237 944.944 458C951.378 459.608 957.223 464.62 961.5 469.556C969.058 478.277 976.973 487.492 981.944 498.056C983.761 501.915 983.398 505.865 984.556 509.833C985.081 511.636 986.386 513.4 985.944 515.389C985.768 516.184 962.813 498.73 960.222 496.722C954.818 492.534 948.06 487.607 944.056 482C943.043 480.583 941.38 479.341 941.056 477.556C940.988 477.183 941 475.269 941 475.667C941 477.756 941.765 478.524 943 480.111C946.397 484.479 948.574 490.758 951 495.667C959.228 512.319 965.3 529.884 972.778 546.778C974.874 551.514 979.027 556.303 982.222 560.444C983.985 562.73 986.431 564.407 987.778 567C989.21 569.759 989.603 572.099 992 574.222C996.286 578.018 999.231 583.924 1003.22 588.222C1005.71 590.901 1007.71 594.243 1009.44 597.444C1014.81 607.325 1023.93 613.344 1034.56 616C1049.32 619.691 1058.78 616.271 1072 609C1082.52 603.215 1092.64 596.616 1103.44 591.5C1108.04 589.322 1110.53 584.734 1115 582.5C1122.24 578.878 1117.75 569.137 1112.5 565.5C1103.95 559.578 1093.03 555.012 1082.94 552.889C1070.61 550.292 1059.01 543.706 1046.56 541.056C1036.75 538.969 1027.69 534.336 1018 532.222C1004.65 529.31 991.568 525.123 978.222 522.222C974.776 521.473 971.511 521 968 521C966.84 521 968.522 521.522 969 522C972.978 525.978 976.599 530.577 980.333 534.778C992.391 548.342 1004.57 563.726 1009.78 581.444C1010.68 584.505 1015.46 589.959 1018.22 591.778C1023.97 595.563 1029.73 599.689 1036.5 601.444C1047.77 604.367 1056.96 602.089 1068 598.5C1079.18 594.867 1089.65 589.069 1100.44 584.444C1104.37 582.763 1111.28 580.604 1114.44 577.444C1116.32 575.569 1105.7 573.016 1104.5 572.5C1098.29 569.838 1092.06 570.227 1085.61 568.556C1079.63 567.004 1073.23 567.083 1067.11 565.5C1057.64 563.051 1048.07 559.586 1038.89 556.222C1026.96 551.855 1014.36 550.156 1002.67 545.222C999.912 544.06 996.159 543.476 993.889 541.444C993.326 540.941 995.367 540.813 995.778 541.444C1001.27 549.889 1009.39 556.504 1015.33 564.778C1019.28 570.269 1024.63 575.951 1027.22 582.222C1028.13 584.411 1030.76 588.9 1033.22 589.778C1039.37 591.973 1047.97 591.597 1054.22 590.222C1058.04 589.383 1061.36 587.16 1065 585.778C1068.24 584.547 1071.92 584.199 1074.94 582.5C1077.16 581.256 1078.19 580.59 1080.44 579.944C1080.98 579.791 1068.43 575.844 1066.94 575.5C1057.82 573.381 1048.39 571.464 1039.5 568.5C1035.58 567.195 1032.2 565.364 1028.44 564C1025.81 563.042 1011.52 554.529 1021.06 561.5C1031.8 569.35 1043.31 584 1058 584" stroke="white" stroke-width="20" stroke-linecap="round"/>
<path d="M943 443C943.369 445.955 950.185 449.514 952.222 451.778C954.876 454.726 957.96 457.404 960.778 460.222C963.284 462.729 965.863 466.117 969 467.778C971.683 469.198 974.172 473.869 977 475C980.631 476.453 982.694 479.941 985.5 481.5C986.134 481.852 989.779 484.977 989.944 485.556C990.659 488.058 994.182 488.965 996 490.556C999.445 493.57 1004.64 500.338 1008.94 501.056C1012.77 501.694 1016.68 508.258 1020.78 509.778C1021.74 510.133 1027.68 513.673 1027.56 514.778C1027.51 515.232 1021.78 515.043 1021 515C1017.77 514.82 1014.79 513 1011.22 513C1009.95 513 1005.14 512 1006 512C1017.62 512 1033.2 516.42 1043 522.778C1048.94 526.63 1057 525.908 1063.06 528.556C1069.39 531.327 1080.65 531.651 1085.5 536.5C1089.35 540.35 1097.42 542.301 1102.56 544.5C1108.66 547.116 1113.7 549.318 1119.06 552.444C1123.15 554.832 1128.15 556 1133 556" stroke="white" stroke-width="20" stroke-linecap="round"/>
<path d="M1137 552C1135.36 552 1126.83 550.534 1126 549.5C1124.48 547.604 1117.87 548.316 1115.78 546.222C1114.51 544.951 1112.23 544 1110.44 544C1107.43 544 1105.61 541.5 1102.94 541.056C1098.8 540.364 1093.55 538.494 1089.44 537C1085.36 535.515 1080.34 533 1076 533C1072.36 533 1068.74 529.439 1065.5 528C1056.52 524.01 1047.75 518.856 1039 514.222C1030.78 509.869 1022.04 505.507 1014 500.778C1003.9 494.838 994.546 486.154 983.5 481.056C979.595 479.253 972.818 475.937 969.778 473.222C964.803 468.78 959.225 468.393 955.889 462.556C954.197 459.595 948.689 456.998 946.222 454.778C944.143 452.906 940.095 449 937 449" stroke="white" stroke-width="20" stroke-linecap="round"/>
<path d="M949 438C951.109 438.264 955.222 445.667 956.778 447.222C957.664 448.109 958.651 451.686 959.556 451.944C960.627 452.25 963.275 455.176 964 456.444C964.937 458.084 968.363 459.807 969.778 461.222C971.32 462.765 973.165 465.341 975.056 466.444C979.322 468.933 984.032 477 989 477" stroke="white" stroke-width="10" stroke-linecap="round"/>
<path d="M1134 543C1124.91 543 1119.56 535.007 1111 534C1107.99 533.646 1103.78 531.097 1101 529.778C1097.49 528.115 1092.91 525.968 1089.94 523.5C1083.48 518.11 1072.9 516.846 1065.78 512C1062.64 509.867 1058.81 508.429 1055.78 506.222C1054.29 505.142 1048.25 501.445 1046.5 501.056C1042.99 500.275 1040.16 496.353 1036.44 495C1034.57 494.32 1031.82 493.125 1030.56 491.5C1029.52 490.164 1027.53 490.323 1027 489C1025.84 486.089 1019.41 485.906 1018 483.444C1016.87 481.463 1011.17 478.804 1009 477.778C1004.45 475.624 999.05 472.312 996 468.5C992.801 464.501 983.045 458 978 458" stroke="white" stroke-width="10" stroke-linecap="round"/>
<path d="M1053 510C1045.26 510 1039.97 503.723 1033.22 501.223C1027.28 499.023 1018.82 495.446 1015 490.223C1009.95 483.307 999.428 478.688 992 474.778C986.75 472.015 982.081 468.526 977.778 464.223C973.995 460.44 969.098 458.266 965.222 454.778C963.366 453.107 957.746 450.829 956.778 449C955.25 446.115 951.361 443.917 949.222 441.778C947.053 439.609 956.221 446.849 956.556 446.945C963.897 449.042 970.389 456.477 976.556 460C980.008 461.973 974.023 455.819 972.611 455.167C971.265 454.546 968.899 453.624 968 452.5C965.805 449.757 960.922 448.902 959 446.5C957.825 445.032 950.111 441.663 950.111 440.556C950.111 438.44 953.607 442.951 955.445 444C956.455 444.578 959.655 446.766 960.445 447.556C962.865 449.976 968.329 451.521 970 454.445C970.445 455.223 973.851 458 974.5 458C977.339 458 977.296 460.149 979 461" stroke="white" stroke-width="10" stroke-linecap="round"/>
<path d="M952 437C953.987 437.199 957.147 440.765 958.111 442.5C959.423 444.861 962.339 445.464 963.611 447.5C964.268 448.551 965.973 448.028 966.722 448.778C967.702 449.757 968.276 449.891 969.5 450.611C971.32 451.682 972.562 453.531 974.5 454.5" stroke="white" stroke-width="5" stroke-linecap="round"/>
<path d="M978 455.5C975.282 453.054 971.783 450.089 968.722 448.389C967.961 447.966 967.169 446.084 966.5 446C965.854 445.919 963.778 444.633 963.25 444.222C958.185 440.283 952.592 438.228 947 434.5" stroke="white" stroke-width="5" stroke-linecap="round"/>
<path d="M1036 491.5C1032.67 491.167 1028.26 486.772 1025.69 484.778C1023.16 482.804 1020.34 481.075 1017.5 479.25C1011.1 475.135 1002.37 473.002 996.5 467.972C992.973 464.949 988.771 463.252 985.389 460.111C984.867 459.627 981.587 457.073 981 457C979.874 456.859 979.208 454.701 978 454.5C976.377 454.229 972.968 451.81 971.889 450.611C969.602 448.07 965.943 446.5 962.5 446.5" stroke="white" stroke-width="5" stroke-linecap="round"/>
<path d="M1139.5 540.5C1136.76 540.5 1131.62 539.284 1129.5 537.5C1128.61 536.755 1127.58 537.064 1126.5 537C1125.87 536.963 1124.51 536.181 1123.78 535.972C1121.99 535.462 1120.24 533.395 1118.22 533.028C1115.75 532.578 1113.91 531.155 1111.61 530.389C1109.66 529.74 1106.2 529.19 1104.61 527.889C1103.86 527.275 1102.88 526.828 1102 526.389C1100.83 525.802 1099.46 524.95 1098.22 524.5C1093.3 522.711 1090.31 519 1084.5 519" stroke="white" stroke-width="5" stroke-linecap="round"/>
<path d="M1139.5 539.5C1133.93 538.943 1128.98 535.191 1123.75 534.028C1119.61 533.107 1115.89 531.138 1112 529.75C1110.67 529.274 1109.01 528.612 1107.61 528.5C1106.51 528.412 1105.92 527.05 1104.61 527C1102.45 526.917 1100.9 524.817 1099 524.5C1097.33 524.221 1094.31 523.1 1093 522C1091.93 521.095 1089.84 520.752 1088.5 520.389C1086.75 519.915 1085.59 518.531 1084 518" stroke="white" stroke-width="5" stroke-linecap="round"/>
<path d="M1083 518C1080.59 517.858 1077.73 515.742 1075.53 514.778C1073.9 514.065 1072.29 513.128 1070.61 512.611C1069.48 512.264 1067.79 511.677 1066.97 510.722C1065.67 509.201 1061.55 508.942 1059.81 508.222C1055.9 506.614 1052.49 505.348 1049.03 502.75C1047.99 501.974 1047.01 501.285 1046.11 500.389C1045.44 499.714 1043.94 498.312 1043 498" stroke="white" stroke-width="5" stroke-linecap="round"/>
<path d="M1027 486C1028.3 486.144 1029.72 487.299 1030.72 487.889C1031.44 488.309 1031.92 488.5 1032.75 488.5C1033.61 488.5 1033.5 489.334 1034.25 489.75C1035.18 490.266 1036.28 491.344 1036.89 492.111C1037.59 492.989 1038.67 493.717 1039.5 494.75C1041.51 497.258 1044.3 498.04 1046.61 499.889C1047.73 500.783 1049.11 501.105 1050.25 502.25C1051.43 503.434 1053.81 504.5 1055.5 504.5" stroke="white" stroke-width="5" stroke-linecap="round"/>
<path d="M1007 468.5C1006.03 467.528 1004.57 467.13 1004 466" stroke="#696CFF" stroke-width="5" stroke-linecap="round"/>
<path d="M1008 464.5C1005.14 464.5 1003.23 461.605 1000.61 461.5C998.861 461.43 995.516 460.513 994.25 459.5C992.836 458.369 991.083 457.268 989.25 456.25C987.876 455.487 986.36 453 985 453" stroke="#696CFF" stroke-width="5" stroke-linecap="round"/>
<path d="M1004 468C1001.74 465.987 999.758 464.642 997.251 463.25C994.569 461.76 999.363 465.431 1000.5 466" stroke="#696CFF" stroke-linecap="round"/>
<path d="M1119.81 430.972C1119.22 430.978 1118.64 430.877 1118.05 430.696C1117.79 430.608 1117.64 430.697 1117.61 430.955C1117.52 431.623 1117.01 432.08 1116.13 432.346C1115.9 432.413 1115.69 432.34 1115.5 432.14C1115.32 431.941 1115.17 431.965 1115.07 432.216C1113.78 435.263 1111.58 433.859 1109.39 433.989C1106.48 434.157 1103.57 434.378 1100.67 434.68C1100.57 434.691 1100.49 434.656 1100.42 434.596C1100.32 434.501 1100.24 434.425 1100.17 434.337C1100.1 434.249 1100.01 434.21 1099.89 434.217L1093.43 434.274C1092.96 434.285 1092.53 434.389 1092.12 434.604C1091.73 434.813 1091.37 434.911 1091.05 434.886C1090.72 434.857 1090.41 434.755 1090.14 434.557C1089.09 433.843 1088.23 433.783 1087.54 434.374C1087.27 434.589 1086.89 434.639 1086.56 434.48C1084.64 433.53 1083.18 433.018 1082.19 432.96C1078.6 432.744 1075.51 432.365 1072.92 431.823C1070.54 431.341 1068.3 431.167 1066.2 431.311C1065.75 431.342 1065.3 431.255 1064.89 431.069C1061.42 429.475 1058.46 428.039 1054.68 427.142C1051.9 426.495 1049.14 425.822 1046.37 425.15C1045.56 424.957 1044.58 424.997 1043.46 425.301C1043.03 425.418 1042.6 425.416 1042.17 425.291C1038.15 424.126 1036.87 428.031 1032.05 426.02C1031.68 425.861 1031.25 425.9 1030.93 426.128C1030.33 426.555 1029.73 426.545 1029.14 426.094C1028.8 425.824 1028.42 425.715 1027.99 425.766C1027.48 425.832 1027 425.708 1026.55 425.38C1026.22 425.151 1025.88 425.119 1025.5 425.279C1022.63 426.576 1019.33 426.072 1015.59 425.374C1015.55 425.362 1015.52 425.38 1015.51 425.417C1015.48 425.568 1015.52 425.727 1015.61 425.871C1015.8 426.169 1015.44 426.492 1015.13 426.295C1014.64 425.98 1014.35 425.885 1014.28 426.038C1014.13 426.368 1013.87 426.456 1013.52 426.289C1010.43 424.841 1007.12 424.054 1003.65 423.925C1002.19 423.867 1001.15 422.475 1001.61 421.166C1002 420.038 1002.78 418.954 1003.93 417.882C1004.18 417.66 1004.26 417.388 1004.18 417.06C1003.77 415.249 1002.97 413.656 1001.74 412.29C1001.48 412.002 1001.16 411.818 1000.77 411.745C999.715 411.55 998.766 411.091 997.934 410.373C997.615 410.094 997.164 410.032 996.797 410.22C995.7 410.773 994.99 410.423 994.68 409.173C994.572 408.755 994.288 408.554 993.842 408.573C992.02 408.678 990.672 407.971 989.812 406.457C989.624 406.123 989.336 405.934 988.934 405.899C988.173 405.827 987.426 405.653 986.698 405.364C986.19 405.152 986.093 404.497 986.548 404.201C986.983 403.925 987.307 403.538 987.544 403.058C987.672 402.761 987.575 402.654 987.247 402.706C983.472 403.372 979.848 404.455 976.365 405.939C975.993 406.099 975.585 406.182 975.172 406.184C973.354 406.223 971.999 407.676 970.883 408.197C968.285 409.374 965.734 410.631 963.229 411.981C962.101 412.591 961.458 413.595 960.106 414.141C957.773 415.087 956.522 416.276 954.717 417.613C954.34 417.292 954.243 416.984 954.417 416.674C954.537 416.454 954.724 416.348 954.991 416.358C955.289 416.363 955.404 416.209 955.337 415.896C955.274 415.571 955.12 415.514 954.855 415.692C954.092 416.22 953.221 416.531 952.258 416.615C956.326 413.191 959.905 409.734 964.8 407.441C967.512 406.163 970.257 404.922 973.018 403.725C974.513 403.073 976.132 403.23 977.723 402.245C977.983 402.08 978.147 402.153 978.218 402.453C978.252 402.583 978.269 402.722 978.29 402.848C978.323 402.978 978.408 403.029 978.541 403.013C979.15 402.921 979.628 402.644 979.97 402.195C980.183 401.896 980.488 401.677 980.85 401.554C982.582 400.969 984.335 400.511 986.125 400.17C986.35 400.128 986.521 400.03 986.636 399.876C986.754 399.71 986.915 399.596 987.121 399.522C990.965 397.968 997.142 396.016 1005.64 393.661C1009.27 392.66 1012.03 392.063 1013.92 391.87C1014.33 391.828 1014.72 391.712 1015.08 391.536C1016 391.094 1016.98 391.013 1018 391.307C1018.43 391.444 1018.88 391.478 1019.32 391.418C1022.24 391.014 1025.18 390.763 1028.16 390.668C1028.21 390.67 1029.04 390.52 1030.61 390.225C1032.37 389.914 1034.04 391.114 1035.73 390.049C1036.08 389.829 1036.5 389.749 1036.91 389.829C1039.06 390.218 1041.22 390.595 1043.39 390.951C1062.36 393.986 1080.08 400.332 1096.55 410.003C1105.99 415.552 1112.6 423.169 1119.81 430.972Z" fill="#E24B42"/>
<path d="M1119.82 430.975C1139.82 450.103 1147.46 471.28 1152.84 496.747C1153.34 499.119 1152.81 501.18 1152.72 503.623L1149.65 492.056C1149.61 491.898 1149.57 491.886 1149.54 492.051C1149.46 492.469 1149.32 492.774 1149.12 492.971C1148.82 493.284 1148.73 493.739 1148.91 494.139C1149.44 495.318 1149.49 496.199 1149.06 496.809C1148.17 498.088 1148 499.026 1148.54 499.609C1148.65 499.733 1148.72 499.862 1148.75 500.004C1149.28 501.93 1149.44 503.629 1149.21 505.071C1149.13 505.542 1148.93 505.58 1148.63 505.187C1148.49 504.999 1148.29 504.889 1148.03 504.854C1147.99 504.855 1147.94 504.869 1147.91 504.898C1147.8 505.003 1147.73 505.115 1147.68 505.247C1147.63 505.378 1147.55 505.397 1147.43 505.31C1146.95 504.917 1146.42 504.726 1145.86 504.739C1145.65 504.744 1145.56 504.987 1145.71 505.122C1145.8 505.214 1145.89 505.281 1146 505.34C1146.33 505.515 1146.34 505.691 1146.02 505.878C1145.37 506.253 1144.74 506.378 1144.11 506.238C1143.99 506.217 1143.96 506.156 1144.05 506.06C1144.14 505.968 1144.26 505.867 1144.39 505.758C1145.26 505.113 1144.05 503.925 1142.69 504.097C1140.55 504.364 1138.52 503.997 1136.62 502.985C1136.43 502.876 1136.25 502.892 1136.09 503.047C1135.99 503.139 1135.9 503.231 1135.81 503.327C1135.63 503.527 1135.44 503.54 1135.24 503.349C1135.03 503.142 1134.86 502.934 1134.74 502.712C1134.63 502.506 1134.46 502.445 1134.24 502.503C1133.57 502.671 1132.98 502.542 1132.48 502.105C1132.15 501.823 1131.76 501.726 1131.32 501.827C1130 502.14 1128.67 501.988 1127.36 501.371C1126.97 501.192 1126.53 501.44 1126.51 501.848C1126.49 502.297 1126.93 502.809 1127.84 503.376C1128.35 503.698 1128.32 503.833 1127.71 503.779C1123.73 503.4 1119.81 502.784 1115.93 501.939C1115.83 501.908 1115.73 501.935 1115.67 502.022C1115.56 502.139 1115.52 502.246 1115.5 502.337C1115.5 502.39 1115.4 502.453 1115.19 502.54C1114.51 502.826 1114.07 502.632 1113.87 501.976C1113.75 501.554 1113.48 501.25 1113.07 501.064C1107.81 498.717 1102.69 498.211 1097.35 496.547C1095.54 495.987 1093.7 495.5 1091.85 495.063C1091.8 495.048 1091.75 495.061 1091.73 495.095C1091.63 495.199 1091.54 495.307 1091.48 495.411C1091.38 495.621 1091.21 495.707 1090.95 495.66C1089.73 495.416 1088.59 494.957 1087.56 494.301C1084.59 492.396 1081.38 491.049 1077.92 490.258C1077.55 490.165 1077.28 489.967 1077.11 489.637C1077.01 489.464 1076.88 489.32 1076.71 489.23C1076.43 489.07 1076.09 489.278 1076.14 489.574C1076.25 490.18 1076.21 490.822 1076.03 491.475C1070.77 481.936 1064.7 476.408 1055.72 467.762C1051.04 463.274 1045.28 459.555 1039.04 461.154C1037.58 461.523 1035.99 462.509 1034.3 464.092C1032.92 465.39 1031.45 466.585 1029.91 467.691C1034.08 462.869 1036.54 459.344 1037.28 457.102C1039.1 451.646 1035.04 443.743 1031.81 439.147C1031.9 437.373 1030.66 436.297 1028.07 435.914L1016.38 429.068C1014.03 428.288 1011.67 427.491 1009.3 426.666C1007.5 426.044 1005.74 425.833 1004.04 426.025C1001.66 426.303 999.905 426.655 998.77 427.09C996.522 427.94 994.024 428.319 992.431 429.263C990.53 430.386 988.911 431.817 987.591 433.547C987.296 433.929 986.899 434.175 986.398 434.285C985.331 434.486 984.44 434.965 983.699 435.713C983.473 435.956 983.043 435.819 982.98 435.494C982.953 435.339 982.849 435.256 982.687 435.276C982.382 435.296 982.083 435.397 981.793 435.567C980.827 436.158 979.737 436.339 978.513 436.095C978.055 436.004 977.609 436.023 977.167 436.176L975.917 436.618C975.488 436.776 975.092 436.716 974.727 436.451C972.746 435.029 970.605 435.75 968.695 435.122C965.264 433.992 963.172 431.565 960.331 430.217C958.507 429.334 956.681 428.463 954.837 427.602C954.647 427.32 954.339 427.205 953.918 427.285C953.517 427.343 953.192 427.237 952.924 426.933C952.313 426.238 951.365 426.019 950.076 426.25C944.462 427.283 942.316 429.31 940.222 434.287C940.073 434.658 939.763 434.943 939.368 435.083L935.692 436.445C935.406 436.549 935.184 436.779 935.09 437.059C934.578 438.647 933.591 439.805 932.114 440.543C931.731 440.74 931.376 440.985 931.077 441.286C930.1 442.26 929.307 443.341 928.694 444.539C928.663 444.597 928.609 444.635 928.573 444.611L928.266 444.443C928.083 444.338 928.036 444.204 928.128 444.03C928.992 442.356 930.065 440.796 931.318 439.354C931.558 439.062 931.842 438.864 932.171 438.758C932.546 438.638 932.825 438.411 933.019 438.08C933.788 436.739 934.934 435.32 936.484 433.83C937.231 433.11 938.751 431.477 941.028 428.941C942.428 427.381 944.091 425.896 946.036 424.519C949.059 422.356 951.953 420.05 954.727 417.616C956.532 416.279 957.783 415.09 960.116 414.144C961.467 413.597 962.11 412.594 963.238 411.983C965.744 410.633 968.295 409.376 970.893 408.2C972.009 407.679 973.364 406.226 975.182 406.187C975.594 406.185 976.002 406.102 976.375 405.942C979.858 404.458 983.482 403.375 987.257 402.709C987.585 402.656 987.682 402.764 987.554 403.061C987.317 403.54 986.993 403.928 986.558 404.203C986.103 404.5 986.2 405.155 986.708 405.367C987.436 405.656 988.182 405.83 988.944 405.901C989.346 405.937 989.634 406.126 989.822 406.46C990.682 407.974 992.03 408.68 993.852 408.575C994.298 408.557 994.582 408.758 994.689 409.176C995 410.426 995.71 410.776 996.807 410.223C997.174 410.035 997.625 410.097 997.944 410.375C998.776 411.094 999.725 411.553 1000.78 411.748C1001.17 411.82 1001.49 412.005 1001.75 412.292C1002.98 413.659 1003.78 415.252 1004.19 417.062C1004.27 417.391 1004.19 417.662 1003.94 417.885C1002.79 418.957 1002.01 420.041 1001.62 421.169C1001.16 422.478 1002.2 423.869 1003.66 423.928C1007.13 424.057 1010.44 424.843 1013.53 426.291C1013.88 426.459 1014.14 426.371 1014.29 426.041C1014.36 425.888 1014.65 425.983 1015.14 426.298C1015.45 426.494 1015.81 426.171 1015.62 425.874C1015.53 425.729 1015.49 425.571 1015.52 425.419C1015.53 425.382 1015.56 425.365 1015.6 425.377C1019.34 426.075 1022.64 426.579 1025.51 425.282C1025.89 425.122 1026.23 425.154 1026.56 425.383C1027.01 425.711 1027.49 425.834 1028 425.769C1028.43 425.718 1028.81 425.827 1029.15 426.097C1029.74 426.548 1030.34 426.558 1030.94 426.131C1031.26 425.903 1031.69 425.864 1032.06 426.023C1036.88 428.033 1038.16 424.129 1042.18 425.294C1042.61 425.418 1043.04 425.42 1043.47 425.304C1044.59 424.999 1045.57 424.96 1046.38 425.152C1049.15 425.825 1051.91 426.497 1054.69 427.145C1058.47 428.042 1061.43 429.477 1064.9 431.072C1065.31 431.258 1065.76 431.345 1066.21 431.314C1068.31 431.169 1070.55 431.344 1072.93 431.826C1075.52 432.368 1078.61 432.747 1082.2 432.963C1083.19 433.021 1084.65 433.532 1086.57 434.482C1086.9 434.642 1087.28 434.592 1087.55 434.377C1088.24 433.785 1089.1 433.846 1090.15 434.56C1090.42 434.758 1090.73 434.86 1091.06 434.889C1091.38 434.914 1091.74 434.816 1092.13 434.606C1092.54 434.392 1092.97 434.288 1093.44 434.277L1099.9 434.22C1100.02 434.213 1100.11 434.252 1100.18 434.34C1100.25 434.428 1100.33 434.503 1100.43 434.599C1100.5 434.659 1100.58 434.693 1100.68 434.683C1103.58 434.38 1106.49 434.16 1109.39 433.992C1111.59 433.862 1113.79 435.266 1115.08 432.219C1115.18 431.968 1115.33 431.944 1115.51 432.143C1115.7 432.343 1115.9 432.416 1116.14 432.349C1117.02 432.083 1117.53 431.626 1117.62 430.958C1117.65 430.7 1117.8 430.611 1118.06 430.698C1118.65 430.88 1119.23 430.981 1119.82 430.975Z" fill="#F07240"/>
<path d="M1016.38 429.068L1006.45 426.425C1006.03 426.304 1005.58 426.307 1005.17 426.443C1001.24 427.652 997.131 428.383 993.764 430.407C979.509 439.01 979.226 456.421 986.748 470.319C988.698 473.933 990.619 475.618 994.788 476.105C997.544 476.415 1000.69 477.156 1004.21 478.312L987.423 478.037C985.342 478.001 983.551 479.289 983.05 481.187C980.416 491.32 977.51 501.708 979.046 512.075C977.55 512.434 976.972 511.921 977.332 510.517C977.463 510.007 977.487 509.627 977.416 509.38C977.276 508.926 976.987 508.643 976.533 508.54C976.175 508.45 975.997 508.226 975.967 507.884L975.78 505.709C975.736 505.216 975.475 504.888 974.986 504.707C974.229 504.424 973.521 504.461 972.864 504.82C972.523 505.016 972.519 505.228 972.848 505.469C972.979 505.56 973.12 505.613 973.275 505.618C973.288 505.622 973.295 505.597 973.282 505.593C973.161 505.519 973.013 505.49 972.851 505.51C972.589 505.528 972.524 505.656 972.649 505.866C972.726 505.994 972.777 506.116 972.784 506.238C972.811 506.392 972.746 506.52 972.619 506.617C971.039 507.712 969.275 508.261 967.309 508.271C967.154 508.267 967.037 508.327 966.963 508.439C966.855 508.568 966.819 508.691 966.84 508.817C966.865 509.078 966.757 509.207 966.495 509.225L964.081 509.414C963.614 509.454 963.31 509.673 963.176 510.089L962.799 511.208C962.697 511.513 962.472 511.702 962.15 511.783L958.507 512.687C958.045 512.808 957.681 513.037 957.407 513.399C957.2 513.673 956.881 513.795 956.449 513.765C955.405 514.279 954.455 514.914 953.606 515.645C951.659 517.328 949.358 517.963 947.811 520.282C947.54 520.685 947.152 520.894 946.637 520.906L938.763 521.038C938.235 521.046 937.776 521.209 937.364 521.504C937.089 521.719 936.734 521.817 936.312 521.803C935.889 521.789 935.621 521.979 935.512 522.361L935.158 523.594C935.073 523.89 934.77 524.056 934.451 523.978L927.064 522.261C926.64 522.153 926.239 522.212 925.869 522.413C922.929 524.038 920.646 522.824 917.55 523.057C916.201 523.151 915.598 523.765 915.719 524.881C915.742 525.047 915.58 525.415 915.311 525.858C915.185 526.048 915.037 526.219 914.843 526.351C914.699 526.456 914.697 526.562 914.833 526.681C914.956 526.797 915.093 526.916 915.233 527.023C915.477 527.213 915.499 527.433 915.307 527.658C914.439 528.65 914.077 529.814 914.247 531.157C914.262 531.254 914.228 531.325 914.121 531.348C914.092 531.352 914.049 531.353 914.006 531.354C913.936 531.348 913.878 531.304 913.86 531.219L911.591 524.845C911.553 524.727 911.546 524.605 911.568 524.478C911.984 522.182 911.332 519.994 911.624 517.983C911.9 516.074 912.282 514.195 912.776 512.322C912.862 511.973 912.879 511.618 912.813 511.252L912.481 509.382C912.455 509.228 912.301 509.117 912.146 509.113C911.974 509.117 911.853 509.242 911.837 509.398C911.567 513.764 910.769 516.497 909.467 517.618C908.17 515.245 907.616 513.258 907.801 511.67C908.038 509.603 907.98 507.919 907.645 506.609C907.595 506.434 907.494 506.392 907.34 506.481C907.09 506.61 906.887 506.672 906.762 506.662C906.247 506.622 905.859 506.19 905.898 505.708C907.008 491.068 908.432 476.72 914.334 462.827C914.386 462.695 914.482 462.656 914.623 462.71L914.941 462.841C914.954 462.845 914.964 462.861 914.961 462.873C914.173 464.382 913.565 465.956 913.125 467.591C913.121 467.603 913.135 467.607 913.135 467.607C913.148 467.611 913.161 467.614 913.164 467.602C914.169 464.741 916.023 462.244 917.089 459.614C918.377 456.46 919.953 453.443 921.787 450.566C923.567 447.781 925.122 443.543 927.542 441.155C929.658 439.079 931.658 436.917 933.52 434.635C936.982 430.397 940.872 426.549 945.188 423.102C946.626 421.954 948.061 420.817 949.513 419.672C949.845 419.407 950.079 419.087 950.218 418.7C950.567 417.732 951.25 417.034 952.265 416.618C953.228 416.534 954.099 416.223 954.862 415.695C955.127 415.517 955.281 415.574 955.344 415.899C955.411 416.212 955.296 416.366 954.998 416.361C954.731 416.351 954.544 416.457 954.424 416.677C954.25 416.987 954.347 417.295 954.724 417.616C951.95 420.05 949.056 422.357 946.033 424.519C944.088 425.896 942.426 427.381 941.026 428.941C938.749 431.477 937.228 433.11 936.482 433.83C934.931 435.32 933.785 436.739 933.017 438.08C932.822 438.412 932.544 438.639 932.168 438.758C931.839 438.864 931.555 439.062 931.315 439.354C930.062 440.796 928.989 442.357 928.126 444.03C928.033 444.204 928.08 444.338 928.263 444.443L928.571 444.612C928.607 444.635 928.66 444.597 928.691 444.539C929.305 443.341 930.098 442.261 931.074 441.286C931.373 440.985 931.728 440.74 932.112 440.543C933.589 439.805 934.575 438.647 935.087 437.059C935.181 436.779 935.404 436.55 935.69 436.445L939.365 435.083C939.761 434.943 940.07 434.658 940.219 434.287C942.314 429.31 944.459 427.283 950.074 426.251C951.363 426.02 952.31 426.238 952.921 426.933C953.19 427.237 953.515 427.344 953.915 427.285C954.336 427.205 954.645 427.32 954.834 427.602C956.678 428.464 958.505 429.334 960.328 430.217C963.17 431.565 965.261 433.993 968.692 435.122C970.602 435.75 972.743 435.029 974.725 436.451C975.09 436.716 975.485 436.776 975.914 436.619L977.164 436.176C977.606 436.023 978.053 436.004 978.51 436.095C979.734 436.339 980.824 436.158 981.79 435.567C982.08 435.397 982.38 435.296 982.684 435.277C982.846 435.256 982.95 435.34 982.977 435.494C983.04 435.819 983.47 435.956 983.696 435.714C984.437 434.965 985.328 434.487 986.395 434.285C986.896 434.176 987.294 433.929 987.588 433.547C988.909 431.817 990.528 430.386 992.428 429.263C994.021 428.319 996.519 427.941 998.768 427.091C999.902 426.655 1001.65 426.303 1004.04 426.025C1005.74 425.834 1007.5 426.044 1009.3 426.667C1011.66 427.491 1014.02 428.288 1016.38 429.068Z" fill="#F89B41"/>
<path d="M1016.37 429.066L1028.06 435.912L1031.8 439.145C1035.03 443.741 1039.09 451.643 1037.27 457.099C1036.53 459.342 1034.07 462.866 1029.9 467.689C1023.25 475.669 1014.68 479.205 1004.2 478.309C1000.68 477.153 997.538 476.412 994.782 476.103C990.613 475.615 988.692 473.93 986.742 470.316C979.22 456.419 979.503 439.007 993.758 430.404C997.125 428.38 1001.23 427.649 1005.16 426.441C1005.57 426.304 1006.03 426.302 1006.45 426.422L1016.37 429.066Z" fill="white"/>
<path d="M1028.07 435.914C1030.66 436.297 1031.9 437.373 1031.8 439.147L1028.07 435.914Z" fill="#F89B41"/>
<path d="M1076.02 491.473C1081.9 503.3 1080.63 514.931 1077.31 526.99C1070.02 542.1 1056.15 554.094 1038.43 556.503C1009.89 560.396 981.665 540.125 979.039 512.074C977.502 501.706 980.409 491.318 983.042 481.185C983.544 479.287 985.335 477.999 987.415 478.035L1004.2 478.31C1014.68 479.206 1023.25 475.67 1029.9 467.689C1031.44 466.583 1032.91 465.389 1034.29 464.09C1035.98 462.507 1037.57 461.522 1039.03 461.152C1045.27 459.553 1051.03 463.272 1055.71 467.76C1064.69 476.406 1070.76 481.934 1076.02 491.473Z" fill="black"/>
<path d="M1152.73 503.623L1152.47 515.785C1152.46 515.903 1152.48 515.895 1152.53 515.788C1152.95 514.561 1153.2 513.233 1153.26 511.794C1153.26 511.676 1153.32 511.626 1153.45 511.635C1153.57 511.656 1153.62 511.712 1153.62 511.831C1153.45 514.186 1153.45 516.545 1153.59 518.921C1153.73 521.11 1152.97 522.732 1152.41 524.762C1152.36 525 1152.32 525.001 1152.31 524.785C1152.31 524.744 1152.31 524.719 1152.32 524.707C1152.72 523.661 1153.02 522.6 1153.2 521.519C1153.22 521.404 1153.17 521.336 1153.04 521.298C1153.01 521.29 1152.98 521.283 1152.96 521.275C1152.86 521.233 1152.8 521.218 1152.8 521.23L1151.96 524.299C1151.93 524.451 1151.82 524.564 1151.74 524.529C1151.71 524.521 1151.69 524.514 1151.65 524.503C1151.61 524.504 1151.59 524.471 1151.59 524.406C1151.86 523.281 1152.67 521.593 1152.76 520.566C1152.82 519.862 1152.75 519.856 1152.55 520.53C1151.41 524.247 1150.67 528.024 1150.29 531.878C1149.38 541.198 1145.71 548.417 1141.98 556.768C1141.97 556.78 1141.96 556.777 1141.95 556.773C1141.84 556.755 1141.73 556.725 1141.62 556.679C1141.54 556.656 1141.51 556.608 1141.53 556.534C1142.46 553.691 1143.42 550.844 1144.41 548.007C1144.42 547.995 1144.41 547.979 1144.37 547.968C1144.28 547.941 1144.25 547.934 1144.31 547.965C1144.28 548.623 1144.01 549.131 1143.49 549.503C1143.14 549.736 1142.93 550.063 1142.85 550.482C1142.44 552.846 1141.53 555.211 1140.11 557.58C1138.75 559.874 1136.97 563.3 1134.79 567.879C1133.87 569.828 1132.44 570.875 1130.9 572.328C1130.59 572.625 1130.39 572.981 1130.28 573.392C1130.23 573.63 1130.17 573.852 1130.09 574.057C1130.04 574.255 1129.92 574.421 1129.75 574.572C1127.26 576.713 1125.81 579.728 1123.91 581.785C1121.12 584.816 1118.3 587.81 1115.45 590.781C1115.15 591.082 1114.79 591.327 1114.39 591.492C1113.09 592.041 1112.13 592.86 1111.51 593.949C1111.3 594.317 1111 594.577 1110.6 594.742C1108.15 595.747 1107.01 597.677 1104.78 598.718C1102.25 599.901 1099.84 601.253 1097.54 602.794C1091.53 606.808 1085.05 609.661 1078.1 611.366C1078.2 611.115 1078.42 610.857 1078.76 610.62C1079.1 610.359 1079.06 610.266 1078.63 610.329C1078.12 610.399 1077.66 610.573 1077.22 610.861C1077.15 610.908 1077.08 610.913 1077.01 610.879C1076.9 610.808 1076.9 610.742 1077.04 610.674C1085.86 606.197 1094.34 601.209 1102.49 595.74C1102.54 595.702 1102.59 595.689 1102.65 595.72C1102.68 595.728 1102.71 595.735 1102.75 595.747C1102.87 595.796 1102.86 595.858 1102.68 595.915C1102.47 596.002 1102.26 596.101 1102.07 596.232C1101.91 596.334 1101.87 596.523 1101.96 596.684C1102.06 596.832 1102.27 596.892 1102.44 596.807L1103.33 596.353C1103.46 596.297 1103.52 596.328 1103.5 596.471C1103.49 596.655 1103.4 596.747 1103.19 596.74C1102.82 596.728 1102.63 596.9 1102.63 597.247C1102.59 598.583 1101.93 599.435 1100.64 599.801C1100.54 599.836 1100.5 599.907 1100.56 600.044L1100.57 600.048C1100.63 600.185 1100.73 600.211 1100.86 600.143L1103.32 598.806C1103.77 598.575 1104.13 598.211 1104.37 597.785C1104.88 596.879 1105.69 596.256 1106.78 595.944C1107.02 595.877 1107.16 595.771 1107.19 595.607C1107.25 595.398 1107.18 595.35 1106.98 595.453L1105.66 596.101C1105.45 596.2 1105.18 596.149 1105.03 595.961C1104.89 595.773 1104.9 595.511 1105.07 595.36L1107.59 593.038C1107.84 592.804 1108.13 592.621 1108.47 592.503C1113.43 590.67 1118.2 584.363 1120.53 581.042C1120.77 580.673 1121.1 580.392 1121.51 580.202C1122.26 579.817 1122.67 579.203 1122.79 578.367C1122.84 577.995 1123.01 577.685 1123.32 577.44C1124.46 576.511 1125.17 575.343 1125.48 573.935C1125.57 573.533 1125.76 573.161 1126.04 572.869C1129.26 569.535 1131.67 565.742 1133.27 561.479C1133.43 561.083 1133.69 560.759 1134.07 560.533C1134.36 560.363 1134.53 560.118 1134.59 559.802C1135.07 557.497 1136.97 556.227 1137.72 554.107C1138.59 551.596 1139.5 549.093 1140.43 546.572C1140.48 546.453 1140.42 546.315 1140.31 546.257C1140.18 546.194 1140.04 546.218 1139.95 546.314C1139.84 546.456 1139.7 546.549 1139.54 546.598C1138.3 547.068 1135.88 546.388 1134.16 546.723C1133.66 546.833 1133.27 547.083 1133.03 547.505C1132.17 548.966 1130.88 549.491 1129.17 549.083C1128.59 548.942 1127.97 549.112 1127.57 549.518L1127.03 550.057C1126.73 550.383 1126.34 550.58 1125.88 550.66C1121.02 551.589 1116.77 550.332 1113.15 546.904C1110.76 544.647 1107.8 544.506 1105.47 542.77C1101.52 539.836 1098.46 536.852 1093.42 534.847C1091.74 534.177 1090.7 533.132 1089 532.365C1088.57 532.163 1088.25 531.816 1088.11 531.39C1087.5 529.519 1086.57 527.786 1085.3 526.209C1084.94 525.772 1084.48 525.6 1083.9 525.687C1082.6 525.914 1081.69 525.32 1081.16 523.928C1081.04 523.613 1080.81 523.414 1080.47 523.357C1080.3 523.32 1080.14 523.287 1079.96 523.276C1079.5 523.238 1079.2 523.432 1079.09 523.868C1078.78 525.1 1078.19 526.13 1077.33 526.992C1080.64 514.932 1081.91 503.302 1076.03 491.475C1076.22 490.822 1076.26 490.18 1076.15 489.574C1076.09 489.278 1076.44 489.07 1076.72 489.23C1076.89 489.32 1077.02 489.464 1077.11 489.637C1077.29 489.967 1077.56 490.165 1077.93 490.258C1081.39 491.049 1084.6 492.396 1087.56 494.301C1088.6 494.957 1089.73 495.416 1090.96 495.66C1091.21 495.707 1091.38 495.621 1091.48 495.411C1091.54 495.307 1091.63 495.199 1091.73 495.095C1091.75 495.061 1091.8 495.048 1091.85 495.063C1093.71 495.5 1095.54 495.987 1097.36 496.547C1102.7 498.211 1107.82 498.717 1113.07 501.064C1113.49 501.25 1113.76 501.554 1113.88 501.976C1114.07 502.632 1114.52 502.826 1115.2 502.54C1115.4 502.453 1115.51 502.39 1115.51 502.337C1115.52 502.246 1115.57 502.139 1115.67 502.022C1115.74 501.935 1115.83 501.908 1115.94 501.939C1119.82 502.784 1123.74 503.4 1127.71 503.779C1128.32 503.833 1128.36 503.698 1127.84 503.375C1126.94 502.809 1126.5 502.297 1126.51 501.848C1126.53 501.439 1126.97 501.192 1127.36 501.371C1128.68 501.988 1130 502.14 1131.33 501.827C1131.77 501.726 1132.15 501.823 1132.48 502.105C1132.99 502.542 1133.57 502.671 1134.25 502.503C1134.46 502.445 1134.63 502.506 1134.74 502.712C1134.86 502.934 1135.03 503.142 1135.24 503.349C1135.44 503.54 1135.63 503.527 1135.82 503.327C1135.9 503.231 1136 503.139 1136.1 503.047C1136.26 502.892 1136.43 502.876 1136.63 502.985C1138.53 503.997 1140.55 504.364 1142.69 504.097C1144.05 503.925 1145.26 505.113 1144.39 505.758C1144.26 505.867 1144.15 505.968 1144.05 506.06C1143.97 506.156 1143.99 506.217 1144.11 506.238C1144.74 506.378 1145.37 506.253 1146.02 505.878C1146.35 505.691 1146.34 505.515 1146.01 505.34C1145.89 505.281 1145.8 505.214 1145.71 505.122C1145.57 504.987 1145.65 504.744 1145.87 504.739C1146.42 504.726 1146.95 504.917 1147.44 505.309C1147.55 505.396 1147.63 505.378 1147.68 505.246C1147.73 505.115 1147.81 505.003 1147.91 504.898C1147.95 504.869 1147.99 504.855 1148.04 504.854C1148.3 504.889 1148.49 504.998 1148.64 505.187C1148.94 505.58 1149.13 505.542 1149.21 505.071C1149.44 503.629 1149.29 501.93 1148.76 500.004C1148.73 499.862 1148.65 499.733 1148.54 499.609C1148 499.026 1148.17 498.088 1149.06 496.809C1149.49 496.199 1149.45 495.318 1148.92 494.139C1148.73 493.739 1148.82 493.284 1149.12 492.971C1149.32 492.774 1149.47 492.469 1149.54 492.051C1149.58 491.886 1149.62 491.898 1149.66 492.056L1152.73 503.623ZM1146.45 545.575C1147.38 542.332 1148.2 539.459 1148.92 536.944C1148.93 536.932 1148.93 536.932 1148.93 536.932C1148.91 536.928 1148.91 536.928 1148.91 536.94C1148.09 539.813 1147.26 542.686 1146.44 545.559C1146.44 545.571 1146.44 545.571 1146.45 545.575Z" fill="#F89B41"/>
<path d="M1078.1 611.367C1073.69 613.811 1068.97 615.529 1063.94 616.502C1058.81 617.499 1056.19 618.003 1056.07 618.034C1049.22 619.607 1044.52 620.356 1041.98 620.295C1037.56 620.201 1033.95 620.075 1028.86 620.283C1023.89 620.5 1018.95 619.965 1014.05 618.695C1013.78 618.628 1013.55 618.683 1013.35 618.867C1013.26 618.947 1013.15 619.011 1013.01 619.063C1012.9 619.098 1012.8 619.097 1012.68 619.075C1001.24 616.582 990.051 613.283 979.099 609.17C977.354 608.51 975.959 607.323 974.342 606.366L976.878 606.599L978.998 607.834C979.256 607.975 979.252 608.04 978.998 608.034C978.899 608.032 978.807 608.006 978.695 607.947C978.294 607.712 977.994 607.666 977.796 607.81C977.579 607.974 977.655 608.303 977.918 608.378L992.198 612.885C992.251 612.9 992.314 612.878 992.328 612.828C992.346 612.767 992.317 612.718 992.268 612.691L991.242 612.25C990.849 612.084 990.855 611.966 991.272 611.899C991.57 611.851 991.814 611.894 992.006 612.016C992.056 612.043 992.052 612.055 991.999 612.04L982.564 609.336C982.248 609.246 982.004 609.056 981.841 608.782L981.616 608.424C981.453 608.15 981.173 607.937 980.861 607.834L976.878 606.599L968.811 601.498C967.686 600.909 966.899 600.23 966.448 599.473L961.716 596.383C961.357 596.147 961.072 595.851 960.861 595.497C960.582 595.03 960.135 594.755 959.499 594.693C959.014 594.648 958.618 594.441 958.308 594.085C957.251 592.861 956.092 592.289 954.849 592.36C953.675 591.543 952.358 590.632 950.887 589.61C950.375 589.263 950.088 588.874 950.05 588.463C950.036 588.312 949.976 588.175 949.866 588.063L947.739 585.759C947.583 585.607 947.457 585.451 947.364 585.278C947.182 584.972 946.946 584.704 946.653 584.487C944.934 583.287 943.579 581.765 942.579 579.944C942.365 579.549 942.057 579.234 941.655 578.998C938.255 576.97 939.438 572.892 934.307 572.93C929.363 568.003 925.476 562.807 922.672 557.36C922.506 557.045 922.242 556.823 921.891 556.709C921.123 556.462 920.71 555.917 920.65 555.086C920.637 554.882 920.582 554.679 920.496 554.481L916.184 545.213C916.12 545.088 916.086 544.958 916.069 544.82C915.815 542.679 914.773 539.618 912.928 535.634C912.779 535.311 912.716 534.986 912.765 534.666C912.801 534.29 912.745 533.94 912.59 533.589C911.588 531.38 911.023 529.083 910.925 526.694C910.9 526.286 910.798 525.897 910.624 525.513C909.404 522.922 909.021 520.29 909.474 517.618C910.776 516.497 911.574 513.764 911.844 509.398C911.86 509.242 911.981 509.117 912.153 509.113C912.308 509.117 912.461 509.228 912.488 509.383L912.82 511.252C912.886 511.618 912.869 511.973 912.783 512.322C912.289 514.196 911.907 516.074 911.63 517.983C911.338 519.994 911.991 522.182 911.575 524.478C911.552 524.605 911.56 524.727 911.598 524.845L913.866 531.219C913.885 531.305 913.943 531.348 914.012 531.355C914.055 531.354 914.098 531.352 914.128 531.348C914.234 531.325 914.269 531.255 914.254 531.157C914.084 529.814 914.446 528.65 915.314 527.658C915.506 527.433 915.484 527.213 915.24 527.023C915.1 526.916 914.963 526.797 914.84 526.682C914.703 526.562 914.705 526.456 914.849 526.351C915.043 526.219 915.192 526.049 915.318 525.858C915.587 525.415 915.749 525.047 915.726 524.881C915.604 523.765 916.207 523.151 917.557 523.057C920.653 522.824 922.935 524.038 925.876 522.413C926.246 522.212 926.647 522.153 927.071 522.262L934.458 523.978C934.776 524.056 935.08 523.89 935.165 523.594L935.518 522.361C935.628 521.979 935.896 521.789 936.318 521.803C936.741 521.817 937.096 521.719 937.371 521.504C937.783 521.209 938.242 521.047 938.77 521.038L946.644 520.906C947.159 520.894 947.546 520.685 947.818 520.282C949.364 517.963 951.665 517.329 953.613 515.645C954.462 514.915 955.412 514.279 956.455 513.765C956.887 513.795 957.207 513.673 957.413 513.399C957.688 513.037 958.052 512.808 958.513 512.687L962.157 511.783C962.479 511.702 962.704 511.513 962.805 511.208L963.183 510.089C963.316 509.673 963.621 509.454 964.087 509.414L966.502 509.226C966.763 509.207 966.872 509.078 966.847 508.817C966.826 508.691 966.861 508.568 966.969 508.439C967.044 508.327 967.161 508.267 967.316 508.271C969.282 508.261 971.046 507.713 972.625 506.617C972.753 506.521 972.818 506.392 972.791 506.238C972.783 506.116 972.733 505.994 972.656 505.866C972.531 505.656 972.596 505.528 972.857 505.51C973.02 505.49 973.168 505.519 973.289 505.593C973.302 505.597 973.295 505.622 973.281 505.618C973.126 505.614 972.985 505.56 972.855 505.469C972.526 505.228 972.53 505.016 972.87 504.82C973.528 504.461 974.235 504.424 974.993 504.708C975.482 504.888 975.743 505.216 975.787 505.709L975.974 507.884C976.004 508.226 976.181 508.451 976.54 508.54C976.994 508.643 977.282 508.926 977.422 509.38C977.494 509.627 977.47 510.007 977.338 510.517C976.979 511.921 977.557 512.434 979.053 512.076C981.679 540.127 1009.9 560.398 1038.45 556.505C1056.16 554.096 1070.04 542.102 1077.33 526.992C1078.18 526.131 1078.78 525.1 1079.09 523.868C1079.2 523.433 1079.5 523.238 1079.96 523.276C1080.14 523.288 1080.3 523.321 1080.47 523.357C1080.81 523.414 1081.04 523.613 1081.16 523.928C1081.69 525.32 1082.6 525.914 1083.9 525.687C1084.48 525.6 1084.94 525.772 1085.3 526.209C1086.57 527.787 1087.5 529.52 1088.11 531.391C1088.25 531.816 1088.57 532.163 1089 532.365C1090.7 533.133 1091.74 534.177 1093.42 534.847C1098.46 536.852 1101.52 539.836 1105.47 542.77C1107.8 544.506 1110.76 544.647 1113.14 546.905C1116.77 550.332 1121.02 551.589 1125.88 550.66C1126.34 550.58 1126.72 550.383 1127.03 550.057L1127.57 549.518C1127.97 549.112 1128.59 548.942 1129.17 549.083C1130.88 549.491 1132.16 548.967 1133.02 547.505C1133.27 547.083 1133.66 546.833 1134.16 546.723C1135.88 546.388 1138.3 547.069 1139.54 546.598C1139.7 546.549 1139.84 546.456 1139.95 546.315C1140.03 546.219 1140.18 546.195 1140.31 546.257C1140.42 546.316 1140.48 546.453 1140.43 546.572C1139.5 549.093 1138.59 551.596 1137.72 554.107C1136.97 556.227 1135.07 557.497 1134.59 559.803C1134.53 560.118 1134.36 560.363 1134.07 560.533C1133.69 560.759 1133.43 561.084 1133.27 561.479C1131.67 565.742 1129.26 569.535 1126.04 572.869C1125.76 573.162 1125.56 573.534 1125.48 573.936C1125.17 575.343 1124.46 576.511 1123.32 577.441C1123.01 577.685 1122.84 577.995 1122.79 578.368C1122.67 579.203 1122.26 579.817 1121.51 580.203C1121.1 580.392 1120.77 580.673 1120.53 581.042C1118.19 584.364 1113.43 590.67 1108.47 592.503C1108.13 592.622 1107.84 592.804 1107.59 593.039L1105.07 595.36C1104.9 595.511 1104.88 595.773 1105.03 595.961C1105.17 596.15 1105.44 596.2 1105.66 596.101L1106.98 595.453C1107.18 595.351 1107.25 595.398 1107.19 595.607C1107.16 595.771 1107.02 595.877 1106.78 595.944C1105.68 596.256 1104.88 596.879 1104.36 597.785C1104.13 598.212 1103.77 598.575 1103.32 598.807L1100.86 600.143C1100.73 600.212 1100.63 600.185 1100.57 600.048L1100.56 600.044C1100.5 599.907 1100.53 599.837 1100.64 599.801C1101.93 599.436 1102.59 598.583 1102.63 597.248C1102.63 596.901 1102.82 596.729 1103.18 596.74C1103.4 596.748 1103.49 596.655 1103.5 596.471C1103.52 596.328 1103.45 596.297 1103.32 596.353L1102.44 596.807C1102.27 596.893 1102.06 596.833 1101.96 596.684C1101.87 596.523 1101.91 596.334 1102.06 596.232C1102.26 596.101 1102.47 596.002 1102.68 595.916C1102.85 595.858 1102.87 595.797 1102.74 595.747C1102.71 595.735 1102.68 595.728 1102.65 595.72C1102.59 595.689 1102.54 595.703 1102.49 595.741C1094.34 601.21 1085.86 606.197 1077.04 610.674C1076.9 610.743 1076.9 610.808 1077 610.879C1077.08 610.914 1077.15 610.908 1077.22 610.861C1077.66 610.573 1078.12 610.399 1078.63 610.33C1079.06 610.266 1079.1 610.359 1078.76 610.62C1078.42 610.857 1078.2 611.115 1078.1 611.367ZM918.002 546.561C917.562 547.302 917.798 547.917 918.69 548.426C919.681 548.99 919.892 548.797 919.329 547.835L918.566 546.576C918.374 546.254 918.189 546.255 918.002 546.561Z" fill="#FEC71B"/>
<path d="M947.734 585.757C947.486 585.779 947.274 585.772 947.094 585.707C942.777 582.161 936.857 577.809 934.303 572.928C939.433 572.89 938.25 576.968 941.65 578.996C942.052 579.232 942.36 579.547 942.574 579.942C943.574 581.762 944.929 583.285 946.648 584.485C946.941 584.702 947.177 584.97 947.36 585.276C947.452 585.449 947.578 585.605 947.734 585.757Z" fill="#F89B41"/>
<path d="M947.103 585.711C947.283 585.776 947.495 585.783 947.743 585.761L949.87 588.065C949.98 588.176 950.04 588.314 950.054 588.464C950.092 588.876 950.379 589.265 950.891 589.612C952.362 590.634 953.679 591.545 954.853 592.362L955.445 593.372C954.958 593.433 954.547 593.328 954.216 593.046C953.861 592.745 953.644 592.562 953.559 592.511C951.197 591.074 948.375 588.864 945.084 585.906C944.1 585.023 943.399 584.195 943 583.454C942.576 582.652 942.72 582.546 943.428 583.15L946.914 586.123C947.014 586.219 947.091 586.201 947.113 586.074C947.145 585.963 947.137 585.841 947.103 585.711Z" fill="#F89B41"/>
<path d="M966.436 599.472C963.743 599.487 962.34 597.537 960.375 596.254C958.832 595.238 956.557 595.533 955.429 593.368L954.836 592.358C956.08 592.287 957.238 592.86 958.295 594.083C958.606 594.439 959.002 594.646 959.486 594.691C960.123 594.754 960.57 595.029 960.849 595.495C961.06 595.849 961.345 596.145 961.704 596.381L966.436 599.472Z" fill="#F89B41"/>
<path d="M968.8 601.496L976.866 606.596L974.33 606.363L966.643 601.331C965.615 600.65 965.687 600.497 966.872 600.877L968.8 601.496Z" fill="#F89B41"/>
<path d="M976.861 606.596L980.845 607.831C981.157 607.934 981.437 608.147 981.6 608.421L981.825 608.779C981.988 609.052 982.232 609.242 982.547 609.333L991.983 612.037C992.036 612.052 992.039 612.04 991.99 612.012C991.798 611.891 991.554 611.847 991.256 611.895C990.838 611.963 990.833 612.081 991.226 612.247L992.252 612.688C992.301 612.715 992.33 612.764 992.312 612.825C992.298 612.875 992.235 612.896 992.182 612.881L977.902 608.375C977.639 608.3 977.562 607.971 977.78 607.806C977.978 607.663 978.277 607.709 978.679 607.944C978.79 608.003 978.882 608.029 978.981 608.031C979.236 608.037 979.24 607.971 978.982 607.831L976.861 606.596Z" fill="#F89B41"/>
<path d="M944 424C947.269 424 948.972 429.236 951.5 430.5" stroke="#696CFF" stroke-linecap="round"/>
<path d="M942 421C944.993 421 949.321 423.564 950.611 426C952.363 429.31 956 430.251 958 432.75C960.091 435.364 963.574 436.343 965.5 438.75C966.633 440.166 968.114 440.17 969.222 441.278C970.6 442.656 971.897 443.768 973.389 445.111C974.949 446.515 976.295 447.836 977.889 449.111C978.936 449.949 981.76 452.293 983 452.5C984.96 452.827 986.339 455.305 988 455.5C989.243 455.646 989.244 456.926 990.5 457C990.651 457.009 993.015 458.571 993.222 458.778C995.704 461.259 998.995 463.106 1002.22 464.028C1002.65 464.149 1003.03 465.259 1003.78 465.472C1004.57 465.698 1005.1 466.277 1005.78 466.472C1007.37 466.927 1009.02 469 1010.5 469" stroke="#696CFF" stroke-width="5" stroke-linecap="round"/>
<path d="M1005 467C1006.39 467.155 1008.86 468.804 1009.78 469.722C1010.44 470.387 1011.87 470.036 1012.75 470.722C1013.47 471.282 1014.03 471.924 1014.75 472.5C1017.34 474.569 1019.55 476.473 1022.22 478C1024.17 479.115 1025.43 480.873 1027.72 481.528C1028.81 481.84 1031.86 483.456 1032.5 484.25C1033.47 485.458 1035.45 486.593 1036.78 486.972C1038.29 487.405 1039.2 488.592 1040.72 489.028C1042.1 489.422 1044.01 491.4 1045.11 492.389C1046.07 493.251 1048.88 493.828 1049.61 495C1050.07 495.729 1053.62 496.951 1054.5 497C1056.59 497.116 1057.03 499.384 1059 499.5C1059.84 499.55 1062.9 501.217 1063.39 502C1064.11 503.149 1066.77 503.603 1067.89 504.611C1069.27 505.851 1071 506.778 1072.11 507.889C1073.25 509.025 1075.68 508.365 1076.5 510" stroke="#696CFF" stroke-width="5" stroke-linecap="round"/>
<path d="M1078 510C1080.95 510 1089.45 512.5 1086.5 512.5" stroke="#696CFF" stroke-width="5" stroke-linecap="round"/>
<path d="M1078 510C1080.26 510 1082.67 512 1084.75 512C1086.13 512 1091.45 513.397 1092 514.5" stroke="#696CFF" stroke-width="5" stroke-linecap="round"/>
<path d="M1079.5 511C1081.45 511.217 1083.37 513.554 1085.25 513.972C1086.03 514.146 1087.24 514.458 1088 514.5C1089.23 514.569 1089.39 515.22 1090.28 515.472C1091.6 515.849 1093.17 516.922 1094.5 517C1095.11 517.036 1095.3 518.262 1096.25 518.472C1097.21 518.685 1098.06 518.364 1098.89 519.111C1101.07 521.073 1105.25 521.062 1107 523.25C1107.31 523.636 1110.01 524.939 1110.5 525C1112.22 525.215 1113.12 526.39 1115 526.5C1118.11 526.683 1120.98 530 1124.25 530C1125.31 530 1127.48 530.882 1128.5 531.389C1129.75 532.015 1132.48 531.885 1133.39 532.611C1135.72 534.473 1139.42 534.728 1142.22 535.528C1143.05 535.765 1143.52 536.946 1144.5 537C1145.48 537.055 1145.97 537.243 1146.78 537.472C1148.34 537.92 1149.5 539.614 1149.5 536.75C1149.5 532.775 1149.08 528.365 1150.61 524.722C1151.15 523.452 1151.5 520.635 1151.5 519.25C1151.5 516.935 1152.5 514.602 1152.5 512.222C1152.5 505.482 1152.5 498.741 1152.5 492C1152.5 489.961 1151.27 488.005 1150.61 486.111C1149.87 483.97 1149.09 481.727 1148.11 479.778C1147.27 478.098 1146.88 476.15 1146.47 474.306C1146.02 472.253 1144 470.313 1144 468.222C1144 464.161 1140.99 459.932 1139.61 456.111C1138.4 452.743 1135.33 450.6 1134.47 446.75C1133.88 444.089 1129.86 441.38 1127.75 439.972C1125.51 438.482 1123.85 435.071 1122.22 433C1118.22 427.903 1113.08 423.555 1108.89 418.5C1106.59 415.727 1102.74 413.817 1100 411.472C1098.7 410.362 1097.11 409.567 1095.89 408.389C1095.2 407.728 1093.66 405.73 1092.75 405.528C1085 403.806 1077.83 399.136 1070.28 396.889C1067.44 396.044 1064.89 395.111 1061.89 395C1060.32 394.942 1058.05 394.144 1056.5 393.778C1054.85 393.39 1053.16 392.765 1051.5 392.528C1048.95 392.163 1046.63 391.349 1044 390.972C1041.16 390.566 1038.36 389.151 1035.5 389C1032 388.816 1028.43 390.029 1025 390.611C1017.34 391.912 1009.47 391.84 1002 393.5C998.348 394.312 995.214 396.402 991.61 397.111C986.722 398.073 981.545 400.748 976.499 401C971.954 401.227 966.307 404.356 962.61 406.778C959.831 408.599 956.292 409.985 953.999 412.278C952.214 414.063 948.653 415.435 948.027 418.25C947.952 418.586 946.686 419.929 946.721 420C946.981 420.519 948.256 420.524 948.471 421.278C949.509 424.909 953.764 426.226 956.388 428.611C958.336 430.382 961.154 431.513 963.277 433.25C965.189 434.815 967.176 436.146 969.249 437.528C972.053 439.397 974.309 442.108 977.221 443.972C980.622 446.149 984.282 448.794 987.444 451.278C989.519 452.909 991.442 455.688 994.11 456.611C996.914 457.582 1000.84 460.439 1003 462.5C1007.17 466.473 1012.12 469.777 1017.75 471.028C1019.94 471.514 1022.12 473.771 1024.11 474C1025.61 474.174 1028.96 476.878 1030.22 478C1031.21 478.882 1034.32 480.869 1035.5 481C1038.07 481.286 1041.63 482.229 1043.75 483.695C1043.99 483.86 1046.65 484.5 1046 484.5" stroke="#696CFF" stroke-width="5" stroke-linecap="round"/>
<path d="M1039.5 483C1042.18 485.378 1045.87 487.598 1048.25 489.5C1048.88 490.004 1050.13 490.951 1051 491C1052.71 491.095 1053.35 492.079 1054.89 492.611C1059.65 494.26 1062.86 497.942 1067.22 500.25C1070.09 501.767 1072.56 504.886 1075.78 505.472C1078.2 505.913 1080.72 507.493 1083 508.611C1088.79 511.45 1094.63 514.247 1100.5 516.889C1103.12 518.069 1106.11 518.547 1108.78 519.722C1113.22 521.677 1117.94 522.964 1122.25 525.222C1126.67 527.539 1131.92 528.176 1136.28 530.111C1138.47 531.086 1142.07 532 1144.5 532" stroke="#696CFF" stroke-width="5" stroke-linecap="round"/>
<path d="M1037.5 483.5C1035.93 483.325 1034.73 481.817 1033.5 481" stroke="#696CFF" stroke-width="5" stroke-linecap="round"/>
<path d="M955 419C958.8 419 961.884 416.5 965.75 416.5C967.702 416.5 969.375 414.059 971.5 414C973.811 413.936 975.207 412.635 977.5 412.5C977.865 412.478 980.83 410.673 981.056 410.278C981.233 409.967 984.018 409.138 984.5 409C985.463 408.725 986.906 408.677 987.75 408.222C988.954 407.574 990.368 407 991.75 407C993.423 407 994.015 406.48 995.5 406.056C996.652 405.726 998.212 405.781 999.25 405.222C1000.14 404.743 1001.24 404 1002.28 404C1005.89 404 1009.27 401.702 1013 401.5C1016.14 401.33 1019.4 400.586 1022.5 400.5C1028.75 400.326 1035.03 400.5 1041.28 400.5C1046.7 400.5 1051.08 401.089 1056.28 402.389C1063.48 404.188 1070.18 407.444 1077.11 410.111C1082.52 412.19 1087.44 414.641 1092 418.222C1097.71 422.712 1103.97 426.204 1109 431.5C1111.1 433.705 1113.11 436.451 1114.75 439C1116.74 442.103 1120.21 444.157 1122.75 446.694C1125.51 449.451 1127.81 453.221 1130.25 456.472C1133.35 460.603 1133.96 466.454 1136.28 471.222C1137.52 473.776 1137.19 477.036 1138.28 479.528C1138.79 480.709 1138.67 482.207 1139.25 483.25C1139.62 483.922 1140.3 484.467 1140.47 485.25C1142.14 492.763 1142.5 500.094 1142.5 508C1142.5 509.535 1142.9 511.734 1142.47 513.222C1142.23 514.053 1141.5 514.062 1141.5 515.25C1141.5 516.083 1141.5 516.917 1141.5 517.75C1141.5 519.155 1141.09 521.253 1142.11 522.389C1142.58 522.913 1136.67 522.357 1135.28 522.111C1132.8 521.674 1130.72 520.888 1128.5 519.778C1126.28 518.666 1122.89 517.314 1120.5 516.972C1118.42 516.675 1116.39 514.504 1114.25 514.028C1111.67 513.454 1109.02 511.83 1106.44 510.972C1101.45 509.309 1097.42 505.857 1092.67 503.778C1087.88 501.682 1082.61 499.751 1078.11 497.111C1076.51 496.172 1074.74 494.559 1072.97 494.028C1071.21 493.499 1070.2 492.096 1068.5 491.528C1064.3 490.129 1060.99 486.678 1057.22 484.528C1055.21 483.38 1053.79 481.685 1051.72 480.611C1048.96 479.179 1046.09 477.912 1043.61 476C1040.08 473.281 1036.02 471.503 1032.5 468.889C1028.17 465.674 1022.97 461.243 1017.78 459.611C1014.74 458.656 1011.16 456.261 1008.31 454.75C1006.04 453.548 1003.28 452.389 1001.28 450.75C1000.06 449.752 998.378 448.75 997 447.889C995.166 446.743 993.481 445.072 991.611 443.778C985.466 439.524 978.491 436.279 972.5 432C970.68 430.7 967.459 429.218 965.306 428.556C964.81 428.403 962.81 428.5 964.5 428.5C965.75 428.5 967 428.5 968.25 428.5C975.427 428.5 982.811 422.563 988.889 419C993.729 416.163 999.278 414.774 1004.56 412.722C1010.96 410.233 1018.45 409 1025.28 409C1030.16 409 1034.92 408.995 1039.78 409.611C1044.18 410.169 1048.31 411.382 1052.78 411.5C1055.94 411.583 1059.72 413.355 1062.75 414.278C1067.49 415.721 1071.5 418.881 1076.06 420.778C1080.9 422.796 1085.72 426.603 1089.89 429.778C1093.54 432.553 1096.44 434.792 1099.39 438.5C1102.08 441.886 1105.25 445.37 1107.25 449.222C1109.23 453.031 1114.18 455.674 1117.03 459C1119.21 461.54 1120.86 466.058 1121.97 469.222C1123.02 472.177 1124.14 476.031 1125.75 478.722C1127.42 481.5 1127.6 485.624 1128.39 488.778C1129.24 492.171 1129.5 495.609 1129.5 499.111C1129.5 500.973 1129.58 502.499 1129.97 504.25C1130.09 504.761 1131.71 508.705 1129.47 506.694C1124.75 502.448 1118.87 500.232 1112.61 500C1111.21 499.948 1110.59 498.575 1109.28 498.5C1107.42 498.394 1106.09 497.244 1104.28 496.889C1100.28 496.104 1096.3 493.436 1092.5 492C1087.09 489.96 1082.11 486.677 1076.78 484.444C1074.65 483.556 1072.89 482.032 1070.78 481.111C1067.5 479.686 1064.25 478.347 1061.03 476.778C1054.28 473.489 1047.72 469.858 1041 466.5C1028.55 460.275 1018.31 450.151 1006.39 443C1003.23 441.103 1000.19 439.063 996.833 437.528C994.539 436.479 992.838 434.688 990.306 434.028C989.041 433.698 982.708 430.406 986.75 431.028C988.048 431.227 988.838 432 990.25 432C991.909 432 993.208 431.046 994.556 430.222C998.193 427.999 1001.91 423.728 1005.92 422.528C1007.24 422.13 1008.87 421.164 1010.11 420.5C1011.57 419.721 1013.41 420.065 1015 419.611C1018.52 418.606 1022.51 417.099 1026.28 417C1031.18 416.871 1036.1 417 1041 417C1044.77 417 1048.84 418.575 1052.44 419.722C1057 421.171 1061.47 422.603 1066 424.222C1070.5 425.828 1073.88 429.522 1077.89 431.889C1085.53 436.404 1091.54 444.146 1097.72 450.444C1102.22 455.027 1104.8 460.411 1108.22 465.694C1109.8 468.14 1111.65 471.475 1112.5 474.25C1113.38 477.111 1115.32 479.654 1116.5 482.389C1116.82 483.135 1119.42 488.819 1117 487.611C1114.5 486.362 1112.53 484.68 1109.69 484.25C1106.65 483.788 1104.38 482.844 1101.47 481.972C1091.97 479.121 1082.04 476.819 1073.5 471.75C1071.23 470.402 1068.67 469.923 1066.39 468.611C1063.84 467.149 1061.12 465.922 1058.5 464.611C1055.01 462.867 1051.22 461.831 1047.72 460.111C1045.06 458.803 1042.57 457.199 1039.94 455.833C1036.4 453.992 1032.63 452.079 1029.25 450C1026.64 448.394 1023.71 446.723 1020.89 445.556C1018.81 444.695 1017 442.924 1014.78 442.5C1013.56 442.269 1012.66 441.065 1011.5 440.5C1010.11 439.824 1008.66 439.038 1007.5 438C1006.99 437.547 1005.72 437 1005.72 437C1005.72 437 1007.57 437 1008.5 437C1011.27 437 1013.06 436.521 1015.61 435.611C1018.28 434.658 1021.28 432.613 1024.11 432.5C1025.03 432.463 1025.7 431.657 1026.72 431.472C1027.81 431.274 1028.56 431 1029.75 431C1032.48 431 1035.39 430.5 1038.25 430.5C1041.09 430.5 1045.2 429.748 1047.89 430.611C1052.02 431.938 1055.87 434.314 1060 435.611C1066.43 437.632 1071.5 442.002 1076.25 446.472C1082.35 452.217 1088.88 457.222 1093.75 464.25C1094.82 465.795 1096.45 466.844 1097.5 468.389C1097.83 468.871 1098.43 469.954 1098.5 470.5C1098.58 471.111 1099.1 470.697 1097.78 470C1095.63 468.869 1093.96 467.208 1091.72 466.222C1088.37 464.746 1084.97 463.452 1081.58 462.028C1079.06 460.964 1076.01 460.543 1073.75 458.972C1071.76 457.587 1070.09 455.834 1068.25 454.278C1064.51 451.112 1059.72 450.007 1055.89 447.222C1051.82 444.262 1046.05 443.772 1041.89 441C1040.01 439.749 1037.86 440.319 1035.89 439.611C1034.62 439.154 1030.65 438.5 1032 438.5" stroke="#696CFF" stroke-width="15" stroke-linecap="round"/>
<path d="M965.5 412.5C967.064 412.152 968.714 410.447 970.389 409.889C971.544 409.504 972.575 408.789 973.75 408.528C977.719 407.646 982.111 406.168 986.056 404.722C992.716 402.28 1000.23 400.69 1007.31 400C1009.9 399.747 1012.34 398.827 1014.92 398.556C1016.84 398.353 1018.61 398.559 1020.5 398C1025.2 396.608 1031.01 395.5 1035.89 395.5C1045.67 395.5 1056.02 394.345 1065.5 397C1069.45 398.107 1074.35 398.98 1077.89 401.222C1080.48 402.865 1083.09 404.812 1085.81 406.25C1089.67 408.296 1094.02 409.725 1097.39 412.611C1102.03 416.592 1107.26 420.824 1108.5 427" stroke="#696CFF" stroke-width="15" stroke-linecap="round"/>
<path d="M1018 468C1016.61 467.826 1014.98 466.685 1013.78 466C1013.05 465.582 1011.27 463.846 1013 465" stroke="#696CFF" stroke-width="15" stroke-linecap="round"/>
<path d="M1001 429.5C1006.24 429.064 1011.19 426.193 1016.39 426C1018.56 425.92 1020.66 425 1022.89 425C1025.06 425 1027.22 425 1029.39 425C1032.48 425 1035.63 424.759 1038.61 425.611C1040.43 426.13 1042.08 427 1044 427C1045.09 427 1046 426.676 1046 428" stroke="#696CFF" stroke-width="15" stroke-linecap="round"/>
<path d="M1146 488.5C1148.45 488.99 1149.31 492.53 1150.72 494.194C1151.47 495.079 1152.22 495.877 1152.5 497" stroke="#696CFF" stroke-width="15" stroke-linecap="round"/>
</svg>
