<svg width="1000" height="1000" viewBox="0 0 1000 1000" fill="none" xmlns="http://www.w3.org/2000/svg">
<path d="M102.996 644.825C57.3877 576.715 20.6872 494.757 38.1637 414.616C55.0764 336.802 130.676 271.133 207.008 254.219C225.839 250.755 244.99 249.385 264.118 250.132L543.176 250.473L480.317 367.451L293.094 368.472C270.038 368.472 246.359 368.813 224.766 377.043C209.836 382.721 196.519 392.007 185.991 404.085C175.463 416.163 168.046 430.662 164.392 446.305C160.739 461.949 160.962 478.255 165.041 493.792C169.12 509.326 176.931 523.615 187.784 535.398L102.996 644.825Z" fill="#5A5B5F"/>
<path d="M168.392 875.886L260.285 759.08H768.117C768.117 759.08 898.683 715.262 826.126 588.806L884.136 476.823C884.136 476.823 1019.44 564.456 966.39 730.019C966.39 730.019 947.108 832.182 788.299 875.83C787.719 875.913 787.13 875.913 786.551 875.83L168.392 875.886Z" fill="#5A5B5F"/>
<path d="M120.077 876H4L337.688 408.6H444.069L424.731 579.043H439.276L613.365 247.919H739.082L690.713 569.281H705.257L879.345 199.277L835.823 184.634L971.237 97L990.575 247.919L947.052 223.57L739.082 691.027H584.332L623.004 418.363H613.365L473.102 700.732H337.688L347.384 554.695H328.048L120.077 876Z" fill="#696CFF"/>
</svg>
